<?xml version="1.0" standalone="no"?>
<!DOCTYPE svg PUBLIC "-//W3C//DTD SVG 1.1//EN" "http://www.w3.org/Graphics/SVG/1.1/DTD/svg11.dtd" >
<svg xmlns="http://www.w3.org/2000/svg" xmlns:xlink="http://www.w3.org/1999/xlink" version="1.1">
<metadata>
Created by FontForge 20161013 at Sat Aug  8 02:46:53 2015
 By ,,,
(c) 2015 Apple Inc. All rights reserved.
</metadata>
<defs>
<font id="SFCompactText-Bold" horiz-adv-x="1800" >
  <font-face 
    font-family="SF Compact Text"
    font-weight="700"
    font-stretch="normal"
    units-per-em="2048"
    panose-1="2 1 6 4 3 2 2 6 2 4"
    ascent="1638"
    descent="-410"
    x-height="1065"
    cap-height="1365"
    bbox="-576 -511 2101 1955"
    underline-thickness="73"
    underline-position="-294"
    unicode-range="U+0020-1F189"
  />
<missing-glyph horiz-adv-x="2048" 
d="M100 -494v204h1848v-204h-1848zM100 -46v204h1848v-204h-1848zM100 402v204h1848v-204h-1848zM100 850v204h1848v-204h-1848zM100 1298v204h1848v-204h-1848zM100 1746v204h1848v-204h-1848z" />
    <glyph glyph-name=".notdef" horiz-adv-x="2048" 
d="M100 -494v204h1848v-204h-1848zM100 -46v204h1848v-204h-1848zM100 402v204h1848v-204h-1848zM100 850v204h1848v-204h-1848zM100 1298v204h1848v-204h-1848zM100 1746v204h1848v-204h-1848z" />
    <glyph glyph-name=".null" horiz-adv-x="0" 
 />
    <glyph glyph-name="nonmarkingreturn" horiz-adv-x="0" 
 />
    <glyph glyph-name="space" unicode=" " horiz-adv-x="454" 
 />
    <glyph glyph-name="exclam" unicode="!" horiz-adv-x="616" 
d="M126 139q0 73 50 117t132 44q84 0 134 -44t50 -117q0 -72 -50 -115.5t-134 -43.5q-82 0 -132 44t-50 115zM155 1365h309l-34 -908h-243z" />
    <glyph glyph-name="quotedbl" unicode="&#x22;" horiz-adv-x="1045" 
d="M120 1365h307l-37 -572h-233zM619 1365h306l-36 -572h-234z" />
    <glyph glyph-name="numbersign" unicode="#" horiz-adv-x="1289" 
d="M1200 808h-207l-49 -235h198l-39 -212h-200l-72 -361h-212l72 361h-218l-74 -361h-211l72 361h-194l39 212h196l49 235h-188l39 211h190l69 346h214l-71 -346h219l69 346h213l-70 -346h204zM547 832l-58 -283h259l57 283h-258z" />
    <glyph glyph-name="dollar" unicode="$" horiz-adv-x="1237" 
d="M371 1012q0 -114 144 -162q20 -7 36 -11v343q-80 -9 -130 -54t-50 -116zM899 384q0 66 -41.5 109t-135.5 70q-13 4 -23 5v-368q90 8 145 56.5t55 127.5zM701 -129h-154v125q-115 9 -203.5 46t-140 93.5t-77.5 122t-27 137.5h238q5 -76 60 -129t154 -66v397l-83 19
q-70 16 -129 45.5t-107.5 74t-76 110.5t-27.5 147q0 171 117 272t303 119v129h154v-130q184 -20 297 -125.5t117 -263.5h-232q-2 69 -51.5 121.5t-133.5 65.5v-372l84 -19q80 -18 142 -46t112.5 -72.5t77 -111t26.5 -152.5q0 -176 -119.5 -283.5t-321.5 -126.5z" />
    <glyph glyph-name="percent" unicode="%" horiz-adv-x="1444" 
d="M202 1041v-11q0 -89 32 -137t87 -48t87 47.5t32 135.5v12q0 88 -31.5 135.5t-86.5 47.5q-57 0 -88.5 -47.5t-31.5 -134.5zM25 1020v31q0 144 81 237.5t217 93.5q135 0 215 -93t80 -239v-32q0 -140 -80 -236.5t-219 -96.5q-136 0 -215 94.5t-79 240.5zM1003 339v-11
q0 -89 32 -137t87 -48q54 0 86.5 48t32.5 136v11q0 88 -31.5 135.5t-86.5 47.5q-57 0 -88.5 -47.5t-31.5 -134.5zM826 318v31q0 144 81 237.5t217 93.5q135 0 215 -93t80 -239v-31q0 -140 -80 -237t-219 -97q-136 0 -215 94.5t-79 240.5zM297 -1h-209l558 720l494 646h209
l-549 -706z" />
    <glyph glyph-name="ampersand" unicode="&#x26;" horiz-adv-x="1414" 
d="M1092 0l-105 110q-79 -66 -189 -102t-231 -36q-215 0 -345 104t-130 279q0 122 65 207.5t185 153.5q30 16 63 33q-84 87 -126.5 157.5t-42.5 152.5q0 139 110.5 228t274.5 89q100 0 184.5 -34t139.5 -106.5t55 -171.5q0 -63 -22.5 -117t-64 -97t-86 -75t-103.5 -64
l260 -273q48 84 48 255v74h228v-91q0 -256 -114 -411l252 -265h-306zM494 582q-147 -79 -147 -205q0 -94 71 -147t176 -53q69 0 138 24t112 68l-313 332q-21 -10 -37 -19zM597 842q86 43 130.5 90t44.5 112q0 66 -42.5 106t-107.5 40q-66 0 -108.5 -41t-42.5 -105
q0 -46 28 -90.5t98 -111.5z" />
    <glyph glyph-name="quotesingle" unicode="'" horiz-adv-x="547" 
d="M120 1365h307l-37 -572h-233z" />
    <glyph glyph-name="parenleft" unicode="(" horiz-adv-x="726" 
d="M397 1363h259q-35 -40 -71.5 -104t-75.5 -161.5t-64 -236.5t-25 -293q0 -104 10 -199.5t32.5 -178.5t41 -142t52.5 -128t49 -97t48 -85h-265q-46 56 -85.5 125t-80.5 170.5t-65 239.5t-24 293q0 127 17 238t40.5 187.5t63 152.5t69 119t74.5 100z" />
    <glyph glyph-name="parenright" unicode=")" horiz-adv-x="726" 
d="M70 1363h257q45 -57 75 -100t70 -119t63.5 -152.5t40.5 -187.5t17 -238q0 -155 -24 -293t-65.5 -239.5t-81.5 -170.5t-86 -125h-264q38 65 58.5 103.5t58.5 126t59.5 165.5t38.5 194.5t17 240.5q0 154 -24.5 293t-63.5 236.5t-75 161.5t-71 104z" />
    <glyph glyph-name="asterisk" unicode="*" horiz-adv-x="984" 
d="M588 579h-196l39 305l-247 -188l-98 176l288 117l-288 116l98 176l248 -192l-40 309h196l-41 -309l248 192l98 -176l-288 -116l288 -117l-98 -176l-246 188z" />
    <glyph glyph-name="plus" unicode="+" horiz-adv-x="1237" 
d="M742 429v-416h-243v416h-391v249h391v403h243v-403h392v-249h-392z" />
    <glyph glyph-name="comma" unicode="," horiz-adv-x="520" 
d="M248 -340h-219l108 626h282z" />
    <glyph glyph-name="hyphen" unicode="&#x2011;" horiz-adv-x="840" 
d="M735 430h-630v261h630v-261z" />
    <glyph glyph-name="hyphen" unicode="-" horiz-adv-x="840" 
d="M735 430h-630v261h630v-261z" />
    <glyph glyph-name="period" unicode="." horiz-adv-x="628" 
d="M132 158q0 82 51.5 131.5t129.5 49.5q79 0 131 -50t52 -131t-52 -129.5t-131 -48.5q-77 0 -129 49t-52 129z" />
    <glyph glyph-name="slash" unicode="/" horiz-adv-x="737" 
d="M265 -286h-252l459 1723h252z" />
    <glyph glyph-name="zero" unicode="0" horiz-adv-x="1294" 
d="M410 714v-62q0 -210 64 -322t173 -112t173 112.5t64 321.5v62q0 209 -64 320.5t-173 111.5t-173 -111t-64 -321zM121 651v64q0 201 61.5 352.5t182 237t285.5 85.5q248 0 385.5 -183.5t137.5 -491.5v-64q0 -114 -21 -215.5t-64.5 -186.5t-105.5 -146t-148 -95t-189 -34
q-165 0 -284.5 86t-179.5 238t-60 353z" />
    <glyph glyph-name="one" unicode="1" horiz-adv-x="983" 
d="M741 0h-287v1082h-14l-309 -217v271l323 229h287v-1365z" />
    <glyph glyph-name="two" unicode="2" horiz-adv-x="1206" 
d="M400 947h-273v16q0 81 29.5 155.5t85.5 136t149 98.5t210 37q213 0 343.5 -109t130.5 -276q0 -29 -4.5 -57t-9 -50t-17.5 -49.5t-19.5 -43.5t-26.5 -44t-27.5 -39t-33 -40t-32 -36t-36 -38.5t-34.5 -36.5l-299 -315v-14h562v-242h-957v187l497 521q35 36 55.5 60t46 60
t37.5 73t12 75q0 76 -55 126t-139 50q-88 0 -141.5 -54.5t-53.5 -131.5v-19z" />
    <glyph glyph-name="three" unicode="3" horiz-adv-x="1233" 
d="M450 589v227h145q89 0 146 49.5t57 125.5q-1 76 -58 123.5t-145 47.5t-145 -49t-61 -116h-268q6 176 133.5 284t350.5 109q214 1 343 -99t131 -259q1 -69 -24 -127t-64.5 -94.5t-81.5 -58.5t-82 -28v-16q50 -5 99 -26.5t93 -59t72 -100t29 -138.5q1 -97 -41 -176
t-114.5 -129.5t-167 -77.5t-201.5 -27q-229 0 -361.5 114.5t-136.5 282.5h264q5 -71 70.5 -117.5t163.5 -46.5q107 -1 172.5 53t64.5 139q-1 83 -64 136.5t-167 53.5h-152z" />
    <glyph glyph-name="four" unicode="4" horiz-adv-x="1273" 
d="M611 1365h415v-883h164v-240h-164v-242h-271v242h-660v244q55 105 128.5 232.5t116 199t145 239.5t126.5 208zM353 482h402v661h-14q-249 -392 -388 -654v-7z" />
    <glyph glyph-name="five" unicode="5" horiz-adv-x="1255" 
d="M138 361h263q14 -70 80 -111t152 -41q99 0 169 66.5t70 176.5q0 102 -68.5 166t-169.5 64q-80 0 -134.5 -35.5t-80.5 -81.5h-253l56 800h850v-240h-621l-28 -335h14q26 42 98.5 79.5t176.5 37.5q119 0 217 -50t159.5 -153t61.5 -242q0 -222 -143.5 -355t-377.5 -133
q-215 0 -350.5 110t-140.5 277z" />
    <glyph glyph-name="six" unicode="6" horiz-adv-x="1287" 
d="M1143 1036h-274q-16 49 -66.5 83.5t-129.5 34.5q-86 0 -150.5 -59.5t-96 -160.5t-27.5 -226h17q36 79 118 132t208 53q83 0 159 -28.5t136.5 -81t97 -137.5t36.5 -190q0 -224 -142 -352.5t-367 -128.5q-300 0 -438 229q-103 169 -103 450q0 361 147.5 548t407.5 187
q109 0 199 -32t146 -84t87.5 -113t34.5 -124zM431 444q0 -107 65.5 -171t165.5 -64q103 0 167 61.5t64 172.5q0 107 -66 168.5t-164 61.5q-103 0 -167.5 -64t-64.5 -165z" />
    <glyph glyph-name="seven" unicode="7" horiz-adv-x="1155" 
d="M105 1365h955v-247l-553 -1118h-304l567 1110v13h-665v242z" />
    <glyph glyph-name="eight" unicode="8" horiz-adv-x="1300" 
d="M651 186q107 0 178.5 59t71.5 153t-71.5 153.5t-178.5 59.5q-108 0 -179 -59.5t-71 -153.5t71 -153t179 -59zM651 809q90 0 148.5 52t58.5 133t-58.5 132t-148.5 51t-148.5 -51t-58.5 -132t58.5 -133t148.5 -52zM648 -26q-243 0 -389 111.5t-146 290.5q0 78 26.5 140.5
t71 102t92 62.5t98.5 33v13q-102 31 -168 106.5t-66 196.5q0 157 133.5 258.5t350.5 101.5t350 -101.5t133 -258.5q0 -122 -66.5 -197t-167.5 -106v-13q51 -10 99 -33.5t92 -62.5t70.5 -101.5t26.5 -139.5q0 -179 -148 -291t-392 -112z" />
    <glyph glyph-name="nine" unicode="9" horiz-adv-x="1286" 
d="M149 317h273q11 -44 63.5 -76t127.5 -32q98 0 163.5 60t93 158t22.5 226h-16q-29 -78 -112 -130t-207 -52q-88 0 -166.5 29t-140.5 83t-98 140.5t-36 193.5q0 145 67 253.5t182.5 164.5t262.5 56q90 0 167 -22t146 -73t118 -129t77.5 -197t28.5 -270q0 -356 -140.5 -540
t-415.5 -184q-108 0 -196 30t-142.5 79.5t-85.5 109t-36 122.5zM852 923q0 109 -64 173.5t-167 64.5q-99 0 -163 -64.5t-64 -172.5q0 -109 65 -171t165 -62q98 0 163 62t65 170z" />
    <glyph glyph-name="colon" unicode=":" horiz-adv-x="647" 
d="M141 810q0 81 52 131t129 50q79 0 131.5 -50t52.5 -131t-52.5 -129.5t-131.5 -48.5q-77 0 -129 49t-52 129zM141 158q0 81 52 131t129 50q79 0 131.5 -50t52.5 -131t-52.5 -129.5t-131.5 -48.5q-77 0 -129 49t-52 129z" />
    <glyph glyph-name="semicolon" unicode=";" horiz-adv-x="644" 
d="M145 812q0 82 52 131.5t129 49.5q79 0 131.5 -50t52.5 -131q0 -80 -52.5 -129t-131.5 -49q-77 0 -129 49t-52 129zM297 -409h-228l110 647h294z" />
    <glyph glyph-name="less" unicode="&#x3c;" horiz-adv-x="1237" 
d="M150 439v184l933 512v-292l-607 -300v-13l607 -295v-286z" />
    <glyph glyph-name="equal" unicode="=" horiz-adv-x="1237" 
d="M1093 216h-948v231h948v-231zM1093 657h-948v231h948v-231z" />
    <glyph glyph-name="greater" unicode="&#x3e;" horiz-adv-x="1237" 
d="M1087 623v-184l-933 -490v286l607 295v13l-607 300v292z" />
    <glyph glyph-name="question" unicode="?" horiz-adv-x="1034" 
d="M308 139q0 73 50 117t132 44q84 0 134.5 -44t50.5 -117q0 -72 -50.5 -115.5t-134.5 -43.5q-82 0 -132 44t-50 115zM65 980q-3 86 21.5 156.5t68.5 117t104 78t126 45.5t138 14q123 0 222 -39.5t162 -125t63 -205.5q0 -63 -16 -113.5t-49 -89.5t-61 -62.5t-74 -55.5
q-44 -31 -63 -45t-43.5 -36.5t-33 -40t-15.5 -42.5t-7 -58v-50h-252l-2 53q-15 200 176 328q84 56 119 95.5t35 101.5q0 77 -51 116t-126 39q-87 0 -134.5 -50.5t-48.5 -130.5h-259z" />
    <glyph glyph-name="at" unicode="@" horiz-adv-x="1769" 
d="M1306 133q-94 0 -163 39.5t-87 106.5h-9q-19 -66 -82.5 -105.5t-147.5 -39.5q-130 0 -205.5 88t-75.5 240v116q0 145 76 232.5t208 87.5q89 0 142.5 -42t69.5 -99h8v127h190v-499q0 -47 28.5 -73.5t73.5 -26.5q65 0 111 82t46 240v29q0 110 -40 207t-112.5 170
t-181.5 115.5t-240 42.5h-9q-272 0 -440.5 -171t-168.5 -456v-38q0 -124 32 -226.5t87.5 -173t131.5 -119t162.5 -70.5t182.5 -22h9q185 0 284 43v-161q-91 -41 -294 -41h-9q-163 0 -302 50t-242.5 144.5t-162 241t-58.5 328.5v51q0 233 100.5 411.5t279 274.5t408.5 96h8
q175 0 319.5 -56.5t237 -152.5t143 -220t50.5 -261v-49q0 -204 -97 -332.5t-261 -128.5zM742 493q0 -189 140 -189q138 0 138 177v83q0 86 -39.5 128t-100.5 42q-63 0 -100.5 -47t-37.5 -140v-54z" />
    <glyph glyph-name="A" unicode="A" horiz-adv-x="1324" 
d="M330 0h-291l452 1365h344l450 -1365h-308l-100 331h-445zM662 1086h-13l-160 -534h332z" />
    <glyph glyph-name="B" unicode="B" horiz-adv-x="1318" 
d="M167 0v1365h581q186 0 297.5 -90t111.5 -245q0 -123 -65.5 -199.5t-171.5 -99.5v-13q129 -11 217 -97t88 -235q0 -180 -132 -283t-343 -103h-583zM454 1146v-342h172q247 0 247 174q0 78 -51 123t-143 45h-225zM454 603v-384h193q284 0 284 189q0 91 -61 143t-175 52
h-241z" />
    <glyph glyph-name="C" unicode="C" horiz-adv-x="1338" 
d="M407 760v-160q0 -180 74.5 -276.5t212.5 -96.5q119 0 190 71.5t71 183.5h278v-33q0 -210 -153 -342.5t-388 -132.5q-277 0 -428.5 166.5t-151.5 460.5v160q0 293 152.5 461t427.5 168q236 0 388.5 -135.5t152.5 -350.5v-32h-278q0 116 -71.5 191t-189.5 75
q-136 0 -211.5 -99t-75.5 -279z" />
    <glyph glyph-name="D" unicode="D" horiz-adv-x="1388" 
d="M167 1365h511q307 0 459.5 -175.5t152.5 -502.5q0 -329 -153.5 -508t-458.5 -179h-511v1365zM457 1123v-880h179q184 0 270.5 108t86.5 329q0 222 -87 332.5t-270 110.5h-179z" />
    <glyph glyph-name="E" unicode="E" horiz-adv-x="1185" 
d="M1058 243v-243h-891v1365h891v-243h-604v-321h568v-225h-568v-333h604z" />
    <glyph glyph-name="F" unicode="F" horiz-adv-x="1129" 
d="M457 0h-290v1365h883v-246h-593v-352h541v-239h-541v-528z" />
    <glyph glyph-name="G" unicode="G" horiz-adv-x="1363" 
d="M1249 921h-282q-12 97 -83 158t-185 61q-141 0 -218 -97.5t-77 -274.5v-164q0 -174 75.5 -277t227.5 -103q129 0 199 65.5t70 164.5v72h-267v217h542v-268q0 -102 -34 -191t-99.5 -159t-172 -110.5t-242.5 -40.5q-147 0 -261 47t-185.5 132t-108 198.5t-36.5 251.5v168
q0 280 156.5 449.5t434.5 169.5q125 0 228.5 -38t170.5 -103t105 -149t42 -179z" />
    <glyph glyph-name="H" unicode="H" horiz-adv-x="1464" 
d="M1297 0h-290v571h-550v-571h-290v1365h290v-546h550v546h290v-1365z" />
    <glyph glyph-name="I" unicode="I" horiz-adv-x="624" 
d="M457 0h-290v1365h290v-1365z" />
    <glyph glyph-name="J" unicode="J" horiz-adv-x="1135" 
d="M52 415h278q2 -79 50 -126.5t125 -47.5q183 0 183 203v921h290v-917q0 -230 -124 -352t-346 -122q-112 0 -200.5 36t-143.5 97.5t-83.5 140t-28.5 167.5z" />
    <glyph glyph-name="K" unicode="K" horiz-adv-x="1325" 
d="M1286 1365l-483 -590l503 -775h-346l-369 574l-134 -150v-424h-290v1365h290v-595h13l501 595h315z" />
    <glyph glyph-name="L" unicode="L" horiz-adv-x="1077" 
d="M1026 254v-254h-859v1365h290v-1111h569z" />
    <glyph glyph-name="M" unicode="M" horiz-adv-x="1692" 
d="M428 0h-258v1365h296l376 -827h10l377 827h294v-1365h-261v876h-14l-312 -686h-181l-313 686h-14v-876z" />
    <glyph glyph-name="N" unicode="N" horiz-adv-x="1437" 
d="M439 0h-272v1365h237l582 -854h12v854h272v-1365h-236l-583 861h-12v-861z" />
    <glyph glyph-name="O" unicode="O" horiz-adv-x="1409" 
d="M1002 767q0 182 -81 278.5t-216 96.5q-136 0 -217 -96.5t-81 -278.5v-170q0 -182 81 -278t217 -96q135 0 216 96.5t81 277.5v170zM1297 598q0 -290 -157 -457t-435 -167t-435.5 167t-157.5 457v166q0 292 157.5 459t435.5 167t435 -167.5t157 -458.5v-166z" />
    <glyph glyph-name="P" unicode="P" horiz-adv-x="1259" 
d="M723 1365q146 0 253.5 -63.5t160.5 -167.5t53 -234q0 -201 -125 -331t-345 -130h-264v-439h-289v1365h556zM896 900q0 110 -61.5 169.5t-171.5 59.5h-208v-458h208q109 0 171 60t62 169z" />
    <glyph glyph-name="Q" unicode="Q" horiz-adv-x="1413" 
d="M1284 -130h-283l-95 135q-93 -31 -198 -31q-274 0 -433.5 170.5t-159.5 455.5v162q0 287 159.5 457.5t433.5 170.5t433 -170.5t159 -457.5v-162q0 -311 -186 -480zM399 594q0 -184 80.5 -286t220.5 -106q42 0 75 13l-148 211h261l63 -77q65 94 65 245v171q0 178 -83 278
t-225 100q-143 0 -226 -100t-83 -278v-171z" />
    <glyph glyph-name="R" unicode="R" horiz-adv-x="1322" 
d="M723 1365q230 0 358 -119t128 -321q0 -144 -73.5 -245t-173.5 -139l274 -541h-322l-237 497h-225v-497h-285v1365h556zM452 717h225q109 0 171.5 52t62.5 152q0 102 -63 157.5t-167 55.5h-229v-417z" />
    <glyph glyph-name="S" unicode="S" horiz-adv-x="1269" 
d="M85 394h278q7 -80 80 -132.5t192 -52.5t183 47t64 124q0 65 -50 102.5t-158 61.5l-205 45q-167 37 -259.5 131.5t-92.5 251.5q0 191 143 305.5t374 114.5q120 0 218 -33.5t161.5 -90t98 -130.5t35.5 -157h-270q-6 78 -70.5 128.5t-173.5 50.5q-105 0 -166 -46.5
t-61 -119.5q0 -112 186 -150l207 -45q85 -18 149.5 -46.5t115.5 -74t77.5 -113t26.5 -155.5q0 -197 -144 -316.5t-403 -119.5q-133 0 -237 34t-167.5 93t-96.5 133.5t-35 159.5z" />
    <glyph glyph-name="T" unicode="T" horiz-adv-x="1136" 
d="M713 0h-290v1115h-382v250h1054v-250h-382v-1115z" />
    <glyph glyph-name="U" unicode="U" horiz-adv-x="1419" 
d="M710 229q123 0 195.5 71.5t72.5 203.5v861h290v-893q0 -226 -151.5 -362t-406.5 -136t-406.5 136t-151.5 362v893h289v-861q0 -133 72.5 -204t196.5 -71z" />
    <glyph glyph-name="V" unicode="V" horiz-adv-x="1314" 
d="M483 0l-450 1365h335l291 -1042h14l288 1042h320l-445 -1365h-353z" />
    <glyph glyph-name="W" unicode="W" horiz-adv-x="1815" 
d="M656 0h-267l-358 1365h311l195 -956h14l235 956h244l236 -956h14l194 956h310l-357 -1365h-267l-246 909h-11z" />
    <glyph glyph-name="X" unicode="X" horiz-adv-x="1250" 
d="M1241 1365l-431 -683l425 -682h-330l-280 464h-13l-280 -464h-313l418 687l-415 678h340l271 -474h13l269 474h326z" />
    <glyph glyph-name="Y" unicode="Y" horiz-adv-x="1218" 
d="M754 0h-290v496l-457 869h319l281 -570h12l281 570h311l-457 -862v-503z" />
    <glyph glyph-name="Z" unicode="Z" horiz-adv-x="1235" 
d="M110 0v195l646 911v15h-630v244h980v-195l-644 -910v-16h664v-244h-1016z" />
    <glyph glyph-name="bracketleft" unicode="[" horiz-adv-x="770" 
d="M133 1365h546v-215h-277v-1164h290v-214h-559v1593z" />
    <glyph glyph-name="backslash" unicode="\" horiz-adv-x="737" 
d="M724 -286h-252l-459 1723h252z" />
    <glyph glyph-name="bracketright" unicode="]" horiz-adv-x="770" 
d="M90 1365h547v-1593h-559v214h290v1164h-278v215z" />
    <glyph glyph-name="asciicircum" unicode="^" horiz-adv-x="948" 
d="M887 795h-244l-163 339h-11l-163 -339h-244l293 570h240z" />
    <glyph glyph-name="underscore" unicode="_" horiz-adv-x="908" 
d="M909 -327h-910v224h910v-224z" />
    <glyph glyph-name="grave" unicode="`" horiz-adv-x="1000" 
d="M702 1233h-205l-280 352h248z" />
    <glyph glyph-name="a" unicode="a" horiz-adv-x="1157" 
d="M449 -16q-157 0 -253.5 87.5t-96.5 237.5q0 147 99 233t280 86h256v92q0 70 -44.5 106.5t-122.5 36.5q-143 0 -164 -110h-265q4 68 30 125t76.5 103.5t134 73t193.5 26.5q95 0 172 -20t138.5 -62t95.5 -115.5t34 -172.5v-711h-265v133h-13q-34 -65 -105 -107t-180 -42z
M543 194q79 0 135 45t56 114v107h-191q-81 0 -123 -35.5t-42 -94.5q0 -65 48 -100.5t117 -35.5z" />
    <glyph glyph-name="b" unicode="b" horiz-adv-x="1257" 
d="M754 -13q-111 0 -193 47t-114 130h-14v-164h-278v1455h282v-559h14q26 83 109.5 132.5t196.5 49.5q185 0 289.5 -127t104.5 -353v-130q0 -226 -105.5 -353.5t-291.5 -127.5zM654 217q99 0 153.5 71.5t54.5 199.5v85q0 130 -55 202t-155 72t-157.5 -70t-57.5 -192v-116
q0 -113 60 -182.5t157 -69.5z" />
    <glyph glyph-name="c" unicode="c" horiz-adv-x="1125" 
d="M104 478v118q0 223 130 355.5t350 132.5q204 0 323 -109.5t122 -278.5h-258q-6 64 -50.5 111t-128.5 47q-98 0 -151.5 -70t-53.5 -191v-113q0 -127 54 -198t151 -71q163 0 183 150h258q-4 -171 -120.5 -275.5t-329.5 -104.5q-223 0 -351 132.5t-128 364.5z" />
    <glyph glyph-name="d" unicode="d" horiz-adv-x="1258" 
d="M504 1078q111 0 192 -47.5t111 -128.5h13v553h282v-1455h-278v170h-13q-26 -81 -111 -131.5t-199 -50.5q-182 0 -288.5 126t-106.5 348v142q0 222 107.5 348t290.5 126zM603 847q-96 0 -152 -69.5t-56 -197.5v-94q0 -128 56.5 -198t154.5 -70t156 68.5t58 191.5v120
q0 115 -60.5 182t-156.5 67z" />
    <glyph glyph-name="e" unicode="e" horiz-adv-x="1158" 
d="M596 -19q-227 0 -359.5 128.5t-132.5 367.5v113q0 119 37 214t102.5 155.5t151.5 92.5t187 32q213 0 344 -133.5t131 -360.5v-120h-677v-50q0 -98 59 -158t156 -60q77 0 129.5 32.5t60.5 82.5h263q-3 -44 -20.5 -88.5t-53.5 -89.5t-86.5 -80t-126.5 -56.5t-165 -21.5z
M380 640h406v9q0 99 -55.5 159.5t-146.5 60.5q-92 0 -148 -60.5t-56 -159.5v-9z" />
    <glyph glyph-name="f" unicode="f" horiz-adv-x="850" 
d="M247 0v829h-173v222h173v106q0 161 86 231.5t285 70.5q96 0 155 -9v-204q-36 6 -99 6q-82 0 -118 -27t-36 -93v-81h238v-222h-232v-829h-279z" />
    <glyph glyph-name="g" unicode="g" horiz-adv-x="1234" 
d="M591 -182q110 0 165 56t55 161v152h-14q-31 -74 -109.5 -120.5t-187.5 -46.5q-179 0 -289 126.5t-110 353.5v97q0 228 109.5 354.5t289.5 126.5q112 0 193 -50.5t109 -127.5h13v165h277v-1052q0 -89 -28.5 -159.5t-75.5 -116t-113.5 -76t-138.5 -43t-153 -12.5
q-114 0 -202.5 25.5t-142.5 70.5t-83 100.5t-32 120.5h271q11 -49 63.5 -77t133.5 -28zM605 847q-99 0 -157 -71t-58 -197v-77q0 -125 59.5 -196.5t156.5 -71.5q95 0 150 69.5t55 182.5v107q0 114 -56 184t-150 70z" />
    <glyph glyph-name="h" unicode="h" horiz-adv-x="1262" 
d="M156 0v1455h281v-576h14q10 33 31.5 65t57.5 64.5t95 52.5t131 20q161 0 256.5 -96t95.5 -278v-707h-281v628q0 108 -52 158t-136 50q-96 0 -154 -67t-58 -180v-589h-281z" />
    <glyph glyph-name="i" unicode="i" horiz-adv-x="622" 
d="M171 0v1065h281v-1065h-281zM138 1374q0 69 47.5 111.5t124.5 42.5q78 0 126.5 -42.5t48.5 -111.5t-48 -111t-127 -42q-77 0 -124.5 42t-47.5 111z" />
    <glyph glyph-name="j" unicode="j" horiz-adv-x="622" 
d="M138 1374q0 69 47.5 111.5t124.5 42.5q78 0 126.5 -42.5t48.5 -111.5t-48 -111t-127 -42q-77 0 -124.5 42t-47.5 111zM451 1065v-1075q0 -174 -94 -263t-268 -89q-68 0 -112 7v207q28 -4 57 -4q73 0 105 35t32 110v1072h280z" />
    <glyph glyph-name="k" unicode="k" horiz-adv-x="1172" 
d="M435 363v-363h-281v1455h281v-822h13l339 432h316l-381 -459l408 -606h-328l-295 441z" />
    <glyph glyph-name="l" unicode="l" horiz-adv-x="602" 
d="M160 0v1455h282v-1455h-282z" />
    <glyph glyph-name="m" unicode="m" horiz-adv-x="1843" 
d="M152 0v1065h274v-178h14q10 34 29 65t52 61.5t87.5 49t122.5 18.5q116 0 191 -55t100 -145h11q30 82 112.5 141t209.5 59q160 0 250.5 -91.5t90.5 -248.5v-741h-281v649q0 97 -47 145t-127 48t-131 -54.5t-51 -150.5v-637h-270v645q0 99 -49 148t-128 49t-129 -52.5
t-50 -150.5v-639h-281z" />
    <glyph glyph-name="n" unicode="n" horiz-adv-x="1256" 
d="M152 0v1065h274v-186h14q11 35 32.5 67t57.5 64t94.5 51.5t131.5 19.5q164 0 258.5 -95t94.5 -278v-708h-281v628q0 109 -50 158.5t-133 49.5q-99 0 -155.5 -66.5t-56.5 -180.5v-589h-281z" />
    <glyph glyph-name="o" unicode="o" horiz-adv-x="1193" 
d="M598 1084q223 0 357 -134.5t134 -361.5v-104q0 -238 -133 -370.5t-358 -132.5q-228 0 -361 131.5t-133 370.5v104q0 224 135.5 360.5t358.5 136.5zM598 861q-101 0 -155 -79t-54 -197v-104q0 -118 52.5 -197.5t156.5 -79.5q103 0 155 79t52 198v104q0 119 -53 197.5
t-154 78.5z" />
    <glyph glyph-name="p" unicode="p" horiz-adv-x="1254" 
d="M750 -13q-109 0 -187.5 46.5t-113.5 130.5h-14v-515h-282v1416h278v-169h14q32 85 114 133.5t194 48.5q185 0 289.5 -127t104.5 -353v-130q0 -226 -105.5 -353.5t-291.5 -127.5zM649 217q99 0 154 71.5t55 200.5v85q0 130 -55 201.5t-156 71.5q-99 0 -155.5 -69.5
t-56.5 -190.5v-120q0 -113 58.5 -181.5t155.5 -68.5z" />
    <glyph glyph-name="q" unicode="q" horiz-adv-x="1253" 
d="M501 1078q112 0 194.5 -48.5t113.5 -132.5h14v168h278v-1416h-282v517h-14q-30 -83 -112 -131t-194 -48q-183 0 -288 127.5t-105 351.5v133q0 223 105.5 351t289.5 128zM604 846q-98 0 -153.5 -71t-55.5 -196v-94q0 -126 55.5 -197t155.5 -71q99 0 156 69.5t57 190.5v120
q0 112 -59.5 180.5t-155.5 68.5z" />
    <glyph glyph-name="r" unicode="r" horiz-adv-x="863" 
d="M161 0v1065h282v-168h14q8 30 27 60t49.5 58.5t79 46.5t106.5 18q54 0 88 -8v-252q-32 12 -108 12q-124 0 -186.5 -64.5t-62.5 -175.5v-592h-289z" />
    <glyph glyph-name="s" unicode="s" horiz-adv-x="1089" 
d="M113 748q0 87 35 153.5t96.5 105.5t137.5 58t165 19q186 0 299 -83t113 -233h-248q-6 49 -49.5 84.5t-119.5 35.5q-74 0 -117.5 -32t-43.5 -85q0 -17 5 -31.5t17 -25.5t24 -20t32.5 -16.5t35.5 -12.5t41 -10t40.5 -7.5t42.5 -7t39 -6.5q160 -27 247 -96.5t87 -205.5
q0 -164 -122 -257.5t-340 -93.5q-205 0 -321.5 86.5t-116.5 231.5h273q7 -56 52 -88.5t126 -32.5q88 0 132 33.5t44 86.5q0 16 -4 29t-14 24t-19.5 19t-28 15.5t-31 12t-38 10t-39.5 8.5t-44 8t-45 8q-78 15 -134.5 36.5t-106.5 57t-76 91.5t-26 131z" />
    <glyph glyph-name="t" unicode="t" horiz-adv-x="842" 
d="M237 1051v264h273v-264h235v-222h-235v-481q0 -73 35 -102t116 -29q54 0 92 4v-214q-63 -12 -161 -12q-199 0 -280 70.5t-81 236.5v527h-162v222h168z" />
    <glyph glyph-name="u" unicode="u" horiz-adv-x="1253" 
d="M1101 1065v-1065h-274v178h-15q-11 -34 -35 -66t-61 -62t-93 -48t-123 -18q-165 0 -259.5 91t-94.5 275v715h281v-639q0 -109 52 -153.5t132 -44.5q88 0 148.5 57.5t60.5 150.5v629h281z" />
    <glyph glyph-name="v" unicode="v" horiz-adv-x="1110" 
d="M387 0l-349 1065h306l199 -798h11l223 798h296l-370 -1065h-316z" />
    <glyph glyph-name="w" unicode="w" horiz-adv-x="1636" 
d="M1591 1065l-275 -1065h-293l-197 737h-9l-194 -737h-296l-282 1065h295l148 -768h11l191 768h264l195 -768h11l151 768h280z" />
    <glyph glyph-name="x" unicode="x" horiz-adv-x="1146" 
d="M769 0l-197 347h-11l-198 -347h-298l327 530l-339 535h325l193 -345h12l198 345h309l-346 -527l339 -538h-314z" />
    <glyph glyph-name="y" unicode="y" horiz-adv-x="1151" 
d="M1099 1065q-339 -1011 -343 -1024l-27 -72q-30 -82 -64 -139.5t-86.5 -107t-129 -74t-177.5 -24.5q-85 0 -152 12v207q31 -7 88 -7q94 0 136.5 33.5t54.5 101.5l9 31l-363 1063h310l214 -820h12l219 820h299z" />
    <glyph glyph-name="z" unicode="z" horiz-adv-x="1058" 
d="M110 0v161l497 663v13h-490v228h830v-180l-479 -644v-13h492v-228h-850z" />
    <glyph glyph-name="braceleft" unicode="{" horiz-adv-x="844" 
d="M336 598v-28q198 -18 198 -237v-241q0 -110 42.5 -151.5t159.5 -41.5h41v-211h-100q-212 0 -311.5 84t-99.5 281v202q0 107 -32.5 151.5t-125.5 44.5v265q93 0 125.5 45t32.5 151v172q0 195 99 276t312 81h100v-211h-41q-117 0 -159.5 -41.5t-42.5 -151.5v-220
q0 -107 -49 -158.5t-149 -60.5z" />
    <glyph glyph-name="bar" unicode="|" horiz-adv-x="763" 
d="M508 -297h-253v1734h253v-1734z" />
    <glyph glyph-name="braceright" unicode="}" horiz-adv-x="845" 
d="M509 570v28q-99 9 -148 60.5t-49 158.5v220q0 110 -43 151.5t-159 41.5h-42v211h100q213 0 311.5 -81t98.5 -276v-172q0 -106 33 -151t127 -45v-265q-94 0 -127 -45t-33 -151v-202q0 -197 -99 -281t-311 -84h-100v211h42q116 0 159 41.5t43 151.5v241q0 219 197 237z" />
    <glyph glyph-name="asciitilde" unicode="~" horiz-adv-x="1167" 
d="M790 481q-57 0 -106.5 19t-85 45.5t-67 53.5t-65 46t-65.5 19q-53 0 -79 -44.5t-29 -110.5h-210q-8 168 69.5 281t223.5 113q57 0 106.5 -19t84 -45.5t65 -53.5t64 -46t66.5 -19q100 0 108 155h211q5 -176 -72.5 -285t-218.5 -109z" />
    <glyph glyph-name="nonbreakingspace" unicode="&#xa0;" horiz-adv-x="454" 
 />
    <glyph glyph-name="exclamdown" unicode="&#xa1;" horiz-adv-x="616" 
d="M462 -279h-309l34 908h243zM491 947q0 -72 -50 -116.5t-132 -44.5q-84 0 -134.5 44.5t-50.5 116.5t50.5 116t134.5 44q82 0 132 -44.5t50 -115.5z" />
    <glyph glyph-name="cent" unicode="&#xa2;" horiz-adv-x="1237" 
d="M1080 508q-3 -148 -102.5 -249t-252.5 -118v-222h-212v220q-164 18 -272.5 142.5t-108.5 335.5v138q0 103 31 188t84 142.5t121 92t145 44.5v223h212v-226q154 -16 251 -123t100 -248h-253q-6 63 -60 114t-146 51q-105 0 -165.5 -71t-60.5 -185v-141q0 -121 62 -191.5
t166 -70.5q92 0 145.5 45t62.5 109h253z" />
    <glyph glyph-name="sterling" unicode="&#xa3;" horiz-adv-x="1237" 
d="M1145 236v-236h-1028v245q78 8 119.5 54t41.5 157v122h-173v197h173v240q0 173 115 273.5t313 100.5q202 0 315.5 -100t116.5 -289h-264q-2 67 -45 110t-120 43q-82 0 -123.5 -48t-41.5 -126v-204h291v-197h-291l-1 -133q-3 -155 -85 -193v-16h687z" />
    <glyph glyph-name="currency" unicode="&#xa4;" horiz-adv-x="1237" 
d="M999 119l-161 160q-99 -60 -216 -60q-119 0 -219 61l-163 -161l-142 146l163 161q-64 103 -64 223t61 220l-160 158l142 147l159 -158q100 64 223 64q118 0 220 -62l157 156l142 -147l-157 -156q62 -103 62 -222q0 -122 -65 -225l160 -159zM405 649q0 -88 63.5 -150.5
t153.5 -62.5q89 0 152.5 62.5t63.5 150.5t-63.5 150.5t-152.5 62.5q-90 0 -153.5 -62.5t-63.5 -150.5z" />
    <glyph glyph-name="yen" unicode="&#xa5;" horiz-adv-x="1237" 
d="M1053 183h-290v-183h-288v183h-285v180h285v115h-285v180h205l-378 707h319l280 -570h12l281 570h311l-380 -707h213v-180h-290v-115h290v-180z" />
    <glyph glyph-name="brokenbar" unicode="&#xa6;" horiz-adv-x="763" 
d="M508 780h-253v657h253v-657zM508 -297h-253v677h253v-677z" />
    <glyph glyph-name="section" unicode="&#xa7;" horiz-adv-x="984" 
d="M653 73q0 18 -6.5 33.5t-15 27t-26.5 23t-31.5 18.5t-41 16t-44 14t-50 14.5t-50.5 14.5q-67 19 -116 40.5t-94.5 56t-69 85.5t-23.5 118q0 160 166 255v6q-158 92 -158 260q0 107 57 184.5t147.5 114.5t203.5 37q179 0 285.5 -91t106.5 -238h-231q-3 52 -48.5 91
t-119.5 39q-67 0 -108 -34t-41 -88q0 -16 4 -30.5t14.5 -26.5t19.5 -21.5t28 -18.5t31 -15t38 -14l39 -12t43 -12t43 -12q53 -14 91.5 -27.5t82.5 -38t71 -54t45.5 -75t18.5 -101.5q0 -164 -156 -269v-7q70 -41 109 -96t39 -142q0 -156 -114 -252t-303 -96q-180 0 -294 88
t-116 239h234q9 -57 54 -92t121 -35q83 0 124 35.5t41 87.5zM571 408q43 20 70.5 61.5t27.5 88.5q0 113 -172 152q-10 2 -31.5 6.5t-31.5 6.5q-43 -18 -74.5 -59.5t-31.5 -90.5q0 -62 43.5 -94t127.5 -54l39 -9t33 -8z" />
    <glyph glyph-name="dieresis" unicode="&#xa8;" horiz-adv-x="1000" 
d="M702 1210q-57 0 -93 35t-36 90q0 57 36 92t93 35q61 0 97.5 -35t36.5 -92q0 -56 -37 -90.5t-97 -34.5zM296 1210q-58 0 -94.5 34.5t-36.5 90.5q0 57 36 92t95 35t95.5 -35t36.5 -92q0 -56 -36.5 -90.5t-95.5 -34.5z" />
    <glyph glyph-name="copyright" unicode="&#xa9;" horiz-adv-x="1693" 
d="M510 632v99q0 155 97.5 243.5t250.5 88.5q140 0 230 -81t92 -192h-175q-4 45 -40.5 79t-105.5 34q-167 0 -167 -178v-94q0 -86 45.5 -128t121.5 -42q68 0 105.5 26.5t43.5 71.5h174q-2 -110 -89 -186t-235 -76q-154 0 -251 88t-97 247zM266 642q0 -251 162 -412t424 -161
q261 0 424.5 161t163.5 412v104q0 114 -43.5 215.5t-119.5 176t-186.5 118t-238.5 43.5q-171 0 -305.5 -74t-207.5 -200t-73 -279v-104zM852 -64q-209 0 -374 92t-255.5 253.5t-90.5 362.5v103q0 142 54 268t148 218t229 145.5t289 53.5q155 0 290 -54t228.5 -146.5
t147.5 -218.5t54 -266v-103q0 -151 -53 -282t-146.5 -224.5t-228.5 -147.5t-292 -54z" />
    <glyph glyph-name="ordfeminine" unicode="&#xaa;" horiz-adv-x="713" 
d="M282 749q-100 0 -157.5 47.5t-57.5 133.5q0 85 58 132.5t175 47.5h145v49q0 66 -89 66q-79 0 -87 -52h-175q4 82 65.5 135.5t200.5 53.5q274 0 274 -209v-395h-180v73h-9q-42 -82 -163 -82zM344 879q42 0 71.5 21t29.5 56v49h-98q-93 2 -93 -61q0 -32 26 -48.5t64 -16.5z
" />
    <glyph glyph-name="guillemotleft" unicode="&#xab;" horiz-adv-x="1356" 
d="M623 565l344 404h260l-339 -403v-6l339 -405h-269l-335 402v8zM117 565l344 404h260l-339 -403v-6l339 -405h-269l-335 402v8z" />
    <glyph glyph-name="logicalnot" unicode="&#xac;" horiz-adv-x="1237" 
d="M1125 85h-244v341h-774v234h1018v-575z" />
    <glyph glyph-name="registered" unicode="&#xae;" horiz-adv-x="1211" 
d="M604 414q-219 0 -361.5 138t-142.5 348v71q0 130 65.5 237.5t181.5 170t257 62.5q140 0 256 -63t181.5 -171t65.5 -236v-71q0 -210 -142 -348t-361 -138zM604 524q169 0 280 108t111 269v68q0 151 -112 257t-279 106q-168 0 -279 -105.5t-111 -257.5v-68
q0 -161 110.5 -269t279.5 -108zM530 1088v-130h78q88 0 88 66q0 30 -21 47t-59 17h-86zM530 698h-120v483h241q77 0 124 -44.5t47 -112.5q0 -53 -27 -92t-68 -51l110 -183h-133l-95 169h-79v-169z" />
    <glyph glyph-name="macron" unicode="&#xaf;" horiz-adv-x="1000" 
d="M814 1239h-634v147h634v-147z" />
    <glyph glyph-name="degree" unicode="&#xb0;" horiz-adv-x="711" 
d="M356 787q-126 0 -212.5 87t-86.5 214t86 213.5t213 86.5q126 0 212 -86.5t86 -213.5t-86.5 -214t-211.5 -87zM357 955q55 0 93.5 39.5t38.5 93.5q0 55 -38.5 93.5t-93.5 38.5t-94.5 -38.5t-39.5 -93.5q0 -54 39.5 -93.5t94.5 -39.5z" />
    <glyph glyph-name="plusminus" unicode="&#xb1;" horiz-adv-x="1237" 
d="M737 640v-241h-243v241h-361v221h361v224h243v-224h365v-221h-365zM1104 57h-969v229h969v-229z" />
    <glyph glyph-name="twosuperior" unicode="&#xb2;" horiz-adv-x="699" 
d="M263 1147h-181v13q0 89 67 155.5t196 66.5q117 0 187.5 -56.5t70.5 -144.5q0 -37 -12.5 -71.5t-37 -65t-37 -43t-37.5 -34.5l-132 -111v-5h266v-153h-514v120l243 228q75 70 75 117q0 30 -22 49.5t-55 19.5q-35 0 -56 -21t-21 -50v-14z" />
    <glyph glyph-name="threesuperior" unicode="&#xb3;" horiz-adv-x="712" 
d="M270 969v140h75q39 0 61 19t22 48t-23 47t-60 18q-40 0 -61.5 -21t-23.5 -52h-175q4 99 72.5 156.5t192.5 57.5q117 0 186.5 -49.5t69.5 -130.5q0 -60 -38 -100t-90 -51v-7q65 -7 106.5 -46t41.5 -108q0 -99 -80 -152t-196 -53q-132 0 -201.5 63t-70.5 153h175
q1 -31 24.5 -51t65.5 -20q43 0 69.5 20t26.5 51q0 30 -24.5 49t-67.5 19h-77z" />
    <glyph glyph-name="acute" unicode="&#xb4;" horiz-adv-x="1000" 
d="M273 1233l237 352h248l-280 -352h-205z" />
    <glyph glyph-name="mu" unicode="&#xb5;" horiz-adv-x="1342" 
d="M154 -351v1416h281v-627q0 -99 47.5 -154.5t135.5 -55.5q93 0 149 60t56 150v627h281v-732q0 -67 18.5 -93t67.5 -26q24 0 50 6v-213q-56 -15 -129 -15q-100 0 -163 42t-79 124l-3 16h-15q-56 -190 -238 -190q-109 0 -163 72h-14v-407h-282z" />
    <glyph glyph-name="paragraph" unicode="&#xb6;" horiz-adv-x="1474" 
d="M873 -210h-266v640h-20q-64 0 -129.5 18t-127 56.5t-109 92.5t-76 132.5t-28.5 169.5q0 99 29 180t76 133t109.5 87.5t126.5 50.5t130 15h285v-1575zM1036 -210v1575h266v-1575h-266z" />
    <glyph glyph-name="periodcentered" unicode="&#xb7;" horiz-adv-x="661" 
d="M149 779q0 82 51.5 131.5t129.5 49.5q79 0 131 -50t52 -131t-52 -129.5t-131 -48.5q-77 0 -129 49t-52 129z" />
    <glyph glyph-name="cedilla" unicode="&#xb8;" horiz-adv-x="1000" 
d="M380 -236v108l51 133h162l-48 -120q88 0 140 -45t52 -124q0 -99 -66.5 -147.5t-181.5 -50.5q-84 -1 -146 16v128q47 -14 111 -14q109 0 109 58q0 34 -30 46t-98 12h-55z" />
    <glyph glyph-name="onesuperior" unicode="&#xb9;" horiz-adv-x="614" 
d="M460 698h-192v494h-9l-155 -106v166l164 113h192v-667z" />
    <glyph glyph-name="ordmasculine" unicode="&#xba;" horiz-adv-x="725" 
d="M363 1221q-56 0 -84 -39.5t-28 -101.5v-55q0 -62 27 -102t85 -40q57 0 83.5 40t26.5 102v55q0 62 -27.5 101.5t-82.5 39.5zM363 1362q136 0 216.5 -77t80.5 -206v-51q0 -136 -79.5 -211t-217.5 -75q-139 0 -218.5 75t-79.5 211v51q0 127 81 205t217 78z" />
    <glyph glyph-name="guillemotright" unicode="&#xbb;" horiz-adv-x="1356" 
d="M1239 565v-8l-335 -402h-269l339 405v6l-339 403h260zM733 565v-8l-335 -402h-269l339 405v6l-339 403h260z" />
    <glyph glyph-name="onequarter" unicode="&#xbc;" horiz-adv-x="1610" 
d="M1071 243h168v285h-8q-82 -131 -160 -283v-2zM1152 664h257v-421h81v-140h-81v-103h-170v103h-332v140q90 167 245 421zM477 698h-192v494h-9l-155 -106v166l164 113h192v-667zM367 -1h-209l558 720l494 646h209l-549 -706z" />
    <glyph glyph-name="onehalf" unicode="&#xbd;" horiz-adv-x="1642" 
d="M1170 442h-183v13q0 33 9.5 64t30 60.5t51 51t75.5 35t99 13.5q119 0 190 -57t71 -146q0 -20 -3.5 -38.5t-11.5 -36.5l-14 -31.5t-19.5 -29.5t-19.5 -24t-21.5 -23t-18.5 -17.5t-17 -15.5l-133 -112v-5h268v-154h-519v121l245 230q22 20 35.5 34.5t27 38.5t13.5 45
q0 30 -22.5 50t-55.5 20q-35 0 -56 -21.5t-21 -50.5v-14zM477 698h-192v494h-9l-155 -106v166l164 113h192v-667zM367 -1h-209l558 720l494 646h209l-549 -706z" />
    <glyph glyph-name="threequarters" unicode="&#xbe;" horiz-adv-x="1662" 
d="M1123 244h169v284h-9q-76 -122 -160 -282v-2zM1204 664h259v-420h79v-141h-79v-103h-171v103h-333v140q90 167 245 421zM314 958v141h76q19 0 35 5.5t26.5 14.5t16 21.5t5.5 26.5q0 29 -23 47t-60 18q-41 0 -62.5 -21t-23.5 -52h-176q3 100 72.5 157.5t194.5 57.5
q78 0 136.5 -22.5t90 -63.5t31.5 -95q0 -41 -19.5 -74t-48 -52t-61.5 -26v-7q65 -8 107 -47t42 -108q0 -51 -23 -91.5t-62.5 -65t-88.5 -37.5t-104 -13q-68 0 -122 18.5t-86 49.5t-49 69.5t-17 80.5h176q1 -32 24.5 -52t66.5 -20t69.5 20.5t26.5 51.5q0 30 -24.5 49
t-67.5 19h-78zM419 -1h-209l558 720l494 646h209l-549 -706z" />
    <glyph glyph-name="questiondown" unicode="&#xbf;" horiz-adv-x="1034" 
d="M726 939q0 -73 -50 -117.5t-132 -44.5q-84 0 -134.5 44.5t-50.5 117.5q0 71 50.5 115t134.5 44q82 0 132 -44t50 -115zM969 98q4 -107 -34 -189t-105 -129t-147.5 -70.5t-171.5 -23.5t-171 23.5t-142 68t-98 116.5t-36 163q0 62 16 112.5t49 90t61 63.5t74 55
q99 68 130.5 107t31.5 115v50h252l2 -53q15 -200 -176 -328q-44 -30 -65 -46t-45.5 -41t-34 -51t-9.5 -59q0 -77 51 -116.5t126 -39.5q87 0 134.5 50.5t48.5 131.5h259z" />
    <glyph glyph-name="Agrave" unicode="&#xc0;" horiz-adv-x="1324" 
d="M330 0h-291l452 1365h344l450 -1365h-308l-100 331h-445zM662 1086h-13l-160 -534h332zM777 1502h-195l-282 335h241z" />
    <glyph glyph-name="Aacute" unicode="&#xc1;" horiz-adv-x="1324" 
d="M330 0h-291l452 1365h344l450 -1365h-308l-100 331h-445zM662 1086h-13l-160 -534h332zM547 1502l236 335h241l-282 -335h-195z" />
    <glyph glyph-name="Acircumflex" unicode="&#xc2;" horiz-adv-x="1324" 
d="M330 0h-291l452 1365h344l450 -1365h-308l-100 331h-445zM662 1086h-13l-160 -534h332zM759 1737l262 -249h-223l-131 125h-10l-140 -125h-221l272 249h191z" />
    <glyph glyph-name="Atilde" unicode="&#xc3;" horiz-adv-x="1324" 
d="M330 0h-291l452 1365h344l450 -1365h-308l-100 331h-445zM662 1086h-13l-160 -534h332zM793 1459q-46 0 -85 17.5t-60.5 38t-47.5 38t-50 17.5q-34 0 -51.5 -29t-19.5 -67h-139q0 92 51 160.5t148 68.5q45 0 85.5 -17.5t64 -38t51.5 -38t52 -17.5q34 0 51.5 27t18.5 68
h139q0 -98 -57 -163t-151 -65z" />
    <glyph glyph-name="Adieresis" unicode="&#xc4;" horiz-adv-x="1324" 
d="M330 0h-291l452 1365h344l450 -1365h-308l-100 331h-445zM662 1086h-13l-160 -534h332zM856 1459q-56 0 -89.5 33t-33.5 87t33.5 87t89.5 33q58 0 92.5 -33t34.5 -87t-34.5 -87t-92.5 -33zM466 1459q-55 0 -89.5 33.5t-34.5 86.5q0 54 34 87t90 33q57 0 91 -33t34 -87
t-34 -87t-91 -33z" />
    <glyph glyph-name="Aring" unicode="&#xc5;" horiz-adv-x="1324" 
d="M330 0h-291l452 1365h344l450 -1365h-308l-100 331h-445zM662 1086h-13l-160 -534h332zM662 1465q-93 0 -156 60.5t-63 154.5q0 93 62.5 153t156.5 60t156.5 -60t62.5 -153q0 -94 -62.5 -154.5t-156.5 -60.5zM569 1679q0 -40 26.5 -66t66.5 -26t66 26t26 66q0 39 -26 65
t-66 26t-66.5 -26t-26.5 -65z" />
    <glyph glyph-name="AE" unicode="&#xc6;" horiz-adv-x="1952" 
d="M871 1123l-265 -576l332 1v575h-67zM938 318h-426l-161 -318h-318l657 1365h1135v-242h-601v-322h565v-225h-565v-333h601v-243h-887v318z" />
    <glyph glyph-name="Ccedilla" unicode="&#xc7;" horiz-adv-x="1338" 
d="M670 -482q-84 -1 -146 16v128q47 -14 111 -14q109 0 109 58q0 34 -30 46t-98 12h-55v108l41 107q-233 26 -361.5 188.5t-128.5 433.5v160q0 294 153.5 461.5t424.5 167.5q124 0 227 -38t171.5 -104t106.5 -154.5t38 -189.5v-32h-278q0 111 -70 188.5t-193 77.5
q-132 0 -208.5 -97.5t-76.5 -280.5v-160q0 -184 76 -278.5t211 -94.5q124 0 192.5 72.5t68.5 182.5h278v-33q0 -118 -53 -218t-161.5 -169t-255.5 -83l-37 -94q88 0 140 -45t52 -124q0 -99 -66.5 -147.5t-181.5 -50.5z" />
    <glyph glyph-name="Egrave" unicode="&#xc8;" horiz-adv-x="1185" 
d="M719 1502h-195l-282 335h241zM1058 243v-243h-891v1365h891v-243h-604v-321h568v-225h-568v-333h604z" />
    <glyph glyph-name="Eacute" unicode="&#xc9;" horiz-adv-x="1185" 
d="M489 1502l236 335h241l-282 -335h-195zM1058 243v-243h-891v1365h891v-243h-604v-321h568v-225h-568v-333h604z" />
    <glyph glyph-name="Ecircumflex" unicode="&#xca;" horiz-adv-x="1185" 
d="M701 1737l262 -249h-223l-131 125h-10l-140 -125h-221l272 249h191zM1058 243v-243h-891v1365h891v-243h-604v-321h568v-225h-568v-333h604z" />
    <glyph glyph-name="Edieresis" unicode="&#xcb;" horiz-adv-x="1185" 
d="M797 1459q-56 0 -89.5 33t-33.5 87t33.5 87t89.5 33q58 0 92.5 -33t34.5 -87t-34.5 -87t-92.5 -33zM407 1459q-55 0 -89.5 33.5t-34.5 86.5q0 54 34 87t90 33q57 0 91 -33t34 -87t-34 -87t-91 -33zM1058 243v-243h-891v1365h891v-243h-604v-321h568v-225h-568v-333h604z
" />
    <glyph glyph-name="Igrave" unicode="&#xcc;" horiz-adv-x="624" 
d="M457 0h-290v1365h290v-1365zM427 1502h-195l-282 335h241z" />
    <glyph glyph-name="Iacute" unicode="&#xcd;" horiz-adv-x="624" 
d="M457 0h-290v1365h290v-1365zM197 1502l236 335h241l-282 -335h-195z" />
    <glyph glyph-name="Icircumflex" unicode="&#xce;" horiz-adv-x="624" 
d="M457 0h-290v1365h290v-1365zM409 1737l262 -249h-223l-131 125h-10l-140 -125h-221l272 249h191z" />
    <glyph glyph-name="Idieresis" unicode="&#xcf;" horiz-adv-x="624" 
d="M457 0h-290v1365h290v-1365zM506 1459q-56 0 -89.5 33t-33.5 87t33.5 87t89.5 33q58 0 92.5 -33t34.5 -87t-34.5 -87t-92.5 -33zM116 1459q-55 0 -89.5 33.5t-34.5 86.5q0 54 34 87t90 33q57 0 91 -33t34 -87t-34 -87t-91 -33z" />
    <glyph glyph-name="Eth" unicode="&#xd0;" horiz-adv-x="1478" 
d="M768 0h-511v560h-165v263h165v542h511q307 0 459.5 -175.5t152.5 -502.5q0 -329 -153.5 -508t-458.5 -179zM546 249h179q184 0 270 103.5t86 333.5q0 231 -86.5 337t-269.5 106h-179v-306h235v-263h-235v-311z" />
    <glyph glyph-name="Ntilde" unicode="&#xd1;" horiz-adv-x="1437" 
d="M849 1459q-46 0 -85 17.5t-60.5 38t-47.5 38t-50 17.5q-34 0 -51.5 -29t-19.5 -67h-139q0 92 51 160.5t148 68.5q45 0 85.5 -17.5t64 -38t51.5 -38t52 -17.5q34 0 51.5 27t18.5 68h139q0 -98 -57 -163t-151 -65zM439 0h-272v1365h237l582 -854h12v854h272v-1365h-236
l-583 861h-12v-861z" />
    <glyph glyph-name="Ograve" unicode="&#xd2;" horiz-adv-x="1409" 
d="M819 1502h-195l-282 335h241zM1002 767q0 182 -81 278.5t-216 96.5q-136 0 -217 -96.5t-81 -278.5v-170q0 -182 81 -278t217 -96q135 0 216 96.5t81 277.5v170zM1297 598q0 -290 -157 -457t-435 -167t-435.5 167t-157.5 457v166q0 292 157.5 459t435.5 167t435 -167.5
t157 -458.5v-166z" />
    <glyph glyph-name="Oacute" unicode="&#xd3;" horiz-adv-x="1409" 
d="M589 1502l236 335h241l-282 -335h-195zM1002 767q0 182 -81 278.5t-216 96.5q-136 0 -217 -96.5t-81 -278.5v-170q0 -182 81 -278t217 -96q135 0 216 96.5t81 277.5v170zM1297 598q0 -290 -157 -457t-435 -167t-435.5 167t-157.5 457v166q0 292 157.5 459t435.5 167
t435 -167.5t157 -458.5v-166z" />
    <glyph glyph-name="Ocircumflex" unicode="&#xd4;" horiz-adv-x="1409" 
d="M801 1737l262 -249h-223l-131 125h-10l-140 -125h-221l272 249h191zM1002 767q0 182 -81 278.5t-216 96.5q-136 0 -217 -96.5t-81 -278.5v-170q0 -182 81 -278t217 -96q135 0 216 96.5t81 277.5v170zM1297 598q0 -290 -157 -457t-435 -167t-435.5 167t-157.5 457v166
q0 292 157.5 459t435.5 167t435 -167.5t157 -458.5v-166z" />
    <glyph glyph-name="Otilde" unicode="&#xd5;" horiz-adv-x="1409" 
d="M1002 767q0 182 -81 278.5t-216 96.5q-136 0 -217 -96.5t-81 -278.5v-170q0 -182 81 -278t217 -96q135 0 216 96.5t81 277.5v170zM1297 598q0 -290 -157 -457t-435 -167t-435.5 167t-157.5 457v166q0 292 157.5 459t435.5 167t435 -167.5t157 -458.5v-166zM835 1459
q-46 0 -85 17.5t-60.5 38t-47.5 38t-50 17.5q-34 0 -51.5 -29t-19.5 -67h-139q0 92 51 160.5t148 68.5q45 0 85.5 -17.5t64 -38t51.5 -38t52 -17.5q34 0 51.5 27t18.5 68h139q0 -98 -57 -163t-151 -65z" />
    <glyph glyph-name="Odieresis" unicode="&#xd6;" horiz-adv-x="1409" 
d="M898 1459q-56 0 -89.5 33t-33.5 87t33.5 87t89.5 33q58 0 92.5 -33t34.5 -87t-34.5 -87t-92.5 -33zM508 1459q-55 0 -89.5 33.5t-34.5 86.5q0 54 34 87t90 33q57 0 91 -33t34 -87t-34 -87t-91 -33zM1002 767q0 182 -81 278.5t-216 96.5q-136 0 -217 -96.5t-81 -278.5
v-170q0 -182 81 -278t217 -96q135 0 216 96.5t81 277.5v170zM1297 598q0 -290 -157 -457t-435 -167t-435.5 167t-157.5 457v166q0 292 157.5 459t435.5 167t435 -167.5t157 -458.5v-166z" />
    <glyph glyph-name="multiply" unicode="&#xd7;" horiz-adv-x="1237" 
d="M921 58l-302 302l-303 -302l-172 181l302 302l-302 301l172 181l303 -302l302 302l172 -181l-302 -301l302 -302z" />
    <glyph glyph-name="Oslash" unicode="&#xd8;" horiz-adv-x="1409" 
d="M703 -26q-229 0 -376 116l-99 -121l-126 105l111 136q-101 153 -101 385v166q0 292 158 460.5t435 168.5q226 0 372 -114l88 107l130 -98l-105 -127q107 -159 107 -397v-166q0 -289 -158 -455t-436 -166zM399 591q0 -73 18 -121l494 595q-80 83 -208 83
q-138 0 -221 -99.5t-83 -283.5v-174zM703 214q139 0 222 96.5t83 280.5v174q0 78 -21 132l-497 -598q79 -85 213 -85z" />
    <glyph glyph-name="Ugrave" unicode="&#xd9;" horiz-adv-x="1419" 
d="M825 1502h-195l-282 335h241zM710 229q123 0 195.5 71.5t72.5 203.5v861h290v-893q0 -226 -151.5 -362t-406.5 -136t-406.5 136t-151.5 362v893h289v-861q0 -133 72.5 -204t196.5 -71z" />
    <glyph glyph-name="Uacute" unicode="&#xda;" horiz-adv-x="1419" 
d="M595 1502l236 335h241l-282 -335h-195zM710 229q123 0 195.5 71.5t72.5 203.5v861h290v-893q0 -226 -151.5 -362t-406.5 -136t-406.5 136t-151.5 362v893h289v-861q0 -133 72.5 -204t196.5 -71z" />
    <glyph glyph-name="Ucircumflex" unicode="&#xdb;" horiz-adv-x="1419" 
d="M807 1737l262 -249h-223l-131 125h-10l-140 -125h-221l272 249h191zM710 229q123 0 195.5 71.5t72.5 203.5v861h290v-893q0 -226 -151.5 -362t-406.5 -136t-406.5 136t-151.5 362v893h289v-861q0 -133 72.5 -204t196.5 -71z" />
    <glyph glyph-name="Udieresis" unicode="&#xdc;" horiz-adv-x="1419" 
d="M903 1459q-56 0 -89.5 33t-33.5 87t33.5 87t89.5 33q58 0 92.5 -33t34.5 -87t-34.5 -87t-92.5 -33zM513 1459q-55 0 -89.5 33.5t-34.5 86.5q0 54 34 87t90 33q57 0 91 -33t34 -87t-34 -87t-91 -33zM710 229q123 0 195.5 71.5t72.5 203.5v861h290v-893q0 -226 -151.5 -362
t-406.5 -136t-406.5 136t-151.5 362v893h289v-861q0 -133 72.5 -204t196.5 -71z" />
    <glyph glyph-name="Yacute" unicode="&#xdd;" horiz-adv-x="1218" 
d="M754 0h-290v496l-457 869h319l281 -570h12l281 570h311l-457 -862v-503zM493 1502l236 335h241l-282 -335h-195z" />
    <glyph glyph-name="Thorn" unicode="&#xde;" horiz-adv-x="1257" 
d="M886 698q0 105 -60 158.5t-173 53.5h-198v-423h198q113 0 173 53.5t60 157.5zM1180 698q0 -197 -122.5 -319.5t-347.5 -122.5h-254v-256h-289v1365h289v-220h257q223 0 345 -125.5t122 -321.5z" />
    <glyph glyph-name="germandbls" unicode="&#xdf;" horiz-adv-x="1375" 
d="M445 0h-283v1048q0 80 25.5 146t70 112.5t107 78.5t135.5 47t156 15q222 1 356.5 -101t133.5 -262q0 -68 -22 -127t-57 -97.5t-75.5 -62.5t-80.5 -31v-16q68 -1 131.5 -24.5t115.5 -67t83.5 -113.5t31.5 -156q0 -80 -26 -147.5t-71.5 -114.5t-108 -79.5t-134.5 -48
t-152 -15.5q-110 0 -180 18v230q53 -20 134 -20q110 0 180 48.5t70 144.5t-78 147t-203 51h-79v240h47q79 0 139 53t60 135q0 80 -55 131t-154 51q-217 0 -217 -226v-987z" />
    <glyph glyph-name="agrave" unicode="&#xe0;" horiz-adv-x="1157" 
d="M449 -16q-157 0 -253.5 87.5t-96.5 237.5q0 147 99 233t280 86h256v92q0 70 -44.5 106.5t-122.5 36.5q-143 0 -164 -110h-265q4 68 30 125t76.5 103.5t134 73t193.5 26.5q95 0 172 -20t138.5 -62t95.5 -115.5t34 -172.5v-711h-265v133h-13q-34 -65 -105 -107t-180 -42z
M543 194q79 0 135 45t56 114v107h-191q-81 0 -123 -35.5t-42 -94.5q0 -65 48 -100.5t117 -35.5zM705 1233h-205l-280 352h248z" />
    <glyph glyph-name="aacute" unicode="&#xe1;" horiz-adv-x="1157" 
d="M449 -16q-157 0 -253.5 87.5t-96.5 237.5q0 147 99 233t280 86h256v92q0 70 -44.5 106.5t-122.5 36.5q-143 0 -164 -110h-265q4 68 30 125t76.5 103.5t134 73t193.5 26.5q95 0 172 -20t138.5 -62t95.5 -115.5t34 -172.5v-711h-265v133h-13q-34 -65 -105 -107t-180 -42z
M543 194q79 0 135 45t56 114v107h-191q-81 0 -123 -35.5t-42 -94.5q0 -65 48 -100.5t117 -35.5zM460 1233l237 352h248l-280 -352h-205z" />
    <glyph glyph-name="acircumflex" unicode="&#xe2;" horiz-adv-x="1157" 
d="M449 -16q-157 0 -253.5 87.5t-96.5 237.5q0 147 99 233t280 86h256v92q0 70 -44.5 106.5t-122.5 36.5q-143 0 -164 -110h-265q4 68 30 125t76.5 103.5t134 73t193.5 26.5q95 0 172 -20t138.5 -62t95.5 -115.5t34 -172.5v-711h-265v133h-13q-34 -65 -105 -107t-180 -42z
M543 194q79 0 135 45t56 114v107h-191q-81 0 -123 -35.5t-42 -94.5q0 -65 48 -100.5t117 -35.5zM227 1224l251 350h201l250 -350h-216l-129 206h-11l-129 -206h-217z" />
    <glyph glyph-name="atilde" unicode="&#xe3;" horiz-adv-x="1157" 
d="M449 -16q-157 0 -253.5 87.5t-96.5 237.5q0 147 99 233t280 86h256v92q0 70 -44.5 106.5t-122.5 36.5q-143 0 -164 -110h-265q4 68 30 125t76.5 103.5t134 73t193.5 26.5q95 0 172 -20t138.5 -62t95.5 -115.5t34 -172.5v-711h-265v133h-13q-34 -65 -105 -107t-180 -42z
M543 194q79 0 135 45t56 114v107h-191q-81 0 -123 -35.5t-42 -94.5q0 -65 48 -100.5t117 -35.5zM708 1222q-36 0 -66 13t-50.5 31t-38.5 36t-38 31t-41 13q-66 0 -72 -110h-151q0 119 53 197t156 78q47 0 85.5 -19.5t59.5 -42.5t46.5 -42.5t48.5 -19.5q62 0 66 111h151
q0 -117 -55.5 -196.5t-153.5 -79.5z" />
    <glyph glyph-name="adieresis" unicode="&#xe4;" horiz-adv-x="1157" 
d="M449 -16q-157 0 -253.5 87.5t-96.5 237.5q0 147 99 233t280 86h256v92q0 70 -44.5 106.5t-122.5 36.5q-143 0 -164 -110h-265q4 68 30 125t76.5 103.5t134 73t193.5 26.5q95 0 172 -20t138.5 -62t95.5 -115.5t34 -172.5v-711h-265v133h-13q-34 -65 -105 -107t-180 -42z
M543 194q79 0 135 45t56 114v107h-191q-81 0 -123 -35.5t-42 -94.5q0 -65 48 -100.5t117 -35.5zM780 1210q-57 0 -93 35t-36 90q0 57 36 92t93 35q61 0 97.5 -35t36.5 -92q0 -56 -37 -90.5t-97 -34.5zM374 1210q-58 0 -94.5 34.5t-36.5 90.5q0 57 36 92t95 35t95.5 -35
t36.5 -92q0 -56 -36.5 -90.5t-95.5 -34.5z" />
    <glyph glyph-name="aring" unicode="&#xe5;" horiz-adv-x="1157" 
d="M449 -16q-157 0 -253.5 87.5t-96.5 237.5q0 147 99 233t280 86h256v92q0 70 -44.5 106.5t-122.5 36.5q-143 0 -164 -110h-265q4 68 30 125t76.5 103.5t134 73t193.5 26.5q95 0 172 -20t138.5 -62t95.5 -115.5t34 -172.5v-711h-265v133h-13q-34 -65 -105 -107t-180 -42z
M543 194q79 0 135 45t56 114v107h-191q-81 0 -123 -35.5t-42 -94.5q0 -65 48 -100.5t117 -35.5zM578 1216q-93 0 -156 60.5t-63 154.5q0 93 62.5 153t156.5 60t156.5 -60t62.5 -153q0 -94 -62.5 -154.5t-156.5 -60.5zM485 1430q0 -40 26.5 -66t66.5 -26t66 26t26 66
q0 39 -26 65t-66 26t-66.5 -26t-26.5 -65z" />
    <glyph glyph-name="ae" unicode="&#xe6;" horiz-adv-x="1803" 
d="M1244 -19q-150 0 -249 52t-143 141h-16q-47 -82 -140 -137.5t-225 -55.5q-172 0 -273 87t-101 240q0 148 100.5 234t283.5 86h254v92q0 70 -44.5 106t-122.5 36q-74 0 -116 -29.5t-51 -79.5h-265q4 67 31 125t77.5 104.5t135 73.5t194.5 27q105 0 193.5 -34.5
t134.5 -91.5h16q45 58 129 92t183 34q212 0 341.5 -133t129.5 -360v-120h-673v-63q0 -92 60.5 -148.5t154.5 -56.5q77 0 127 32.5t58 82.5h264q-4 -56 -31.5 -112t-78.5 -107.5t-139 -84t-199 -32.5zM1232 870q-88 0 -146 -59.5t-58 -152.5v-18h401v13q0 99 -53 158t-144 59
zM544 193q79 0 135 45t56 114v108h-189q-81 0 -126.5 -36t-45.5 -94q0 -65 50 -101t120 -36z" />
    <glyph glyph-name="ccedilla" unicode="&#xe7;" horiz-adv-x="1125" 
d="M575 -482q-87 -1 -146 16v128q47 -14 111 -14q109 0 109 58q0 34 -30.5 46t-98.5 12h-55v108l44 114q-189 21 -297 149.5t-108 342.5v118q0 221 129 354.5t351 133.5q205 0 323.5 -110t121.5 -278h-258q-6 64 -50.5 112t-128.5 48q-97 0 -151 -71t-54 -192v-113
q0 -127 54.5 -197t150.5 -70q162 0 183 148h258q-3 -158 -98.5 -256t-263.5 -118l-40 -102q88 0 140 -45t52 -124q0 -98 -66.5 -147t-181.5 -51z" />
    <glyph glyph-name="egrave" unicode="&#xe8;" horiz-adv-x="1158" 
d="M706 1233h-205l-280 352h248zM596 -19q-227 0 -359.5 128.5t-132.5 367.5v113q0 119 37 214t102.5 155.5t151.5 92.5t187 32q213 0 344 -133.5t131 -360.5v-120h-677v-50q0 -98 59 -158t156 -60q77 0 129.5 32.5t60.5 82.5h263q-3 -44 -20.5 -88.5t-53.5 -89.5t-86.5 -80
t-126.5 -56.5t-165 -21.5zM380 640h406v9q0 99 -55.5 159.5t-146.5 60.5q-92 0 -148 -60.5t-56 -159.5v-9z" />
    <glyph glyph-name="eacute" unicode="&#xe9;" horiz-adv-x="1158" 
d="M461 1233l237 352h248l-280 -352h-205zM596 -19q-227 0 -359.5 128.5t-132.5 367.5v113q0 119 37 214t102.5 155.5t151.5 92.5t187 32q213 0 344 -133.5t131 -360.5v-120h-677v-50q0 -98 59 -158t156 -60q77 0 129.5 32.5t60.5 82.5h263q-3 -44 -20.5 -88.5t-53.5 -89.5
t-86.5 -80t-126.5 -56.5t-165 -21.5zM380 640h406v9q0 99 -55.5 159.5t-146.5 60.5q-92 0 -148 -60.5t-56 -159.5v-9z" />
    <glyph glyph-name="ecircumflex" unicode="&#xea;" horiz-adv-x="1158" 
d="M228 1224l251 350h201l250 -350h-216l-129 206h-11l-129 -206h-217zM596 -19q-227 0 -359.5 128.5t-132.5 367.5v113q0 119 37 214t102.5 155.5t151.5 92.5t187 32q213 0 344 -133.5t131 -360.5v-120h-677v-50q0 -98 59 -158t156 -60q77 0 129.5 32.5t60.5 82.5h263
q-3 -44 -20.5 -88.5t-53.5 -89.5t-86.5 -80t-126.5 -56.5t-165 -21.5zM380 640h406v9q0 99 -55.5 159.5t-146.5 60.5q-92 0 -148 -60.5t-56 -159.5v-9z" />
    <glyph glyph-name="edieresis" unicode="&#xeb;" horiz-adv-x="1158" 
d="M596 -19q-227 0 -359.5 128.5t-132.5 367.5v113q0 119 37 214t102.5 155.5t151.5 92.5t187 32q213 0 344 -133.5t131 -360.5v-120h-677v-50q0 -98 59 -158t156 -60q77 0 129.5 32.5t60.5 82.5h263q-3 -44 -20.5 -88.5t-53.5 -89.5t-86.5 -80t-126.5 -56.5t-165 -21.5z
M380 640h406v9q0 99 -55.5 159.5t-146.5 60.5q-92 0 -148 -60.5t-56 -159.5v-9zM781 1210q-57 0 -93 35t-36 90q0 57 36 92t93 35q61 0 97.5 -35t36.5 -92q0 -56 -37 -90.5t-97 -34.5zM375 1210q-58 0 -94.5 34.5t-36.5 90.5q0 57 36 92t95 35t95.5 -35t36.5 -92
q0 -56 -36.5 -90.5t-95.5 -34.5z" />
    <glyph glyph-name="igrave" unicode="&#xec;" horiz-adv-x="622" 
d="M438 1233h-205l-280 352h248zM171 0v1065h281v-1065h-281z" />
    <glyph glyph-name="iacute" unicode="&#xed;" horiz-adv-x="622" 
d="M193 1233l237 352h248l-280 -352h-205zM171 0v1065h281v-1065h-281z" />
    <glyph glyph-name="icircumflex" unicode="&#xee;" horiz-adv-x="622" 
d="M-40 1224l251 350h201l250 -350h-216l-129 206h-11l-129 -206h-217zM171 0v1065h281v-1065h-281z" />
    <glyph glyph-name="idieresis" unicode="&#xef;" horiz-adv-x="622" 
d="M171 0v1065h281v-1065h-281zM513 1210q-57 0 -93 35t-36 90q0 57 36 92t93 35q61 0 97.5 -35t36.5 -92q0 -56 -37 -90.5t-97 -34.5zM107 1210q-58 0 -94.5 34.5t-36.5 90.5q0 57 36 92t95 35t95.5 -35t36.5 -92q0 -56 -36.5 -90.5t-95.5 -34.5z" />
    <glyph glyph-name="eth" unicode="&#xf0;" horiz-adv-x="1193" 
d="M597 -19q-234 0 -363.5 136t-129.5 375v39q0 227 111.5 365.5t308.5 138.5q159 0 232 -94h14q-7 23 -20 55q-46 114 -131 216l-259 -102l-57 135l210 81q-111 113 -232 210h329q66 -45 135 -113l255 98l55 -133l-199 -75q233 -296 233 -701v-108q0 -242 -127 -382.5
t-365 -140.5zM598 814q-101 0 -158 -69.5t-57 -201.5v-58q0 -133 57 -203.5t158 -70.5t158 71.5t57 204.5v55q0 133 -57 202.5t-158 69.5z" />
    <glyph glyph-name="ntilde" unicode="&#xf1;" horiz-adv-x="1256" 
d="M758 1222q-36 0 -66 13t-50.5 31t-38.5 36t-38 31t-41 13q-66 0 -72 -110h-151q0 119 53 197t156 78q47 0 85.5 -19.5t59.5 -42.5t46.5 -42.5t48.5 -19.5q62 0 66 111h151q0 -117 -55.5 -196.5t-153.5 -79.5zM152 0v1065h274v-186h14q11 35 32.5 67t57.5 64t94.5 51.5
t131.5 19.5q164 0 258.5 -95t94.5 -278v-708h-281v628q0 109 -50 158.5t-133 49.5q-99 0 -155.5 -66.5t-56.5 -180.5v-589h-281z" />
    <glyph glyph-name="ograve" unicode="&#xf2;" horiz-adv-x="1193" 
d="M724 1233h-205l-280 352h248zM598 1084q223 0 357 -134.5t134 -361.5v-104q0 -238 -133 -370.5t-358 -132.5q-228 0 -361 131.5t-133 370.5v104q0 224 135.5 360.5t358.5 136.5zM598 861q-101 0 -155 -79t-54 -197v-104q0 -118 52.5 -197.5t156.5 -79.5q103 0 155 79
t52 198v104q0 119 -53 197.5t-154 78.5z" />
    <glyph glyph-name="oacute" unicode="&#xf3;" horiz-adv-x="1193" 
d="M479 1233l237 352h248l-280 -352h-205zM598 1084q223 0 357 -134.5t134 -361.5v-104q0 -238 -133 -370.5t-358 -132.5q-228 0 -361 131.5t-133 370.5v104q0 224 135.5 360.5t358.5 136.5zM598 861q-101 0 -155 -79t-54 -197v-104q0 -118 52.5 -197.5t156.5 -79.5
q103 0 155 79t52 198v104q0 119 -53 197.5t-154 78.5z" />
    <glyph glyph-name="ocircumflex" unicode="&#xf4;" horiz-adv-x="1193" 
d="M246 1224l251 350h201l250 -350h-216l-129 206h-11l-129 -206h-217zM598 1084q223 0 357 -134.5t134 -361.5v-104q0 -238 -133 -370.5t-358 -132.5q-228 0 -361 131.5t-133 370.5v104q0 224 135.5 360.5t358.5 136.5zM598 861q-101 0 -155 -79t-54 -197v-104
q0 -118 52.5 -197.5t156.5 -79.5q103 0 155 79t52 198v104q0 119 -53 197.5t-154 78.5z" />
    <glyph glyph-name="otilde" unicode="&#xf5;" horiz-adv-x="1193" 
d="M727 1222q-36 0 -66 13t-50.5 31t-38.5 36t-38 31t-41 13q-66 0 -72 -110h-151q0 119 53 197t156 78q47 0 85.5 -19.5t59.5 -42.5t46.5 -42.5t48.5 -19.5q62 0 66 111h151q0 -117 -55.5 -196.5t-153.5 -79.5zM598 1084q223 0 357 -134.5t134 -361.5v-104
q0 -238 -133 -370.5t-358 -132.5q-228 0 -361 131.5t-133 370.5v104q0 224 135.5 360.5t358.5 136.5zM598 861q-101 0 -155 -79t-54 -197v-104q0 -118 52.5 -197.5t156.5 -79.5q103 0 155 79t52 198v104q0 119 -53 197.5t-154 78.5z" />
    <glyph glyph-name="odieresis" unicode="&#xf6;" horiz-adv-x="1193" 
d="M799 1210q-57 0 -93 35t-36 90q0 57 36 92t93 35q61 0 97.5 -35t36.5 -92q0 -56 -37 -90.5t-97 -34.5zM393 1210q-58 0 -94.5 34.5t-36.5 90.5q0 57 36 92t95 35t95.5 -35t36.5 -92q0 -56 -36.5 -90.5t-95.5 -34.5zM598 1084q223 0 357 -134.5t134 -361.5v-104
q0 -238 -133 -370.5t-358 -132.5q-228 0 -361 131.5t-133 370.5v104q0 224 135.5 360.5t358.5 136.5zM598 861q-101 0 -155 -79t-54 -197v-104q0 -118 52.5 -197.5t156.5 -79.5q103 0 155 79t52 198v104q0 119 -53 197.5t-154 78.5z" />
    <glyph glyph-name="divide" unicode="&#xf7;" horiz-adv-x="1237" 
d="M1103 472h-968v214h968v-214zM457 994q0 70 46 114.5t114 44.5q70 0 116.5 -44.5t46.5 -114.5t-46.5 -114t-116.5 -44q-68 0 -114 44t-46 114zM457 165q0 71 46 115.5t115 44.5t116 -45t47 -115q0 -69 -47 -113t-116 -44q-68 0 -114.5 44t-46.5 113z" />
    <glyph glyph-name="oslash" unicode="&#xf8;" horiz-adv-x="1193" 
d="M451 264q55 -65 146 -65q55 0 97 23t67.5 63t38 90t12.5 107v119q0 46 -18 82zM381 469q0 -52 18 -88l343 424q-53 66 -145 66q-104 0 -160 -81t-56 -202v-119zM598 -19q-176 0 -297 83l-105 -126l-106 91l110 133q-96 129 -96 321v104q0 224 135.5 360.5t358.5 136.5
q168 0 291 -84l102 122l111 -93l-108 -132q95 -126 95 -309v-104q0 -238 -133 -370.5t-358 -132.5z" />
    <glyph glyph-name="ugrave" unicode="&#xf9;" horiz-adv-x="1253" 
d="M753 1233h-205l-280 352h248zM1101 1065v-1065h-274v178h-15q-11 -34 -35 -66t-61 -62t-93 -48t-123 -18q-165 0 -259.5 91t-94.5 275v715h281v-639q0 -109 52 -153.5t132 -44.5q88 0 148.5 57.5t60.5 150.5v629h281z" />
    <glyph glyph-name="uacute" unicode="&#xfa;" horiz-adv-x="1253" 
d="M508 1233l237 352h248l-280 -352h-205zM1101 1065v-1065h-274v178h-15q-11 -34 -35 -66t-61 -62t-93 -48t-123 -18q-165 0 -259.5 91t-94.5 275v715h281v-639q0 -109 52 -153.5t132 -44.5q88 0 148.5 57.5t60.5 150.5v629h281z" />
    <glyph glyph-name="ucircumflex" unicode="&#xfb;" horiz-adv-x="1253" 
d="M275 1224l251 350h201l250 -350h-216l-129 206h-11l-129 -206h-217zM1101 1065v-1065h-274v178h-15q-11 -34 -35 -66t-61 -62t-93 -48t-123 -18q-165 0 -259.5 91t-94.5 275v715h281v-639q0 -109 52 -153.5t132 -44.5q88 0 148.5 57.5t60.5 150.5v629h281z" />
    <glyph glyph-name="udieresis" unicode="&#xfc;" horiz-adv-x="1253" 
d="M1101 1065v-1065h-274v178h-15q-11 -34 -35 -66t-61 -62t-93 -48t-123 -18q-165 0 -259.5 91t-94.5 275v715h281v-639q0 -109 52 -153.5t132 -44.5q88 0 148.5 57.5t60.5 150.5v629h281zM828 1210q-57 0 -93 35t-36 90q0 57 36 92t93 35q61 0 97.5 -35t36.5 -92
q0 -56 -37 -90.5t-97 -34.5zM422 1210q-58 0 -94.5 34.5t-36.5 90.5q0 57 36 92t95 35t95.5 -35t36.5 -92q0 -56 -36.5 -90.5t-95.5 -34.5z" />
    <glyph glyph-name="yacute" unicode="&#xfd;" horiz-adv-x="1151" 
d="M1099 1065q-339 -1011 -343 -1024l-27 -72q-30 -82 -64 -139.5t-86.5 -107t-129 -74t-177.5 -24.5q-85 0 -152 12v207q31 -7 88 -7q94 0 136.5 33.5t54.5 101.5l9 31l-363 1063h310l214 -820h12l219 820h299zM457 1233l237 352h248l-280 -352h-205z" />
    <glyph glyph-name="thorn" unicode="&#xfe;" horiz-adv-x="1254" 
d="M750 -13q-109 0 -187.5 46.5t-113.5 130.5h-14v-515h-282v1806h282v-559h14q32 86 112.5 134t191.5 48q185 0 289.5 -127t104.5 -353v-130q0 -226 -105.5 -353.5t-291.5 -127.5zM649 217q99 0 154 71.5t55 200.5v85q0 130 -55 201.5t-156 71.5q-99 0 -155.5 -69.5
t-56.5 -190.5v-120q0 -113 58.5 -181.5t155.5 -68.5z" />
    <glyph glyph-name="ydieresis" unicode="&#xff;" horiz-adv-x="1151" 
d="M1099 1065q-339 -1011 -343 -1024l-27 -72q-30 -82 -64 -139.5t-86.5 -107t-129 -74t-177.5 -24.5q-85 0 -152 12v207q31 -7 88 -7q94 0 136.5 33.5t54.5 101.5l9 31l-363 1063h310l214 -820h12l219 820h299zM777 1210q-57 0 -93 35t-36 90q0 57 36 92t93 35
q61 0 97.5 -35t36.5 -92q0 -56 -37 -90.5t-97 -34.5zM371 1210q-58 0 -94.5 34.5t-36.5 90.5q0 57 36 92t95 35t95.5 -35t36.5 -92q0 -56 -36.5 -90.5t-95.5 -34.5z" />
    <glyph glyph-name="Amacron" unicode="&#x100;" horiz-adv-x="1324" 
d="M330 0h-291l452 1365h344l450 -1365h-308l-100 331h-445zM662 1086h-13l-160 -534h332zM977 1497h-630v140h630v-140z" />
    <glyph glyph-name="amacron" unicode="&#x101;" horiz-adv-x="1157" 
d="M449 -16q-157 0 -253.5 87.5t-96.5 237.5q0 147 99 233t280 86h256v92q0 70 -44.5 106.5t-122.5 36.5q-143 0 -164 -110h-265q4 68 30 125t76.5 103.5t134 73t193.5 26.5q95 0 172 -20t138.5 -62t95.5 -115.5t34 -172.5v-711h-265v133h-13q-34 -65 -105 -107t-180 -42z
M543 194q79 0 135 45t56 114v107h-191q-81 0 -123 -35.5t-42 -94.5q0 -65 48 -100.5t117 -35.5zM895 1239h-634v147h634v-147z" />
    <glyph glyph-name="Abreve" unicode="&#x102;" horiz-adv-x="1324" 
d="M330 0h-291l452 1365h344l450 -1365h-308l-100 331h-445zM662 1086h-13l-160 -534h332zM321 1766h165q0 -69 44.5 -108.5t131.5 -39.5t131.5 39.5t44.5 108.5h162q0 -136 -89 -217t-249 -81q-161 0 -251 81.5t-90 216.5z" />
    <glyph glyph-name="abreve" unicode="&#x103;" horiz-adv-x="1157" 
d="M449 -16q-157 0 -253.5 87.5t-96.5 237.5q0 147 99 233t280 86h256v92q0 70 -44.5 106.5t-122.5 36.5q-143 0 -164 -110h-265q4 68 30 125t76.5 103.5t134 73t193.5 26.5q95 0 172 -20t138.5 -62t95.5 -115.5t34 -172.5v-711h-265v133h-13q-34 -65 -105 -107t-180 -42z
M543 194q79 0 135 45t56 114v107h-191q-81 0 -123 -35.5t-42 -94.5q0 -65 48 -100.5t117 -35.5zM256 1535h163q0 -69 40.5 -116.5t118.5 -47.5t119 47.5t41 116.5h160q0 -133 -84.5 -225.5t-235.5 -92.5t-237 92.5t-85 225.5z" />
    <glyph glyph-name="Aogonek" unicode="&#x104;" horiz-adv-x="1324" 
d="M1165 -390q-113 0 -183 53t-70 148q0 127 116 199v10h-59l-92 311h-445l-102 -331h-291l452 1365h344l437 -1322q-78 -32 -118.5 -76.5t-40.5 -90.5q0 -41 31 -67.5t88 -26.5q41 0 76 7v-158q-19 -8 -63 -14.5t-80 -6.5zM662 1086h-13l-160 -534h332z" />
    <glyph glyph-name="aogonek" unicode="&#x105;" horiz-adv-x="1157" 
d="M1024 -368q-66 -22 -142 -22q-104 0 -175.5 52t-71.5 153q0 120 125 202v116h-16q-34 -65 -106.5 -107t-183.5 -42q-157 0 -256 88t-99 238q0 146 99 232t280 86h256v92q0 70 -44.5 106t-123.5 36q-142 0 -163 -109h-265q4 69 30.5 126.5t77.5 103.5t135 72t193 26
q94 0 170.5 -20t138 -62t95.5 -115t34 -172v-670q-42 -15 -78 -35t-67 -56t-31 -76q0 -43 32.5 -67t82.5 -24q41 0 73 8v-160zM542 193q80 0 136 46t56 114v107h-190q-81 0 -123.5 -35.5t-42.5 -94.5q0 -65 48 -101t116 -36z" />
    <glyph glyph-name="Cacute" unicode="&#x106;" horiz-adv-x="1338" 
d="M565 1502l236 335h241l-282 -335h-195zM407 760v-160q0 -180 74.5 -276.5t212.5 -96.5q119 0 190 71.5t71 183.5h278v-33q0 -210 -153 -342.5t-388 -132.5q-277 0 -428.5 166.5t-151.5 460.5v160q0 293 152.5 461t427.5 168q236 0 388.5 -135.5t152.5 -350.5v-32h-278
q0 116 -71.5 191t-189.5 75q-136 0 -211.5 -99t-75.5 -279z" />
    <glyph glyph-name="cacute" unicode="&#x107;" horiz-adv-x="1125" 
d="M104 478v118q0 223 130 355.5t350 132.5q204 0 323 -109.5t122 -278.5h-258q-6 64 -50.5 111t-128.5 47q-98 0 -151.5 -70t-53.5 -191v-113q0 -127 54 -198t151 -71q163 0 183 150h258q-4 -171 -120.5 -275.5t-329.5 -104.5q-223 0 -351 132.5t-128 364.5zM444 1233
l237 352h248l-280 -352h-205z" />
    <glyph glyph-name="Ccircumflex" unicode="&#x108;" horiz-adv-x="1338" 
d="M407 760v-160q0 -180 74.5 -276.5t212.5 -96.5q119 0 190 71.5t71 183.5h278v-33q0 -210 -153 -342.5t-388 -132.5q-277 0 -428.5 166.5t-151.5 460.5v160q0 293 152.5 461t427.5 168q236 0 388.5 -135.5t152.5 -350.5v-32h-278q0 116 -71.5 191t-189.5 75
q-136 0 -211.5 -99t-75.5 -279zM777 1737l262 -249h-223l-131 125h-10l-140 -125h-221l272 249h191z" />
    <glyph glyph-name="ccircumflex" unicode="&#x109;" horiz-adv-x="1125" 
d="M211 1224l251 350h201l250 -350h-216l-129 206h-11l-129 -206h-217zM104 478v118q0 223 130 355.5t350 132.5q204 0 323 -109.5t122 -278.5h-258q-6 64 -50.5 111t-128.5 47q-98 0 -151.5 -70t-53.5 -191v-113q0 -127 54 -198t151 -71q163 0 183 150h258
q-4 -171 -120.5 -275.5t-329.5 -104.5q-223 0 -351 132.5t-128 364.5z" />
    <glyph glyph-name="Cdotaccent" unicode="&#x10a;" horiz-adv-x="1338" 
d="M547 1624q0 58 38.5 97.5t93.5 39.5q56 0 95 -39.5t39 -97.5q0 -56 -39 -95.5t-95 -39.5q-55 0 -93.5 39.5t-38.5 95.5zM407 760v-160q0 -180 74.5 -276.5t212.5 -96.5q119 0 190 71.5t71 183.5h278v-33q0 -210 -153 -342.5t-388 -132.5q-277 0 -428.5 166.5
t-151.5 460.5v160q0 293 152.5 461t427.5 168q236 0 388.5 -135.5t152.5 -350.5v-32h-278q0 116 -71.5 191t-189.5 75q-136 0 -211.5 -99t-75.5 -279z" />
    <glyph glyph-name="cdotaccent" unicode="&#x10b;" horiz-adv-x="1125" 
d="M104 478v118q0 223 130 355.5t350 132.5q204 0 323 -109.5t122 -278.5h-258q-6 64 -50.5 111t-128.5 47q-98 0 -151.5 -70t-53.5 -191v-113q0 -127 54 -198t151 -71q163 0 183 150h258q-4 -171 -120.5 -275.5t-329.5 -104.5q-223 0 -351 132.5t-128 364.5zM429 1392
q0 58 38.5 97.5t93.5 39.5q56 0 95 -39.5t39 -97.5q0 -57 -39 -96t-95 -39q-55 0 -93.5 39t-38.5 96z" />
    <glyph glyph-name="Ccaron" unicode="&#x10c;" horiz-adv-x="1338" 
d="M407 760v-160q0 -180 74.5 -276.5t212.5 -96.5q119 0 190 71.5t71 183.5h278v-33q0 -210 -153 -342.5t-388 -132.5q-277 0 -428.5 166.5t-151.5 460.5v160q0 293 152.5 461t427.5 168q236 0 388.5 -135.5t152.5 -350.5v-32h-278q0 116 -71.5 191t-189.5 75
q-136 0 -211.5 -99t-75.5 -279zM313 1725h227l134 -116h15l124 116h229l-240 -230h-235z" />
    <glyph glyph-name="ccaron" unicode="&#x10d;" horiz-adv-x="1125" 
d="M211 1572h214l133 -210h10l121 210h219l-241 -349h-203zM104 478v118q0 223 130 355.5t350 132.5q204 0 323 -109.5t122 -278.5h-258q-6 64 -50.5 111t-128.5 47q-98 0 -151.5 -70t-53.5 -191v-113q0 -127 54 -198t151 -71q163 0 183 150h258q-4 -171 -120.5 -275.5
t-329.5 -104.5q-223 0 -351 132.5t-128 364.5z" />
    <glyph glyph-name="Dcaron" unicode="&#x10e;" horiz-adv-x="1388" 
d="M270 1725h227l134 -116h15l124 116h229l-240 -230h-235zM167 1365h511q307 0 459.5 -175.5t152.5 -502.5q0 -329 -153.5 -508t-458.5 -179h-511v1365zM457 1123v-880h179q184 0 270.5 108t86.5 329q0 222 -87 332.5t-270 110.5h-179z" />
    <glyph glyph-name="dcaron" unicode="&#x10f;" horiz-adv-x="1500" 
d="M1279 1435h225l-47 -488h-178v488zM504 1078q111 0 192 -47.5t111 -128.5h13v553h282v-1455h-278v170h-13q-26 -81 -111 -131.5t-199 -50.5q-182 0 -288.5 126t-106.5 348v142q0 222 107.5 348t290.5 126zM603 847q-96 0 -152 -69.5t-56 -197.5v-94q0 -128 56.5 -198
t154.5 -70t156 68.5t58 191.5v120q0 115 -60.5 182t-156.5 67z" />
    <glyph glyph-name="Dcroat" unicode="&#x110;" horiz-adv-x="1478" 
d="M768 0h-511v560h-165v263h165v542h511q307 0 459.5 -175.5t152.5 -502.5q0 -329 -153.5 -508t-458.5 -179zM546 249h179q184 0 270 103.5t86 333.5q0 231 -86.5 337t-269.5 106h-179v-306h235v-263h-235v-311z" />
    <glyph glyph-name="dcroat" unicode="&#x111;" horiz-adv-x="1258" 
d="M604 846q-96 0 -152 -69.5t-56 -197.5v-93q0 -129 57 -199t154 -70t155.5 68.5t58.5 191.5v120q0 115 -60.5 182t-156.5 67zM811 170q-25 -78 -107 -130t-202 -52q-181 0 -288 125.5t-107 348.5v142q0 222 107 348t290 126q117 0 196 -49t107 -127h14v260h-225v163h236
v130h261v-130h128v-163h-118v-1162h-278v170h-14z" />
    <glyph glyph-name="Emacron" unicode="&#x112;" horiz-adv-x="1185" 
d="M1058 243v-243h-891v1365h891v-243h-604v-321h568v-225h-568v-333h604zM919 1497h-630v140h630v-140z" />
    <glyph glyph-name="emacron" unicode="&#x113;" horiz-adv-x="1158" 
d="M596 -19q-227 0 -359.5 128.5t-132.5 367.5v113q0 119 37 214t102.5 155.5t151.5 92.5t187 32q213 0 344 -133.5t131 -360.5v-120h-677v-50q0 -98 59 -158t156 -60q77 0 129.5 32.5t60.5 82.5h263q-3 -44 -20.5 -88.5t-53.5 -89.5t-86.5 -80t-126.5 -56.5t-165 -21.5z
M380 640h406v9q0 99 -55.5 159.5t-146.5 60.5q-92 0 -148 -60.5t-56 -159.5v-9zM896 1239h-634v147h634v-147z" />
    <glyph glyph-name="Ebreve" unicode="&#x114;" horiz-adv-x="1185" 
d="M1058 243v-243h-891v1365h891v-243h-604v-321h568v-225h-568v-333h604zM263 1766h165q0 -69 44.5 -108.5t131.5 -39.5t131.5 39.5t44.5 108.5h162q0 -136 -89 -217t-249 -81q-161 0 -251 81.5t-90 216.5z" />
    <glyph glyph-name="ebreve" unicode="&#x115;" horiz-adv-x="1158" 
d="M596 -19q-227 0 -359.5 128.5t-132.5 367.5v113q0 119 37 214t102.5 155.5t151.5 92.5t187 32q213 0 344 -133.5t131 -360.5v-120h-677v-50q0 -98 59 -158t156 -60q77 0 129.5 32.5t60.5 82.5h263q-3 -44 -20.5 -88.5t-53.5 -89.5t-86.5 -80t-126.5 -56.5t-165 -21.5z
M380 640h406v9q0 99 -55.5 159.5t-146.5 60.5q-92 0 -148 -60.5t-56 -159.5v-9zM257 1535h163q0 -69 40.5 -116.5t118.5 -47.5t119 47.5t41 116.5h160q0 -133 -84.5 -225.5t-235.5 -92.5t-237 92.5t-85 225.5z" />
    <glyph glyph-name="Edotaccent" unicode="&#x116;" horiz-adv-x="1185" 
d="M471 1624q0 58 38.5 97.5t93.5 39.5q56 0 95 -39.5t39 -97.5q0 -56 -39 -95.5t-95 -39.5q-55 0 -93.5 39.5t-38.5 95.5zM1058 243v-243h-891v1365h891v-243h-604v-321h568v-225h-568v-333h604z" />
    <glyph glyph-name="edotaccent" unicode="&#x117;" horiz-adv-x="1158" 
d="M446 1392q0 58 38.5 97.5t93.5 39.5q56 0 95 -39.5t39 -97.5q0 -57 -39 -96t-95 -39q-55 0 -93.5 39t-38.5 96zM596 -19q-227 0 -359.5 128.5t-132.5 367.5v113q0 119 37 214t102.5 155.5t151.5 92.5t187 32q213 0 344 -133.5t131 -360.5v-120h-677v-50q0 -98 59 -158
t156 -60q77 0 129.5 32.5t60.5 82.5h263q-3 -44 -20.5 -88.5t-53.5 -89.5t-86.5 -80t-126.5 -56.5t-165 -21.5zM380 640h406v9q0 99 -55.5 159.5t-146.5 60.5q-92 0 -148 -60.5t-56 -159.5v-9z" />
    <glyph glyph-name="Eogonek" unicode="&#x118;" horiz-adv-x="1185" 
d="M1059 -369q-65 -21 -142 -21q-106 0 -176.5 51t-70.5 149q0 108 92 180v10h-595v1365h891v-243h-604v-321h568v-225h-568v-333h604v-195q-74 -16 -131.5 -60.5t-58.5 -109.5q0 -45 33 -70.5t86 -25.5q42 0 72 7v-158z" />
    <glyph glyph-name="eogonek" unicode="&#x119;" horiz-adv-x="1158" 
d="M991 -208v-161q-60 -21 -141 -21q-113 0 -182 53.5t-69 145.5q0 110 98 191l-7 13q-54 -27 -141 -27q-93 0 -173 31.5t-141 92t-96 155t-35 212.5v112q0 158 64.5 272t171 169t242.5 55q213 0 344 -134t131 -362v-119h-677v-49q0 -99 59 -159t159 -60q74 0 126.5 32.5
t60.5 82.5h261q-7 -53 -30.5 -101t-45 -75t-58.5 -66q-68 -71 -86 -99q-28 -44 -28 -89q0 -50 34 -76t86 -26q40 0 73 7zM380 640h406v9q0 99 -55.5 160t-146.5 61q-92 0 -148 -60.5t-56 -160.5v-9z" />
    <glyph glyph-name="Ecaron" unicode="&#x11a;" horiz-adv-x="1185" 
d="M237 1725h227l134 -116h15l124 116h229l-240 -230h-235zM1058 243v-243h-891v1365h891v-243h-604v-321h568v-225h-568v-333h604z" />
    <glyph glyph-name="ecaron" unicode="&#x11b;" horiz-adv-x="1158" 
d="M228 1572h214l133 -210h10l121 210h219l-241 -349h-203zM596 -19q-227 0 -359.5 128.5t-132.5 367.5v113q0 119 37 214t102.5 155.5t151.5 92.5t187 32q213 0 344 -133.5t131 -360.5v-120h-677v-50q0 -98 59 -158t156 -60q77 0 129.5 32.5t60.5 82.5h263
q-3 -44 -20.5 -88.5t-53.5 -89.5t-86.5 -80t-126.5 -56.5t-165 -21.5zM380 640h406v9q0 99 -55.5 159.5t-146.5 60.5q-92 0 -148 -60.5t-56 -159.5v-9z" />
    <glyph glyph-name="Gcircumflex" unicode="&#x11c;" horiz-adv-x="1363" 
d="M788 1737l262 -249h-223l-131 125h-10l-140 -125h-221l272 249h191zM1249 921h-282q-12 97 -83 158t-185 61q-141 0 -218 -97.5t-77 -274.5v-164q0 -174 75.5 -277t227.5 -103q129 0 199 65.5t70 164.5v72h-267v217h542v-268q0 -102 -34 -191t-99.5 -159t-172 -110.5
t-242.5 -40.5q-147 0 -261 47t-185.5 132t-108 198.5t-36.5 251.5v168q0 280 156.5 449.5t434.5 169.5q125 0 228.5 -38t170.5 -103t105 -149t42 -179z" />
    <glyph glyph-name="gcircumflex" unicode="&#x11d;" horiz-adv-x="1234" 
d="M266 1224l251 350h201l250 -350h-216l-129 206h-11l-129 -206h-217zM591 -182q110 0 165 56t55 161v152h-14q-31 -74 -109.5 -120.5t-187.5 -46.5q-179 0 -289 126.5t-110 353.5v97q0 228 109.5 354.5t289.5 126.5q112 0 193 -50.5t109 -127.5h13v165h277v-1052
q0 -89 -28.5 -159.5t-75.5 -116t-113.5 -76t-138.5 -43t-153 -12.5q-114 0 -202.5 25.5t-142.5 70.5t-83 100.5t-32 120.5h271q11 -49 63.5 -77t133.5 -28zM605 847q-99 0 -157 -71t-58 -197v-77q0 -125 59.5 -196.5t156.5 -71.5q95 0 150 69.5t55 182.5v107q0 114 -56 184
t-150 70z" />
    <glyph glyph-name="Gbreve" unicode="&#x11e;" horiz-adv-x="1363" 
d="M1249 921h-282q-12 97 -83 158t-185 61q-141 0 -218 -97.5t-77 -274.5v-164q0 -174 75.5 -277t227.5 -103q129 0 199 65.5t70 164.5v72h-267v217h542v-268q0 -102 -34 -191t-99.5 -159t-172 -110.5t-242.5 -40.5q-147 0 -261 47t-185.5 132t-108 198.5t-36.5 251.5v168
q0 280 156.5 449.5t434.5 169.5q125 0 228.5 -38t170.5 -103t105 -149t42 -179zM350 1766h165q0 -69 44.5 -108.5t131.5 -39.5t131.5 39.5t44.5 108.5h162q0 -136 -89 -217t-249 -81q-161 0 -251 81.5t-90 216.5z" />
    <glyph glyph-name="gbreve" unicode="&#x11f;" horiz-adv-x="1234" 
d="M295 1535h163q0 -69 40.5 -116.5t118.5 -47.5t119 47.5t41 116.5h160q0 -133 -84.5 -225.5t-235.5 -92.5t-237 92.5t-85 225.5zM591 -182q110 0 165 56t55 161v152h-14q-31 -74 -109.5 -120.5t-187.5 -46.5q-179 0 -289 126.5t-110 353.5v97q0 228 109.5 354.5
t289.5 126.5q112 0 193 -50.5t109 -127.5h13v165h277v-1052q0 -89 -28.5 -159.5t-75.5 -116t-113.5 -76t-138.5 -43t-153 -12.5q-114 0 -202.5 25.5t-142.5 70.5t-83 100.5t-32 120.5h271q11 -49 63.5 -77t133.5 -28zM605 847q-99 0 -157 -71t-58 -197v-77
q0 -125 59.5 -196.5t156.5 -71.5q95 0 150 69.5t55 182.5v107q0 114 -56 184t-150 70z" />
    <glyph glyph-name="Gdotaccent" unicode="&#x120;" horiz-adv-x="1363" 
d="M558 1624q0 58 38.5 97.5t93.5 39.5q56 0 95 -39.5t39 -97.5q0 -56 -39 -95.5t-95 -39.5q-55 0 -93.5 39.5t-38.5 95.5zM1249 921h-282q-12 97 -83 158t-185 61q-141 0 -218 -97.5t-77 -274.5v-164q0 -174 75.5 -277t227.5 -103q129 0 199 65.5t70 164.5v72h-267v217h542
v-268q0 -102 -34 -191t-99.5 -159t-172 -110.5t-242.5 -40.5q-147 0 -261 47t-185.5 132t-108 198.5t-36.5 251.5v168q0 280 156.5 449.5t434.5 169.5q125 0 228.5 -38t170.5 -103t105 -149t42 -179z" />
    <glyph glyph-name="gdotaccent" unicode="&#x121;" horiz-adv-x="1234" 
d="M484 1392q0 58 38.5 97.5t93.5 39.5q56 0 95 -39.5t39 -97.5q0 -57 -39 -96t-95 -39q-55 0 -93.5 39t-38.5 96zM591 -182q110 0 165 56t55 161v152h-14q-31 -74 -109.5 -120.5t-187.5 -46.5q-179 0 -289 126.5t-110 353.5v97q0 228 109.5 354.5t289.5 126.5
q112 0 193 -50.5t109 -127.5h13v165h277v-1052q0 -89 -28.5 -159.5t-75.5 -116t-113.5 -76t-138.5 -43t-153 -12.5q-114 0 -202.5 25.5t-142.5 70.5t-83 100.5t-32 120.5h271q11 -49 63.5 -77t133.5 -28zM605 847q-99 0 -157 -71t-58 -197v-77q0 -125 59.5 -196.5
t156.5 -71.5q95 0 150 69.5t55 182.5v107q0 114 -56 184t-150 70z" />
    <glyph glyph-name="Gcommaaccent" unicode="&#x122;" horiz-adv-x="1363" 
d="M696 -479h-185l83 324h212zM1249 921h-282q-12 97 -83 158t-185 61q-141 0 -218 -97.5t-77 -274.5v-164q0 -174 75.5 -277t227.5 -103q129 0 199 65.5t70 164.5v72h-267v217h542v-268q0 -102 -34 -191t-99.5 -159t-172 -110.5t-242.5 -40.5q-147 0 -261 47t-185.5 132
t-108 198.5t-36.5 251.5v168q0 280 156.5 449.5t434.5 169.5q125 0 228.5 -38t170.5 -103t105 -149t42 -179z" />
    <glyph glyph-name="gcommaaccent" unicode="&#x123;" horiz-adv-x="1234" 
d="M589 1594h188l-85 -335h-217zM591 -182q110 0 165 56t55 161v152h-14q-31 -74 -109.5 -120.5t-187.5 -46.5q-179 0 -289 126.5t-110 353.5v97q0 228 109.5 354.5t289.5 126.5q112 0 193 -50.5t109 -127.5h13v165h277v-1052q0 -89 -28.5 -159.5t-75.5 -116t-113.5 -76
t-138.5 -43t-153 -12.5q-114 0 -202.5 25.5t-142.5 70.5t-83 100.5t-32 120.5h271q11 -49 63.5 -77t133.5 -28zM605 847q-99 0 -157 -71t-58 -197v-77q0 -125 59.5 -196.5t156.5 -71.5q95 0 150 69.5t55 182.5v107q0 114 -56 184t-150 70z" />
    <glyph glyph-name="Hcircumflex" unicode="&#x124;" horiz-adv-x="1464" 
d="M1297 0h-290v571h-550v-571h-290v1365h290v-546h550v546h290v-1365zM829 1737l262 -249h-223l-131 125h-10l-140 -125h-221l272 249h191z" />
    <glyph glyph-name="hcircumflex" unicode="&#x125;" horiz-adv-x="1262" 
d="M156 0v1455h281v-576h14q10 33 31.5 65t57.5 64.5t95 52.5t131 20q161 0 256.5 -96t95.5 -278v-707h-281v628q0 108 -52 158t-136 50q-96 0 -154 -67t-58 -180v-589h-281zM393 1827l262 -249h-223l-131 125h-10l-140 -125h-221l272 249h191z" />
    <glyph glyph-name="Hbar" unicode="&#x126;" horiz-adv-x="1464" 
d="M457 805h550v189h-550v-189zM457 557v-557h-290v994h-91v182h91v189h290v-189h550v189h290v-189h92v-182h-92v-994h-290v557h-550z" />
    <glyph glyph-name="hbar" unicode="&#x127;" horiz-adv-x="1262" 
d="M437 589v-589h-281v1162h-112v163h123v130h261v-130h235v-163h-226v-283h14q24 81 106.5 141.5t208.5 60.5q162 0 257 -97.5t95 -276.5v-707h-281v628q0 99 -50 153.5t-138 54.5q-99 0 -155.5 -69t-56.5 -178z" />
    <glyph glyph-name="Itilde" unicode="&#x128;" horiz-adv-x="624" 
d="M457 0h-290v1365h290v-1365zM443 1459q-46 0 -85 17.5t-60.5 38t-47.5 38t-50 17.5q-34 0 -51.5 -29t-19.5 -67h-139q0 92 51 160.5t148 68.5q45 0 85.5 -17.5t64 -38t51.5 -38t52 -17.5q34 0 51.5 27t18.5 68h139q0 -98 -57 -163t-151 -65z" />
    <glyph glyph-name="itilde" unicode="&#x129;" horiz-adv-x="622" 
d="M171 0v1065h281v-1065h-281zM441 1222q-36 0 -66 13t-50.5 31t-38.5 36t-38 31t-41 13q-66 0 -72 -110h-151q0 119 53 197t156 78q47 0 85.5 -19.5t59.5 -42.5t46.5 -42.5t48.5 -19.5q62 0 66 111h151q0 -117 -55.5 -196.5t-153.5 -79.5z" />
    <glyph glyph-name="Imacron" unicode="&#x12a;" horiz-adv-x="624" 
d="M457 0h-290v1365h290v-1365zM627 1497h-630v140h630v-140z" />
    <glyph glyph-name="imacron" unicode="&#x12b;" horiz-adv-x="622" 
d="M171 0v1065h281v-1065h-281zM628 1239h-634v147h634v-147z" />
    <glyph glyph-name="Ibreve" unicode="&#x12c;" horiz-adv-x="624" 
d="M457 0h-290v1365h290v-1365zM-29 1766h165q0 -69 44.5 -108.5t131.5 -39.5t131.5 39.5t44.5 108.5h162q0 -136 -89 -217t-249 -81q-161 0 -251 81.5t-90 216.5z" />
    <glyph glyph-name="ibreve" unicode="&#x12d;" horiz-adv-x="622" 
d="M171 0v1065h281v-1065h-281zM-10 1535h163q0 -69 40.5 -116.5t118.5 -47.5t119 47.5t41 116.5h160q0 -133 -84.5 -225.5t-235.5 -92.5t-237 92.5t-85 225.5z" />
    <glyph glyph-name="Iogonek" unicode="&#x12e;" horiz-adv-x="623" 
d="M479 -366q-18 -9 -60.5 -17t-85.5 -8q-119 0 -182.5 57.5t-63.5 148.5q0 63 33 112.5t87 79.5v9h-40v1349h290v-1319q-167 -67 -167 -171q0 -45 31 -70t83 -25q44 0 75 9v-155z" />
    <glyph glyph-name="iogonek" unicode="&#x12f;" horiz-adv-x="622" 
d="M464 -211v-161q-52 -18 -140 -18q-129 0 -203 54t-74 154q0 124 124 198v1049h281v-1006q-45 -17 -84 -39t-72 -60.5t-33 -81.5q0 -46 33.5 -71t88.5 -25q49 0 79 7zM138 1374q0 68 47 111t125 43q79 0 127 -43t48 -111t-47.5 -110.5t-127.5 -42.5q-78 0 -125 42.5
t-47 110.5z" />
    <glyph glyph-name="Idotaccent" unicode="&#x130;" horiz-adv-x="624" 
d="M457 0h-290v1365h290v-1365zM179 1624q0 58 38.5 97.5t93.5 39.5q56 0 95 -39.5t39 -97.5q0 -56 -39 -95.5t-95 -39.5q-55 0 -93.5 39.5t-38.5 95.5z" />
    <glyph glyph-name="dotlessi" unicode="&#x131;" horiz-adv-x="622" 
d="M171 0v1065h281v-1065h-281z" />
    <glyph glyph-name="Jcircumflex" unicode="&#x134;" horiz-adv-x="1135" 
d="M52 415h278q2 -79 50 -126.5t125 -47.5q183 0 183 203v921h290v-917q0 -230 -124 -352t-346 -122q-112 0 -200.5 36t-143.5 97.5t-83.5 140t-28.5 167.5zM930 1737l262 -249h-223l-131 125h-10l-140 -125h-221l272 249h191z" />
    <glyph glyph-name="jcircumflex" unicode="&#x135;" horiz-adv-x="622" 
d="M451 1065v-1075q0 -178 -96.5 -265t-265.5 -87q-68 0 -112 7v207q28 -4 57 -4q70 0 103.5 34t33.5 111v1072h280zM-36 1224l251 350h201l250 -350h-216l-129 206h-11l-129 -206h-217z" />
    <glyph glyph-name="Kcommaaccent" unicode="&#x136;" horiz-adv-x="1325" 
d="M1286 1365l-483 -590l503 -775h-346l-369 574l-134 -150v-424h-290v1365h290v-595h13l501 595h315zM667 -479h-185l83 324h212z" />
    <glyph glyph-name="kcommaaccent" unicode="&#x137;" horiz-adv-x="1172" 
d="M435 363v-363h-281v1455h281v-822h13l339 432h316l-381 -459l408 -606h-328l-295 441zM605 -479h-185l83 324h212z" />
    <glyph glyph-name="Lacute" unicode="&#x139;" horiz-adv-x="1077" 
d="M197 1502l236 335h241l-282 -335h-195zM1026 254v-254h-859v1365h290v-1111h569z" />
    <glyph glyph-name="lacute" unicode="&#x13a;" horiz-adv-x="602" 
d="M186 1592l236 335h241l-282 -335h-195zM160 0v1455h282v-1455h-282z" />
    <glyph glyph-name="Lcommaaccent" unicode="&#x13b;" horiz-adv-x="1077" 
d="M551 -479h-185l83 324h212zM1026 254v-254h-859v1365h290v-1111h569z" />
    <glyph glyph-name="lcommaaccent" unicode="&#x13c;" horiz-adv-x="602" 
d="M306 -479h-185l83 324h212zM160 0v1455h282v-1455h-282z" />
    <glyph glyph-name="Lcaron" unicode="&#x13d;" horiz-adv-x="1077" 
d="M660 1436h229l-50 -488h-179v488zM1026 254v-254h-859v1365h290v-1111h569z" />
    <glyph glyph-name="lcaron" unicode="&#x13e;" horiz-adv-x="811" 
d="M596 1435h224l-47 -488h-177v488zM160 0v1455h282v-1455h-282z" />
    <glyph glyph-name="Lslash" unicode="&#x141;" horiz-adv-x="1104" 
d="M1053 0h-859v506l-119 -67v251l119 67v608h289v-439l309 173v-253l-309 -172v-420h570v-254z" />
    <glyph glyph-name="lslash" unicode="&#x142;" horiz-adv-x="700" 
d="M492 0h-282v548l-139 -83v237l139 86v667h282v-495l137 86v-252l-137 -83v-711z" />
    <glyph glyph-name="Nacute" unicode="&#x143;" horiz-adv-x="1437" 
d="M603 1502l236 335h241l-282 -335h-195zM439 0h-272v1365h237l582 -854h12v854h272v-1365h-236l-583 861h-12v-861z" />
    <glyph glyph-name="nacute" unicode="&#x144;" horiz-adv-x="1256" 
d="M510 1233l237 352h248l-280 -352h-205zM152 0v1065h274v-186h14q11 35 32.5 67t57.5 64t94.5 51.5t131.5 19.5q164 0 258.5 -95t94.5 -278v-708h-281v628q0 109 -50 158.5t-133 49.5q-99 0 -155.5 -66.5t-56.5 -180.5v-589h-281z" />
    <glyph glyph-name="Ncommaaccent" unicode="&#x145;" horiz-adv-x="1437" 
d="M723 -479h-185l83 324h212zM439 0h-272v1365h237l582 -854h12v854h272v-1365h-236l-583 861h-12v-861z" />
    <glyph glyph-name="ncommaaccent" unicode="&#x146;" horiz-adv-x="1256" 
d="M633 -479h-185l83 324h212zM152 0v1065h274v-186h14q11 35 32.5 67t57.5 64t94.5 51.5t131.5 19.5q164 0 258.5 -95t94.5 -278v-708h-281v628q0 109 -50 158.5t-133 49.5q-99 0 -155.5 -66.5t-56.5 -180.5v-589h-281z" />
    <glyph glyph-name="Ncaron" unicode="&#x147;" horiz-adv-x="1437" 
d="M351 1725h227l134 -116h15l124 116h229l-240 -230h-235zM439 0h-272v1365h237l582 -854h12v854h272v-1365h-236l-583 861h-12v-861z" />
    <glyph glyph-name="ncaron" unicode="&#x148;" horiz-adv-x="1256" 
d="M277 1572h214l133 -210h10l121 210h219l-241 -349h-203zM152 0v1065h274v-186h14q11 35 32.5 67t57.5 64t94.5 51.5t131.5 19.5q164 0 258.5 -95t94.5 -278v-708h-281v628q0 109 -50 158.5t-133 49.5q-99 0 -155.5 -66.5t-56.5 -180.5v-589h-281z" />
    <glyph glyph-name="Omacron" unicode="&#x14c;" horiz-adv-x="1409" 
d="M1002 767q0 182 -81 278.5t-216 96.5q-136 0 -217 -96.5t-81 -278.5v-170q0 -182 81 -278t217 -96q135 0 216 96.5t81 277.5v170zM1297 598q0 -290 -157 -457t-435 -167t-435.5 167t-157.5 457v166q0 292 157.5 459t435.5 167t435 -167.5t157 -458.5v-166zM1019 1497
h-630v140h630v-140z" />
    <glyph glyph-name="omacron" unicode="&#x14d;" horiz-adv-x="1193" 
d="M914 1239h-634v147h634v-147zM598 1084q223 0 357 -134.5t134 -361.5v-104q0 -238 -133 -370.5t-358 -132.5q-228 0 -361 131.5t-133 370.5v104q0 224 135.5 360.5t358.5 136.5zM598 861q-101 0 -155 -79t-54 -197v-104q0 -118 52.5 -197.5t156.5 -79.5q103 0 155 79
t52 198v104q0 119 -53 197.5t-154 78.5z" />
    <glyph glyph-name="Obreve" unicode="&#x14e;" horiz-adv-x="1409" 
d="M1002 767q0 182 -81 278.5t-216 96.5q-136 0 -217 -96.5t-81 -278.5v-170q0 -182 81 -278t217 -96q135 0 216 96.5t81 277.5v170zM1297 598q0 -290 -157 -457t-435 -167t-435.5 167t-157.5 457v166q0 292 157.5 459t435.5 167t435 -167.5t157 -458.5v-166zM363 1766h165
q0 -69 44.5 -108.5t131.5 -39.5t131.5 39.5t44.5 108.5h162q0 -136 -89 -217t-249 -81q-161 0 -251 81.5t-90 216.5z" />
    <glyph glyph-name="obreve" unicode="&#x14f;" horiz-adv-x="1193" 
d="M275 1535h163q0 -69 40.5 -116.5t118.5 -47.5t119 47.5t41 116.5h160q0 -133 -84.5 -225.5t-235.5 -92.5t-237 92.5t-85 225.5zM598 1084q223 0 357 -134.5t134 -361.5v-104q0 -238 -133 -370.5t-358 -132.5q-228 0 -361 131.5t-133 370.5v104q0 224 135.5 360.5
t358.5 136.5zM598 861q-101 0 -155 -79t-54 -197v-104q0 -118 52.5 -197.5t156.5 -79.5q103 0 155 79t52 198v104q0 119 -53 197.5t-154 78.5z" />
    <glyph glyph-name="Ohungarumlaut" unicode="&#x150;" horiz-adv-x="1409" 
d="M390 1502l266 296h237l-313 -296h-190zM778 1502l266 296h236l-312 -296h-190zM1002 767q0 182 -81 278.5t-216 96.5q-136 0 -217 -96.5t-81 -278.5v-170q0 -182 81 -278t217 -96q135 0 216 96.5t81 277.5v170zM1297 598q0 -290 -157 -457t-435 -167t-435.5 167
t-157.5 457v166q0 292 157.5 459t435.5 167t435 -167.5t157 -458.5v-166z" />
    <glyph glyph-name="ohungarumlaut" unicode="&#x151;" horiz-adv-x="1193" 
d="M470 1237h-176l247 358h224zM839 1237h-176l247 358h224zM598 1084q223 0 357 -134.5t134 -361.5v-104q0 -238 -133 -370.5t-358 -132.5q-228 0 -361 131.5t-133 370.5v104q0 224 135.5 360.5t358.5 136.5zM598 861q-101 0 -155 -79t-54 -197v-104q0 -118 52.5 -197.5
t156.5 -79.5q103 0 155 79t52 198v104q0 119 -53 197.5t-154 78.5z" />
    <glyph glyph-name="OE" unicode="&#x152;" horiz-adv-x="2018" 
d="M417 764v-172q0 -177 79 -274t219 -97q143 0 221.5 95t78.5 270v188q0 175 -79 271.5t-221 96.5q-139 0 -218.5 -100t-79.5 -278zM661 -26q-256 0 -402.5 169.5t-146.5 453.5v163q0 298 150 464t401 166q126 0 220.5 -43.5t144.5 -123.5h17v142h846v-243h-599v-321h563
v-225h-563v-333h599v-243h-846v145h-17q-51 -79 -146 -125t-221 -46z" />
    <glyph glyph-name="oe" unicode="&#x153;" horiz-adv-x="1869" 
d="M1306 -19q-112 0 -205 39t-142 103h-17q-51 -64 -144.5 -103t-199.5 -39q-228 0 -361 131.5t-133 370.5v104q0 224 135.5 360.5t358.5 136.5q108 0 200.5 -39t142.5 -109h17q48 67 138 107.5t196 40.5q213 0 344 -133.5t131 -360.5v-120h-678v-49q0 -98 59 -158.5
t156 -60.5q77 0 129.5 32.5t60.5 82.5h264q-4 -56 -32.5 -112t-80 -107.5t-140.5 -84t-199 -32.5zM597 861q-101 0 -155 -78.5t-54 -197.5v-104q0 -75 21 -136t69.5 -101t118.5 -40q103 0 155 79.5t52 197.5v104q0 120 -53 198t-154 78zM1089 640h406v9q0 99 -55 160
t-146 61q-92 0 -148.5 -61t-56.5 -160v-9z" />
    <glyph glyph-name="Racute" unicode="&#x154;" horiz-adv-x="1322" 
d="M526 1502l236 335h241l-282 -335h-195zM723 1365q230 0 358 -119t128 -321q0 -144 -73.5 -245t-173.5 -139l274 -541h-322l-237 497h-225v-497h-285v1365h556zM452 717h225q109 0 171.5 52t62.5 152q0 102 -63 157.5t-167 55.5h-229v-417z" />
    <glyph glyph-name="racute" unicode="&#x155;" horiz-adv-x="863" 
d="M338 1233l237 352h248l-280 -352h-205zM161 0v1065h282v-168h14q8 30 27 60t49.5 58.5t79 46.5t106.5 18q54 0 88 -8v-252q-32 12 -108 12q-124 0 -186.5 -64.5t-62.5 -175.5v-592h-289z" />
    <glyph glyph-name="Rcommaaccent" unicode="&#x156;" horiz-adv-x="1322" 
d="M723 1365q230 0 358 -119t128 -321q0 -144 -73.5 -245t-173.5 -139l274 -541h-322l-237 497h-225v-497h-285v1365h556zM452 717h225q109 0 171.5 52t62.5 152q0 102 -63 157.5t-167 55.5h-229v-417zM646 -479h-185l83 324h212z" />
    <glyph glyph-name="rcommaaccent" unicode="&#x157;" horiz-adv-x="863" 
d="M161 0v1065h282v-168h14q8 30 27 60t49.5 58.5t79 46.5t106.5 18q54 0 88 -8v-252q-32 12 -108 12q-124 0 -186.5 -64.5t-62.5 -175.5v-592h-289zM314 -479h-185l83 324h212z" />
    <glyph glyph-name="Rcaron" unicode="&#x158;" horiz-adv-x="1322" 
d="M723 1365q230 0 358 -119t128 -321q0 -144 -73.5 -245t-173.5 -139l274 -541h-322l-237 497h-225v-497h-285v1365h556zM452 717h225q109 0 171.5 52t62.5 152q0 102 -63 157.5t-167 55.5h-229v-417zM274 1725h227l134 -116h15l124 116h229l-240 -230h-235z" />
    <glyph glyph-name="rcaron" unicode="&#x159;" horiz-adv-x="863" 
d="M105 1572h214l133 -210h10l121 210h219l-241 -349h-203zM161 0v1065h282v-168h14q8 30 27 60t49.5 58.5t79 46.5t106.5 18q54 0 88 -8v-252q-32 12 -108 12q-124 0 -186.5 -64.5t-62.5 -175.5v-592h-289z" />
    <glyph glyph-name="Sacute" unicode="&#x15a;" horiz-adv-x="1269" 
d="M518 1502l236 335h241l-282 -335h-195zM85 394h278q7 -80 80 -132.5t192 -52.5t183 47t64 124q0 65 -50 102.5t-158 61.5l-205 45q-167 37 -259.5 131.5t-92.5 251.5q0 191 143 305.5t374 114.5q120 0 218 -33.5t161.5 -90t98 -130.5t35.5 -157h-270q-6 78 -70.5 128.5
t-173.5 50.5q-105 0 -166 -46.5t-61 -119.5q0 -112 186 -150l207 -45q85 -18 149.5 -46.5t115.5 -74t77.5 -113t26.5 -155.5q0 -197 -144 -316.5t-403 -119.5q-133 0 -237 34t-167.5 93t-96.5 133.5t-35 159.5z" />
    <glyph glyph-name="sacute" unicode="&#x15b;" horiz-adv-x="1089" 
d="M113 748q0 87 35 153.5t96.5 105.5t137.5 58t165 19q186 0 299 -83t113 -233h-248q-6 49 -49.5 84.5t-119.5 35.5q-74 0 -117.5 -32t-43.5 -85q0 -17 5 -31.5t17 -25.5t24 -20t32.5 -16.5t35.5 -12.5t41 -10t40.5 -7.5t42.5 -7t39 -6.5q160 -27 247 -96.5t87 -205.5
q0 -164 -122 -257.5t-340 -93.5q-205 0 -321.5 86.5t-116.5 231.5h273q7 -56 52 -88.5t126 -32.5q88 0 132 33.5t44 86.5q0 16 -4 29t-14 24t-19.5 19t-28 15.5t-31 12t-38 10t-39.5 8.5t-44 8t-45 8q-78 15 -134.5 36.5t-106.5 57t-76 91.5t-26 131zM426 1233l237 352h248
l-280 -352h-205z" />
    <glyph glyph-name="Scircumflex" unicode="&#x15c;" horiz-adv-x="1269" 
d="M85 394h278q7 -80 80 -132.5t192 -52.5t183 47t64 124q0 65 -50 102.5t-158 61.5l-205 45q-167 37 -259.5 131.5t-92.5 251.5q0 191 143 305.5t374 114.5q120 0 218 -33.5t161.5 -90t98 -130.5t35.5 -157h-270q-6 78 -70.5 128.5t-173.5 50.5q-105 0 -166 -46.5
t-61 -119.5q0 -112 186 -150l207 -45q85 -18 149.5 -46.5t115.5 -74t77.5 -113t26.5 -155.5q0 -197 -144 -316.5t-403 -119.5q-133 0 -237 34t-167.5 93t-96.5 133.5t-35 159.5zM730 1737l262 -249h-223l-131 125h-10l-140 -125h-221l272 249h191z" />
    <glyph glyph-name="scircumflex" unicode="&#x15d;" horiz-adv-x="1089" 
d="M193 1224l251 350h201l250 -350h-216l-129 206h-11l-129 -206h-217zM113 748q0 87 35 153.5t96.5 105.5t137.5 58t165 19q186 0 299 -83t113 -233h-248q-6 49 -49.5 84.5t-119.5 35.5q-74 0 -117.5 -32t-43.5 -85q0 -17 5 -31.5t17 -25.5t24 -20t32.5 -16.5t35.5 -12.5
t41 -10t40.5 -7.5t42.5 -7t39 -6.5q160 -27 247 -96.5t87 -205.5q0 -164 -122 -257.5t-340 -93.5q-205 0 -321.5 86.5t-116.5 231.5h273q7 -56 52 -88.5t126 -32.5q88 0 132 33.5t44 86.5q0 16 -4 29t-14 24t-19.5 19t-28 15.5t-31 12t-38 10t-39.5 8.5t-44 8t-45 8
q-78 15 -134.5 36.5t-106.5 57t-76 91.5t-26 131z" />
    <glyph glyph-name="Scedilla" unicode="&#x15e;" horiz-adv-x="1269" 
d="M641 -482q-94 0 -146 16v128q45 -14 111 -14q109 0 109 56q0 31 -27.5 45.5t-101.5 14.5h-55v108l41 104q-120 6 -214 42.5t-152 94t-88.5 129t-32.5 152.5h278q7 -80 80 -132.5t192 -52.5t183 47t64 124q0 65 -50 102.5t-158 61.5l-205 45q-167 37 -259.5 131.5
t-92.5 251.5q0 191 143 305.5t374 114.5q120 0 218 -33.5t161.5 -90t98 -130.5t35.5 -157h-270q-6 78 -70.5 128.5t-173.5 50.5q-105 0 -166 -46.5t-61 -119.5q0 -112 186 -150l207 -45q85 -18 149.5 -46.5t115.5 -74t77.5 -113t26.5 -155.5q0 -173 -113 -288t-320 -141
l-38 -96q90 0 141 -46t51 -123q0 -96 -64.5 -145.5t-183.5 -52.5z" />
    <glyph glyph-name="scedilla" unicode="&#x15f;" horiz-adv-x="1089" 
d="M541 -482q-84 -1 -146 16v128q47 -14 111 -14q109 0 109 58q0 34 -30 46t-98 12h-55v108l43 110q-181 13 -282 98t-101 219h273q7 -56 52 -88.5t126 -32.5q88 0 132 33.5t44 86.5q0 16 -4 29t-14 24t-19.5 19t-28 15.5t-31 12t-38 10t-39.5 8.5t-44 8t-45 8
q-78 15 -134.5 36.5t-106.5 57t-76 91.5t-26 131q0 87 35 153.5t96.5 105.5t137.5 58t165 19q186 0 299 -83t113 -233h-248q-6 49 -49.5 84.5t-119.5 35.5q-74 0 -117.5 -32t-43.5 -85q0 -17 5 -31.5t17 -25.5t24 -20t32.5 -16.5t35.5 -12.5t41 -10t40.5 -7.5t42.5 -7
t39 -6.5q160 -27 247 -96.5t87 -205.5q0 -142 -93 -231.5t-261 -112.5l-41 -103q88 0 140 -45t52 -124q0 -99 -66.5 -147.5t-181.5 -50.5z" />
    <glyph glyph-name="Scaron" unicode="&#x160;" horiz-adv-x="1269" 
d="M85 394h278q7 -80 80 -132.5t192 -52.5t183 47t64 124q0 65 -50 102.5t-158 61.5l-205 45q-167 37 -259.5 131.5t-92.5 251.5q0 191 143 305.5t374 114.5q120 0 218 -33.5t161.5 -90t98 -130.5t35.5 -157h-270q-6 78 -70.5 128.5t-173.5 50.5q-105 0 -166 -46.5
t-61 -119.5q0 -112 186 -150l207 -45q85 -18 149.5 -46.5t115.5 -74t77.5 -113t26.5 -155.5q0 -197 -144 -316.5t-403 -119.5q-133 0 -237 34t-167.5 93t-96.5 133.5t-35 159.5zM266 1725h227l134 -116h15l124 116h229l-240 -230h-235z" />
    <glyph glyph-name="scaron" unicode="&#x161;" horiz-adv-x="1089" 
d="M193 1572h214l133 -210h10l121 210h219l-241 -349h-203zM113 748q0 87 35 153.5t96.5 105.5t137.5 58t165 19q186 0 299 -83t113 -233h-248q-6 49 -49.5 84.5t-119.5 35.5q-74 0 -117.5 -32t-43.5 -85q0 -17 5 -31.5t17 -25.5t24 -20t32.5 -16.5t35.5 -12.5t41 -10
t40.5 -7.5t42.5 -7t39 -6.5q160 -27 247 -96.5t87 -205.5q0 -164 -122 -257.5t-340 -93.5q-205 0 -321.5 86.5t-116.5 231.5h273q7 -56 52 -88.5t126 -32.5q88 0 132 33.5t44 86.5q0 16 -4 29t-14 24t-19.5 19t-28 15.5t-31 12t-38 10t-39.5 8.5t-44 8t-45 8
q-78 15 -134.5 36.5t-106.5 57t-76 91.5t-26 131z" />
    <glyph glyph-name="Tcedilla" unicode="&#x162;" horiz-adv-x="1136" 
d="M499 0h-76v1115h-382v250h1054v-250h-382v-1115h-52l-55 -115q88 0 139.5 -45t51.5 -124q0 -99 -66.5 -147.5t-181.5 -50.5q-84 -1 -146 16v128q47 -14 111 -14q109 0 109 58q0 34 -30 46t-98 12h-55v108z" />
    <glyph glyph-name="tcedilla" unicode="&#x163;" horiz-adv-x="842" 
d="M480 -469q-94 -1 -146 16v128q47 -14 111 -14q109 0 109 58q0 34 -30.5 46t-98.5 12h-55v107l50 130q-102 25 -145.5 94t-43.5 194v527h-162v222h168v264h273v-264h235v-222h-235v-481q0 -73 35 -102t116 -29q54 0 92 4v-214q-63 -12 -161 -12h-17l-39 -97
q88 0 140 -45.5t52 -123.5q0 -98 -66.5 -147t-181.5 -51z" />
    <glyph glyph-name="Tcaron" unicode="&#x164;" horiz-adv-x="1136" 
d="M201 1725h227l134 -116h15l124 116h229l-240 -230h-235zM713 0h-290v1115h-382v250h1054v-250h-382v-1115z" />
    <glyph glyph-name="tcaron" unicode="&#x165;" horiz-adv-x="872" 
d="M663 1675h224l-47 -488h-177v488zM237 1051v264h273v-264h235v-222h-235v-481q0 -73 35 -102t116 -29q54 0 92 4v-214q-63 -12 -161 -12q-199 0 -280 70.5t-81 236.5v527h-162v222h168z" />
    <glyph glyph-name="Tbar" unicode="&#x166;" horiz-adv-x="1136" 
d="M941 583h-228v-583h-290v583h-228v182h228v350h-382v250h1054v-250h-382v-350h228v-182z" />
    <glyph glyph-name="tbar" unicode="&#x167;" horiz-adv-x="842" 
d="M753 7q-63 -12 -161 -12q-199 0 -280 70.5t-81 236.5v185h-146v167h146v175h-162v222h168v264h273v-264h235v-222h-235v-175h213v-167h-213v-139q0 -73 35 -102t116 -29q54 0 92 4v-214z" />
    <glyph glyph-name="Utilde" unicode="&#x168;" horiz-adv-x="1419" 
d="M710 229q123 0 195.5 71.5t72.5 203.5v861h290v-893q0 -226 -151.5 -362t-406.5 -136t-406.5 136t-151.5 362v893h289v-861q0 -133 72.5 -204t196.5 -71zM841 1459q-46 0 -85 17.5t-60.5 38t-47.5 38t-50 17.5q-34 0 -51.5 -29t-19.5 -67h-139q0 92 51 160.5t148 68.5
q45 0 85.5 -17.5t64 -38t51.5 -38t52 -17.5q34 0 51.5 27t18.5 68h139q0 -98 -57 -163t-151 -65z" />
    <glyph glyph-name="utilde" unicode="&#x169;" horiz-adv-x="1253" 
d="M1101 1065v-1065h-274v178h-15q-11 -34 -35 -66t-61 -62t-93 -48t-123 -18q-165 0 -259.5 91t-94.5 275v715h281v-639q0 -109 52 -153.5t132 -44.5q88 0 148.5 57.5t60.5 150.5v629h281zM756 1222q-36 0 -66 13t-50.5 31t-38.5 36t-38 31t-41 13q-66 0 -72 -110h-151
q0 119 53 197t156 78q47 0 85.5 -19.5t59.5 -42.5t46.5 -42.5t48.5 -19.5q62 0 66 111h151q0 -117 -55.5 -196.5t-153.5 -79.5z" />
    <glyph glyph-name="Umacron" unicode="&#x16a;" horiz-adv-x="1419" 
d="M710 229q123 0 195.5 71.5t72.5 203.5v861h290v-893q0 -226 -151.5 -362t-406.5 -136t-406.5 136t-151.5 362v893h289v-861q0 -133 72.5 -204t196.5 -71zM1025 1497h-630v140h630v-140z" />
    <glyph glyph-name="umacron" unicode="&#x16b;" horiz-adv-x="1253" 
d="M1101 1065v-1065h-274v178h-15q-11 -34 -35 -66t-61 -62t-93 -48t-123 -18q-165 0 -259.5 91t-94.5 275v715h281v-639q0 -109 52 -153.5t132 -44.5q88 0 148.5 57.5t60.5 150.5v629h281zM943 1239h-634v147h634v-147z" />
    <glyph glyph-name="Ubreve" unicode="&#x16c;" horiz-adv-x="1419" 
d="M710 229q123 0 195.5 71.5t72.5 203.5v861h290v-893q0 -226 -151.5 -362t-406.5 -136t-406.5 136t-151.5 362v893h289v-861q0 -133 72.5 -204t196.5 -71zM369 1766h165q0 -69 44.5 -108.5t131.5 -39.5t131.5 39.5t44.5 108.5h162q0 -136 -89 -217t-249 -81
q-161 0 -251 81.5t-90 216.5z" />
    <glyph glyph-name="ubreve" unicode="&#x16d;" horiz-adv-x="1253" 
d="M1101 1065v-1065h-274v178h-15q-11 -34 -35 -66t-61 -62t-93 -48t-123 -18q-165 0 -259.5 91t-94.5 275v715h281v-639q0 -109 52 -153.5t132 -44.5q88 0 148.5 57.5t60.5 150.5v629h281zM304 1535h163q0 -69 40.5 -116.5t118.5 -47.5t119 47.5t41 116.5h160
q0 -133 -84.5 -225.5t-235.5 -92.5t-237 92.5t-85 225.5z" />
    <glyph glyph-name="Uring" unicode="&#x16e;" horiz-adv-x="1419" 
d="M710 1465q-93 0 -156 60.5t-63 154.5q0 93 62.5 153t156.5 60t156.5 -60t62.5 -153q0 -94 -62.5 -154.5t-156.5 -60.5zM617 1679q0 -40 26.5 -66t66.5 -26t66 26t26 66q0 39 -26 65t-66 26t-66.5 -26t-26.5 -65zM710 229q123 0 195.5 71.5t72.5 203.5v861h290v-893
q0 -226 -151.5 -362t-406.5 -136t-406.5 136t-151.5 362v893h289v-861q0 -133 72.5 -204t196.5 -71z" />
    <glyph glyph-name="uring" unicode="&#x16f;" horiz-adv-x="1253" 
d="M1101 1065v-1065h-274v178h-15q-11 -34 -35 -66t-61 -62t-93 -48t-123 -18q-165 0 -259.5 91t-94.5 275v715h281v-639q0 -109 52 -153.5t132 -44.5q88 0 148.5 57.5t60.5 150.5v629h281zM626 1216q-93 0 -156 60.5t-63 154.5q0 93 62.5 153t156.5 60t156.5 -60t62.5 -153
q0 -94 -62.5 -154.5t-156.5 -60.5zM533 1430q0 -40 26.5 -66t66.5 -26t66 26t26 66q0 39 -26 65t-66 26t-66.5 -26t-26.5 -65z" />
    <glyph glyph-name="Uhungarumlaut" unicode="&#x170;" horiz-adv-x="1419" 
d="M710 229q123 0 195.5 71.5t72.5 203.5v861h290v-893q0 -226 -151.5 -362t-406.5 -136t-406.5 136t-151.5 362v893h289v-861q0 -133 72.5 -204t196.5 -71zM396 1502l266 296h237l-313 -296h-190zM784 1502l266 296h236l-312 -296h-190z" />
    <glyph glyph-name="uhungarumlaut" unicode="&#x171;" horiz-adv-x="1253" 
d="M499 1237h-176l247 358h224zM868 1237h-176l247 358h224zM1101 1065v-1065h-274v178h-15q-11 -34 -35 -66t-61 -62t-93 -48t-123 -18q-165 0 -259.5 91t-94.5 275v715h281v-639q0 -109 52 -153.5t132 -44.5q88 0 148.5 57.5t60.5 150.5v629h281z" />
    <glyph glyph-name="Uogonek" unicode="&#x172;" horiz-adv-x="1419" 
d="M1014 -391q-113 0 -179.5 56t-66.5 152q0 105 77 178l-2 4q-73 -25 -146 -25q-253 0 -399 135t-146 363v893h289v-861q0 -133 72.5 -204t196.5 -71q123 0 195.5 71.5t72.5 203.5v861h290v-893q0 -223 -150 -371q-15 -16 -49.5 -47t-53.5 -50.5t-35.5 -51.5t-16.5 -66
q0 -50 33 -76.5t85 -26.5q35 0 76 11v-160q-63 -25 -143 -25z" />
    <glyph glyph-name="uogonek" unicode="&#x173;" horiz-adv-x="1253" 
d="M1112 -371q-57 -19 -144 -19q-107 0 -180 51.5t-73 154.5q0 115 123 204v158h-15q-25 -75 -107 -134.5t-212 -59.5q-164 0 -261 91.5t-97 274.5v715h281v-641q0 -56 15.5 -96.5t42.5 -61.5t58 -30.5t67 -9.5q89 0 149.5 57.5t60.5 151.5v630h281v-1014
q-73 -26 -127.5 -73t-54.5 -105q0 -44 33 -66t87 -22q43 0 73 7v-163z" />
    <glyph glyph-name="Wcircumflex" unicode="&#x174;" horiz-adv-x="1815" 
d="M1005 1737l262 -249h-223l-131 125h-10l-140 -125h-221l272 249h191zM656 0h-267l-358 1365h311l195 -956h14l235 956h244l236 -956h14l194 956h310l-357 -1365h-267l-246 909h-11z" />
    <glyph glyph-name="wcircumflex" unicode="&#x175;" horiz-adv-x="1636" 
d="M467 1224l251 350h201l250 -350h-216l-129 206h-11l-129 -206h-217zM1591 1065l-275 -1065h-293l-197 737h-9l-194 -737h-296l-282 1065h295l148 -768h11l191 768h264l195 -768h11l151 768h280z" />
    <glyph glyph-name="Ycircumflex" unicode="&#x176;" horiz-adv-x="1218" 
d="M754 0h-290v496l-457 869h319l281 -570h12l281 570h311l-457 -862v-503zM705 1737l262 -249h-223l-131 125h-10l-140 -125h-221l272 249h191z" />
    <glyph glyph-name="ycircumflex" unicode="&#x177;" horiz-adv-x="1151" 
d="M1099 1065q-339 -1011 -343 -1024l-27 -72q-30 -82 -64 -139.5t-86.5 -107t-129 -74t-177.5 -24.5q-85 0 -152 12v207q31 -7 88 -7q94 0 136.5 33.5t54.5 101.5l9 31l-363 1063h310l214 -820h12l219 820h299zM224 1224l251 350h201l250 -350h-216l-129 206h-11l-129 -206
h-217z" />
    <glyph glyph-name="Ydieresis" unicode="&#x178;" horiz-adv-x="1218" 
d="M754 0h-290v496l-457 869h319l281 -570h12l281 570h311l-457 -862v-503zM802 1459q-56 0 -89.5 33t-33.5 87t33.5 87t89.5 33q58 0 92.5 -33t34.5 -87t-34.5 -87t-92.5 -33zM412 1459q-55 0 -89.5 33.5t-34.5 86.5q0 54 34 87t90 33q57 0 91 -33t34 -87t-34 -87t-91 -33z
" />
    <glyph glyph-name="Zacute" unicode="&#x179;" horiz-adv-x="1235" 
d="M503 1502l236 335h241l-282 -335h-195zM110 0v195l646 911v15h-630v244h980v-195l-644 -910v-16h664v-244h-1016z" />
    <glyph glyph-name="zacute" unicode="&#x17a;" horiz-adv-x="1058" 
d="M411 1233l237 352h248l-280 -352h-205zM110 0v161l497 663v13h-490v228h830v-180l-479 -644v-13h492v-228h-850z" />
    <glyph glyph-name="Zdotaccent" unicode="&#x17b;" horiz-adv-x="1235" 
d="M485 1624q0 58 38.5 97.5t93.5 39.5q56 0 95 -39.5t39 -97.5q0 -56 -39 -95.5t-95 -39.5q-55 0 -93.5 39.5t-38.5 95.5zM110 0v195l646 911v15h-630v244h980v-195l-644 -910v-16h664v-244h-1016z" />
    <glyph glyph-name="zdotaccent" unicode="&#x17c;" horiz-adv-x="1058" 
d="M396 1392q0 58 38.5 97.5t93.5 39.5q56 0 95 -39.5t39 -97.5q0 -57 -39 -96t-95 -39q-55 0 -93.5 39t-38.5 96zM110 0v161l497 663v13h-490v228h830v-180l-479 -644v-13h492v-228h-850z" />
    <glyph glyph-name="Zcaron" unicode="&#x17d;" horiz-adv-x="1235" 
d="M110 0v195l646 911v15h-630v244h980v-195l-644 -910v-16h664v-244h-1016zM251 1725h227l134 -116h15l124 116h229l-240 -230h-235z" />
    <glyph glyph-name="zcaron" unicode="&#x17e;" horiz-adv-x="1058" 
d="M178 1572h214l133 -210h10l121 210h219l-241 -349h-203zM110 0v161l497 663v13h-490v228h830v-180l-479 -644v-13h492v-228h-850z" />
    <glyph glyph-name="florin" unicode="&#x192;" horiz-adv-x="1237" 
d="M139 -186l155 831h-188l38 236h189l27 152q32 186 141 271t305 85q84 0 149 -19.5t105 -52t64.5 -77t32.5 -91t4 -97.5h-258q2 47 -25.5 80.5t-78.5 33.5q-112 0 -137 -138l-25 -147h294l-39 -236h-294l-155 -831h-304z" />
    <glyph glyph-name="Ohorn" unicode="&#x1a0;" horiz-adv-x="1476" 
d="M1297 595q0 -287 -156.5 -454t-437.5 -167q-279 0 -435 166.5t-156 454.5v166q0 291 157 460t436 169q100 0 228 -34.5t184 -34.5q76 0 105 34t29 101v126h223v-161q0 -131 -71 -210.5t-197 -79.5l-3 -3q43 -70 68.5 -168.5t25.5 -198.5v-166zM407 764v-172
q0 -176 78.5 -273t218.5 -97t219.5 97t79.5 273v172q0 178 -80 278t-219 100t-218 -100t-79 -278z" />
    <glyph glyph-name="ohorn" unicode="&#x1a1;" horiz-adv-x="1225" 
d="M598 -19q-228 0 -361 131.5t-133 370.5v104q0 224 135.5 360.5t358.5 136.5q65 0 141.5 -16.5t122.5 -16.5q64 0 87 28t23 91v158h223v-188q0 -108 -47 -180.5t-141 -92.5v-9q82 -132 82 -270v-104q0 -238 -133 -370.5t-358 -132.5zM598 861q-102 0 -155.5 -78.5
t-53.5 -197.5v-104q0 -75 21 -136t69.5 -101t118.5 -40q103 0 155 79.5t52 197.5v104q0 120 -53 198t-154 78z" />
    <glyph glyph-name="Uhorn" unicode="&#x1af;" horiz-adv-x="1560" 
d="M710 -24q-255 0 -406.5 135.5t-151.5 361.5v892h289v-859q0 -133 72.5 -204.5t196.5 -71.5q123 0 195.5 72t72.5 204v859h291q57 0 83 28.5t26 90.5v130h222v-165q0 -130 -71 -210t-194 -80h-67v-686q0 -226 -152 -361.5t-406 -135.5z" />
    <glyph glyph-name="uhorn" unicode="&#x1b0;" horiz-adv-x="1402" 
d="M812 178q-11 -34 -35 -66t-61 -62t-93 -48t-123 -18q-165 0 -259.5 91t-94.5 275v715h281v-641q0 -108 52 -153t132 -45q88 0 148.5 57.5t60.5 151.5v630h249q59 0 79 28.5t20 90.5v144h223v-179q0 -127 -69 -208.5t-197 -81.5h-24v-859h-274v178h-15z" />
    <glyph glyph-name="Acaron" unicode="&#x1cd;" horiz-adv-x="1324" 
d="M330 0h-291l452 1365h344l450 -1365h-308l-100 331h-445zM662 1086h-13l-160 -534h332zM295 1725h227l134 -116h15l124 116h229l-240 -230h-235z" />
    <glyph glyph-name="acaron" unicode="&#x1ce;" horiz-adv-x="1157" 
d="M449 -16q-157 0 -253.5 87.5t-96.5 237.5q0 147 99 233t280 86h256v92q0 70 -44.5 106.5t-122.5 36.5q-143 0 -164 -110h-265q4 68 30 125t76.5 103.5t134 73t193.5 26.5q95 0 172 -20t138.5 -62t95.5 -115.5t34 -172.5v-711h-265v133h-13q-34 -65 -105 -107t-180 -42z
M543 194q79 0 135 45t56 114v107h-191q-81 0 -123 -35.5t-42 -94.5q0 -65 48 -100.5t117 -35.5zM227 1572h214l133 -210h10l121 210h219l-241 -349h-203z" />
    <glyph glyph-name="Icaron" unicode="&#x1cf;" horiz-adv-x="624" 
d="M457 0h-290v1365h290v-1365zM-55 1725h227l134 -116h15l124 116h229l-240 -230h-235z" />
    <glyph glyph-name="icaron" unicode="&#x1d0;" horiz-adv-x="622" 
d="M-38 1572h214l133 -210h10l121 210h219l-241 -349h-203zM171 0v1065h281v-1065h-281z" />
    <glyph glyph-name="Ocaron" unicode="&#x1d1;" horiz-adv-x="1409" 
d="M337 1725h227l134 -116h15l124 116h229l-240 -230h-235zM1002 767q0 182 -81 278.5t-216 96.5q-136 0 -217 -96.5t-81 -278.5v-170q0 -182 81 -278t217 -96q135 0 216 96.5t81 277.5v170zM1297 598q0 -290 -157 -457t-435 -167t-435.5 167t-157.5 457v166
q0 292 157.5 459t435.5 167t435 -167.5t157 -458.5v-166z" />
    <glyph glyph-name="ocaron" unicode="&#x1d2;" horiz-adv-x="1193" 
d="M246 1572h214l133 -210h10l121 210h219l-241 -349h-203zM598 1084q223 0 357 -134.5t134 -361.5v-104q0 -238 -133 -370.5t-358 -132.5q-228 0 -361 131.5t-133 370.5v104q0 224 135.5 360.5t358.5 136.5zM598 861q-101 0 -155 -79t-54 -197v-104q0 -118 52.5 -197.5
t156.5 -79.5q103 0 155 79t52 198v104q0 119 -53 197.5t-154 78.5z" />
    <glyph glyph-name="Ucaron" unicode="&#x1d3;" horiz-adv-x="1419" 
d="M343 1725h227l134 -116h15l124 116h229l-240 -230h-235zM710 229q123 0 195.5 71.5t72.5 203.5v861h290v-893q0 -226 -151.5 -362t-406.5 -136t-406.5 136t-151.5 362v893h289v-861q0 -133 72.5 -204t196.5 -71z" />
    <glyph glyph-name="ucaron" unicode="&#x1d4;" horiz-adv-x="1253" 
d="M275 1572h214l133 -210h10l121 210h219l-241 -349h-203zM1101 1065v-1065h-274v178h-15q-11 -34 -35 -66t-61 -62t-93 -48t-123 -18q-165 0 -259.5 91t-94.5 275v715h281v-639q0 -109 52 -153.5t132 -44.5q88 0 148.5 57.5t60.5 150.5v629h281z" />
    <glyph glyph-name="Udieresismacron" unicode="&#x1d5;" horiz-adv-x="1419" 
d="M710 229q123 0 195.5 71.5t72.5 203.5v861h290v-893q0 -226 -151.5 -362t-406.5 -136t-406.5 136t-151.5 362v893h289v-861q0 -133 72.5 -204t196.5 -71zM904 1459q-56 0 -89.5 33t-33.5 87t33.5 87t89.5 33q58 0 92.5 -33t34.5 -87t-34.5 -87t-92.5 -33zM514 1459
q-55 0 -89.5 33.5t-34.5 86.5q0 54 34 87t90 33q57 0 91 -33t34 -87t-34 -87t-91 -33zM1025 1775h-630v140h630v-140z" />
    <glyph glyph-name="udieresismacron" unicode="&#x1d6;" horiz-adv-x="1253" 
d="M1101 1065v-1065h-274v178h-15q-11 -34 -35 -66t-61 -62t-93 -48t-123 -18q-165 0 -259.5 91t-94.5 275v715h281v-639q0 -109 52 -153.5t132 -44.5q88 0 148.5 57.5t60.5 150.5v629h281zM828 1210q-57 0 -93 35t-36 90q0 57 36 92t93 35q61 0 97.5 -35t36.5 -92
q0 -56 -37 -90.5t-97 -34.5zM422 1210q-58 0 -94.5 34.5t-36.5 90.5q0 57 36 92t95 35t95.5 -35t36.5 -92q0 -56 -36.5 -90.5t-95.5 -34.5zM943 1591h-634v147h634v-147z" />
    <glyph glyph-name="Udieresisacute" unicode="&#x1d7;" horiz-adv-x="1419" 
d="M601 1746l210 192h240l-255 -192h-195zM904 1459q-56 0 -89.5 33t-33.5 87t33.5 87t89.5 33q58 0 92.5 -33t34.5 -87t-34.5 -87t-92.5 -33zM514 1459q-55 0 -89.5 33.5t-34.5 86.5q0 54 34 87t90 33q57 0 91 -33t34 -87t-34 -87t-91 -33zM710 229q123 0 195.5 71.5
t72.5 203.5v861h290v-893q0 -226 -151.5 -362t-406.5 -136t-406.5 136t-151.5 362v893h289v-861q0 -133 72.5 -204t196.5 -71z" />
    <glyph glyph-name="udieresisacute" unicode="&#x1d8;" horiz-adv-x="1253" 
d="M515 1570l237 352h248l-280 -352h-205zM828 1210q-57 0 -93 35t-36 90q0 57 36 92t93 35q61 0 97.5 -35t36.5 -92q0 -56 -37 -90.5t-97 -34.5zM422 1210q-58 0 -94.5 34.5t-36.5 90.5q0 57 36 92t95 35t95.5 -35t36.5 -92q0 -56 -36.5 -90.5t-95.5 -34.5zM1101 1065
v-1065h-274v178h-15q-11 -34 -35 -66t-61 -62t-93 -48t-123 -18q-165 0 -259.5 91t-94.5 275v715h281v-639q0 -109 52 -153.5t132 -44.5q88 0 148.5 57.5t60.5 150.5v629h281z" />
    <glyph glyph-name="Udieresiscaron" unicode="&#x1d9;" horiz-adv-x="1419" 
d="M519 1464q-49 0 -82 33.5t-33 82.5q0 51 33 85t82 34q51 0 86 -34t35 -85q0 -49 -35 -82.5t-86 -33.5zM896 1464q-49 0 -82.5 33.5t-33.5 82.5q0 51 33.5 85t82.5 34q51 0 86 -34t35 -85q0 -49 -35 -82.5t-86 -33.5zM353 1934h226l129 -102h4l129 102h226l-274 -200h-166
zM710 229q123 0 195.5 71.5t72.5 203.5v861h290v-893q0 -226 -151.5 -362t-406.5 -136t-406.5 136t-151.5 362v893h289v-861q0 -133 72.5 -204t196.5 -71z" />
    <glyph glyph-name="udieresiscaron" unicode="&#x1da;" horiz-adv-x="1253" 
d="M275 1911h214l133 -210h10l121 210h219l-241 -349h-203zM828 1210q-57 0 -93 35t-36 90q0 57 36 92t93 35q61 0 97.5 -35t36.5 -92q0 -56 -37 -90.5t-97 -34.5zM422 1210q-58 0 -94.5 34.5t-36.5 90.5q0 57 36 92t95 35t95.5 -35t36.5 -92q0 -56 -36.5 -90.5t-95.5 -34.5
zM1101 1065v-1065h-274v178h-15q-11 -34 -35 -66t-61 -62t-93 -48t-123 -18q-165 0 -259.5 91t-94.5 275v715h281v-639q0 -109 52 -153.5t132 -44.5q88 0 148.5 57.5t60.5 150.5v629h281z" />
    <glyph glyph-name="Udieresisgrave" unicode="&#x1db;" horiz-adv-x="1419" 
d="M819 1746h-195l-255 192h240zM904 1459q-56 0 -89.5 33t-33.5 87t33.5 87t89.5 33q58 0 92.5 -33t34.5 -87t-34.5 -87t-92.5 -33zM514 1459q-55 0 -89.5 33.5t-34.5 86.5q0 54 34 87t90 33q57 0 91 -33t34 -87t-34 -87t-91 -33zM710 229q123 0 195.5 71.5t72.5 203.5v861
h290v-893q0 -226 -151.5 -362t-406.5 -136t-406.5 136t-151.5 362v893h289v-861q0 -133 72.5 -204t196.5 -71z" />
    <glyph glyph-name="udieresisgrave" unicode="&#x1dc;" horiz-adv-x="1253" 
d="M753 1570h-205l-280 352h248zM828 1210q-57 0 -93 35t-36 90q0 57 36 92t93 35q61 0 97.5 -35t36.5 -92q0 -56 -37 -90.5t-97 -34.5zM422 1210q-58 0 -94.5 34.5t-36.5 90.5q0 57 36 92t95 35t95.5 -35t36.5 -92q0 -56 -36.5 -90.5t-95.5 -34.5zM1101 1065v-1065h-274
v178h-15q-11 -34 -35 -66t-61 -62t-93 -48t-123 -18q-165 0 -259.5 91t-94.5 275v715h281v-639q0 -109 52 -153.5t132 -44.5q88 0 148.5 57.5t60.5 150.5v629h281z" />
    <glyph glyph-name="Adieresismacron" unicode="&#x1de;" horiz-adv-x="1324" 
d="M330 0h-291l452 1365h344l450 -1365h-308l-100 331h-445zM662 1086h-13l-160 -534h332zM856 1459q-56 0 -89.5 33t-33.5 87t33.5 87t89.5 33q58 0 92.5 -33t34.5 -87t-34.5 -87t-92.5 -33zM466 1459q-55 0 -89.5 33.5t-34.5 86.5q0 54 34 87t90 33q57 0 91 -33t34 -87
t-34 -87t-91 -33zM977 1775h-630v140h630v-140z" />
    <glyph glyph-name="adieresismacron" unicode="&#x1df;" horiz-adv-x="1157" 
d="M449 -16q-157 0 -253.5 87.5t-96.5 237.5q0 147 99 233t280 86h256v92q0 70 -44.5 106.5t-122.5 36.5q-143 0 -164 -110h-265q4 68 30 125t76.5 103.5t134 73t193.5 26.5q95 0 172 -20t138.5 -62t95.5 -115.5t34 -172.5v-711h-265v133h-13q-34 -65 -105 -107t-180 -42z
M543 194q79 0 135 45t56 114v107h-191q-81 0 -123 -35.5t-42 -94.5q0 -65 48 -100.5t117 -35.5zM780 1210q-57 0 -93 35t-36 90q0 57 36 92t93 35q61 0 97.5 -35t36.5 -92q0 -56 -37 -90.5t-97 -34.5zM374 1210q-58 0 -94.5 34.5t-36.5 90.5q0 57 36 92t95 35t95.5 -35
t36.5 -92q0 -56 -36.5 -90.5t-95.5 -34.5zM895 1591h-634v147h634v-147z" />
    <glyph glyph-name="Adotmacron" unicode="&#x1e0;" horiz-adv-x="1324" 
d="M330 0h-291l452 1365h344l450 -1365h-308l-100 331h-445zM662 1086h-13l-160 -534h332zM536 1572q0 54 36 90.5t89 36.5q54 0 90.5 -36.5t36.5 -90.5q0 -53 -36.5 -88.5t-90.5 -35.5q-53 0 -89 35.5t-36 88.5zM977 1770h-630v140h630v-140z" />
    <glyph glyph-name="adotmacron" unicode="&#x1e1;" horiz-adv-x="1157" 
d="M449 -16q-157 0 -253.5 87.5t-96.5 237.5q0 147 99 233t280 86h256v92q0 70 -44.5 106.5t-122.5 36.5q-143 0 -164 -110h-265q4 68 30 125t76.5 103.5t134 73t193.5 26.5q95 0 172 -20t138.5 -62t95.5 -115.5t34 -172.5v-711h-265v133h-13q-34 -65 -105 -107t-180 -42z
M543 194q79 0 135 45t56 114v107h-191q-81 0 -123 -35.5t-42 -94.5q0 -65 48 -100.5t117 -35.5zM443 1348q0 58 38.5 97.5t93.5 39.5q56 0 95 -39.5t39 -97.5q0 -57 -39 -96t-95 -39q-55 0 -93.5 39t-38.5 96zM895 1591h-634v147h634v-147z" />
    <glyph glyph-name="AEmacron" unicode="&#x1e2;" horiz-adv-x="1952" 
d="M871 1123l-265 -576l332 1v575h-67zM938 318h-426l-161 -318h-318l657 1365h1135v-242h-601v-322h565v-225h-565v-333h601v-243h-887v318zM1690 1497h-630v140h630v-140z" />
    <glyph glyph-name="aemacron" unicode="&#x1e3;" horiz-adv-x="1803" 
d="M1244 -19q-150 0 -249 52t-143 141h-16q-47 -82 -140 -137.5t-225 -55.5q-172 0 -273 87t-101 240q0 148 100.5 234t283.5 86h254v92q0 70 -44.5 106t-122.5 36q-74 0 -116 -29.5t-51 -79.5h-265q4 67 31 125t77.5 104.5t135 73.5t194.5 27q105 0 193.5 -34.5
t134.5 -91.5h16q45 58 129 92t183 34q212 0 341.5 -133t129.5 -360v-120h-673v-63q0 -92 60.5 -148.5t154.5 -56.5q77 0 127 32.5t58 82.5h264q-4 -56 -31.5 -112t-78.5 -107.5t-139 -84t-199 -32.5zM1232 870q-88 0 -146 -59.5t-58 -152.5v-18h401v13q0 99 -53 158t-144 59
zM544 193q79 0 135 45t56 114v108h-189q-81 0 -126.5 -36t-45.5 -94q0 -65 50 -101t120 -36zM1219 1239h-634v147h634v-147z" />
    <glyph glyph-name="Gcaron" unicode="&#x1e6;" horiz-adv-x="1363" 
d="M324 1725h227l134 -116h15l124 116h229l-240 -230h-235zM1249 921h-282q-12 97 -83 158t-185 61q-141 0 -218 -97.5t-77 -274.5v-164q0 -174 75.5 -277t227.5 -103q129 0 199 65.5t70 164.5v72h-267v217h542v-268q0 -102 -34 -191t-99.5 -159t-172 -110.5t-242.5 -40.5
q-147 0 -261 47t-185.5 132t-108 198.5t-36.5 251.5v168q0 280 156.5 449.5t434.5 169.5q125 0 228.5 -38t170.5 -103t105 -149t42 -179z" />
    <glyph glyph-name="gcaron" unicode="&#x1e7;" horiz-adv-x="1234" 
d="M266 1572h214l133 -210h10l121 210h219l-241 -349h-203zM591 -182q110 0 165 56t55 161v152h-14q-31 -74 -109.5 -120.5t-187.5 -46.5q-179 0 -289 126.5t-110 353.5v97q0 228 109.5 354.5t289.5 126.5q112 0 193 -50.5t109 -127.5h13v165h277v-1052q0 -89 -28.5 -159.5
t-75.5 -116t-113.5 -76t-138.5 -43t-153 -12.5q-114 0 -202.5 25.5t-142.5 70.5t-83 100.5t-32 120.5h271q11 -49 63.5 -77t133.5 -28zM605 847q-99 0 -157 -71t-58 -197v-77q0 -125 59.5 -196.5t156.5 -71.5q95 0 150 69.5t55 182.5v107q0 114 -56 184t-150 70z" />
    <glyph glyph-name="Kcaron" unicode="&#x1e8;" horiz-adv-x="1325" 
d="M1286 1365l-483 -590l503 -775h-346l-369 574l-134 -150v-424h-290v1365h290v-595h13l501 595h315zM283 1725h227l134 -116h15l124 116h229l-240 -230h-235z" />
    <glyph glyph-name="kcaron" unicode="&#x1e9;" horiz-adv-x="1172" 
d="M435 363v-363h-281v1455h281v-822h13l339 432h316l-381 -459l408 -606h-328l-295 441zM-73 1815h227l134 -116h15l124 116h229l-240 -230h-235z" />
    <glyph glyph-name="Oogonek" unicode="&#x1ea;" horiz-adv-x="1409" 
d="M1002 -390q-117 1 -182.5 56.5t-66.5 144.5q0 105 92 188l-2 16q-64 -37 -170 -37q-253 0 -407 171t-154 449v166q0 290 156.5 458t436.5 168q279 0 435.5 -168.5t156.5 -457.5v-166q0 -169 -52.5 -285.5t-145.5 -210.5q-49 -48 -67.5 -67.5t-42 -49t-30.5 -51t-7 -48.5
q0 -48 33.5 -73t86.5 -25q42 0 74 9v-166q-74 -22 -144 -21zM1002 767q0 177 -79 276t-218 99q-140 0 -219 -98.5t-79 -276.5v-170q0 -178 79 -276t219 -98q139 0 218 98.5t79 275.5v170z" />
    <glyph glyph-name="oogonek" unicode="&#x1eb;" horiz-adv-x="1193" 
d="M598 861q-102 0 -155.5 -78.5t-53.5 -197.5v-104q0 -118 52.5 -197.5t156.5 -79.5q103 0 155 79.5t52 197.5v104q0 120 -53 198t-154 78zM690 13q-79 -26 -146 -26q-192 0 -316 133.5t-124 357.5v109q0 224 135.5 360.5t360.5 136.5q221 0 355 -134.5t134 -361.5v-104
q0 -82 -14 -148t-42 -115.5t-52.5 -80t-62.5 -67.5l-27 -27t-26.5 -27t-21 -23.5t-20.5 -26.5t-13 -23.5t-10.5 -28t-2.5 -28.5q0 -51 33.5 -77.5t88.5 -26.5q38 0 71 7v-161q-58 -21 -138 -21q-66 0 -121 18.5t-94 65t-39 114.5q0 115 100 192z" />
    <glyph glyph-name="Oogonekmacron" unicode="&#x1ec;" horiz-adv-x="1409" 
d="M1002 -390q-117 1 -182.5 56.5t-66.5 144.5q0 105 92 188l-2 16q-64 -37 -170 -37q-253 0 -407 171t-154 449v166q0 290 156.5 458t436.5 168q279 0 435.5 -168.5t156.5 -457.5v-166q0 -169 -52.5 -285.5t-145.5 -210.5q-49 -48 -67.5 -67.5t-42 -49t-30.5 -51t-7 -48.5
q0 -48 33.5 -73t86.5 -25q42 0 74 9v-166q-74 -22 -144 -21zM1002 767q0 177 -79 276t-218 99q-140 0 -219 -98.5t-79 -276.5v-170q0 -178 79 -276t219 -98q139 0 218 98.5t79 275.5v170zM1019 1497h-630v140h630v-140z" />
    <glyph glyph-name="oogonekmacron" unicode="&#x1ed;" horiz-adv-x="1193" 
d="M598 861q-102 0 -155.5 -78.5t-53.5 -197.5v-104q0 -118 52.5 -197.5t156.5 -79.5q103 0 155 79.5t52 197.5v104q0 120 -53 198t-154 78zM690 13q-79 -26 -146 -26q-192 0 -316 133.5t-124 357.5v109q0 224 135.5 360.5t360.5 136.5q221 0 355 -134.5t134 -361.5v-104
q0 -82 -14 -148t-42 -115.5t-52.5 -80t-62.5 -67.5l-27 -27t-26.5 -27t-21 -23.5t-20.5 -26.5t-13 -23.5t-10.5 -28t-2.5 -28.5q0 -51 33.5 -77.5t88.5 -26.5q38 0 71 7v-161q-58 -21 -138 -21q-66 0 -121 18.5t-94 65t-39 114.5q0 115 100 192zM914 1239h-634v147h634v-147
z" />
    <glyph glyph-name="Gacute" unicode="&#x1f4;" horiz-adv-x="1363" 
d="M576 1502l236 335h241l-282 -335h-195zM1249 921h-282q-12 97 -83 158t-185 61q-141 0 -218 -97.5t-77 -274.5v-164q0 -174 75.5 -277t227.5 -103q129 0 199 65.5t70 164.5v72h-267v217h542v-268q0 -102 -34 -191t-99.5 -159t-172 -110.5t-242.5 -40.5q-147 0 -261 47
t-185.5 132t-108 198.5t-36.5 251.5v168q0 280 156.5 449.5t434.5 169.5q125 0 228.5 -38t170.5 -103t105 -149t42 -179z" />
    <glyph glyph-name="gacute" unicode="&#x1f5;" horiz-adv-x="1234" 
d="M499 1233l237 352h248l-280 -352h-205zM591 -182q110 0 165 56t55 161v152h-14q-31 -74 -109.5 -120.5t-187.5 -46.5q-179 0 -289 126.5t-110 353.5v97q0 228 109.5 354.5t289.5 126.5q112 0 193 -50.5t109 -127.5h13v165h277v-1052q0 -89 -28.5 -159.5t-75.5 -116
t-113.5 -76t-138.5 -43t-153 -12.5q-114 0 -202.5 25.5t-142.5 70.5t-83 100.5t-32 120.5h271q11 -49 63.5 -77t133.5 -28zM605 847q-99 0 -157 -71t-58 -197v-77q0 -125 59.5 -196.5t156.5 -71.5q95 0 150 69.5t55 182.5v107q0 114 -56 184t-150 70z" />
    <glyph glyph-name="Ngrave" unicode="&#x1f8;" horiz-adv-x="1437" 
d="M833 1502h-195l-282 335h241zM439 0h-272v1365h237l582 -854h12v854h272v-1365h-236l-583 861h-12v-861z" />
    <glyph glyph-name="ngrave" unicode="&#x1f9;" horiz-adv-x="1256" 
d="M755 1233h-205l-280 352h248zM152 0v1065h274v-186h14q11 35 32.5 67t57.5 64t94.5 51.5t131.5 19.5q164 0 258.5 -95t94.5 -278v-708h-281v628q0 109 -50 158.5t-133 49.5q-99 0 -155.5 -66.5t-56.5 -180.5v-589h-281z" />
    <glyph glyph-name="Aringacute" unicode="&#x1fa;" horiz-adv-x="1324" 
d="M330 0h-291l452 1365h344l450 -1365h-308l-100 331h-445zM662 1086h-13l-160 -534h332zM547 1808l84 134h266l-121 -134h-229zM662 1412q-79 0 -132 51t-53 128t53 127.5t132 50.5t132 -50.5t53 -127.5t-53 -128t-132 -51zM586 1591q0 -32 21.5 -53.5t54.5 -21.5
t54.5 21.5t21.5 53.5t-21.5 53t-54.5 21t-54.5 -21t-21.5 -53z" />
    <glyph glyph-name="aringacute" unicode="&#x1fb;" horiz-adv-x="1157" 
d="M449 -16q-157 0 -253.5 87.5t-96.5 237.5q0 147 99 233t280 86h256v92q0 70 -44.5 106.5t-122.5 36.5q-143 0 -164 -110h-265q4 68 30 125t76.5 103.5t134 73t193.5 26.5q95 0 172 -20t138.5 -62t95.5 -115.5t34 -172.5v-711h-265v133h-13q-34 -65 -105 -107t-180 -42z
M543 194q79 0 135 45t56 114v107h-191q-81 0 -123 -35.5t-42 -94.5q0 -65 48 -100.5t117 -35.5zM698 1728h-207l134 186h251zM575 1216q-94 0 -156.5 60.5t-62.5 154.5q0 93 62.5 153t156.5 60t156.5 -60t62.5 -153q0 -94 -62.5 -154.5t-156.5 -60.5zM482 1430q0 -40 26 -66
t66 -26t66.5 26t26.5 66q0 39 -26.5 65t-66.5 26t-66 -26t-26 -65z" />
    <glyph glyph-name="AEacute" unicode="&#x1fc;" horiz-adv-x="1952" 
d="M1260 1502l236 335h241l-282 -335h-195zM871 1123l-265 -576l332 1v575h-67zM938 318h-426l-161 -318h-318l657 1365h1135v-242h-601v-322h565v-225h-565v-333h601v-243h-887v318z" />
    <glyph glyph-name="aeacute" unicode="&#x1fd;" horiz-adv-x="1803" 
d="M784 1233l237 352h248l-280 -352h-205zM1244 -19q-150 0 -249 52t-143 141h-16q-47 -82 -140 -137.5t-225 -55.5q-172 0 -273 87t-101 240q0 148 100.5 234t283.5 86h254v92q0 70 -44.5 106t-122.5 36q-74 0 -116 -29.5t-51 -79.5h-265q4 67 31 125t77.5 104.5t135 73.5
t194.5 27q105 0 193.5 -34.5t134.5 -91.5h16q45 58 129 92t183 34q212 0 341.5 -133t129.5 -360v-120h-673v-63q0 -92 60.5 -148.5t154.5 -56.5q77 0 127 32.5t58 82.5h264q-4 -56 -31.5 -112t-78.5 -107.5t-139 -84t-199 -32.5zM1232 870q-88 0 -146 -59.5t-58 -152.5v-18
h401v13q0 99 -53 158t-144 59zM544 193q79 0 135 45t56 114v108h-189q-81 0 -126.5 -36t-45.5 -94q0 -65 50 -101t120 -36z" />
    <glyph glyph-name="Oslashacute" unicode="&#x1fe;" horiz-adv-x="1409" 
d="M703 -26q-229 0 -376 116l-99 -121l-126 105l111 136q-101 153 -101 385v166q0 292 158 460.5t435 168.5q226 0 372 -114l88 107l130 -98l-105 -127q107 -159 107 -397v-166q0 -289 -158 -455t-436 -166zM399 591q0 -73 18 -121l494 595q-80 83 -208 83
q-138 0 -221 -99.5t-83 -283.5v-174zM703 214q139 0 222 96.5t83 280.5v174q0 78 -21 132l-497 -598q79 -85 213 -85zM589 1502l236 335h241l-282 -335h-195z" />
    <glyph glyph-name="oslashacute" unicode="&#x1ff;" horiz-adv-x="1193" 
d="M451 264q55 -65 146 -65q55 0 97 23t67.5 63t38 90t12.5 107v119q0 46 -18 82zM381 469q0 -52 18 -88l343 424q-53 66 -145 66q-104 0 -160 -81t-56 -202v-119zM598 -19q-176 0 -297 83l-105 -126l-106 91l110 133q-96 129 -96 321v104q0 224 135.5 360.5t358.5 136.5
q168 0 291 -84l102 122l111 -93l-108 -132q95 -126 95 -309v-104q0 -238 -133 -370.5t-358 -132.5zM479 1233l237 352h248l-280 -352h-205z" />
    <glyph glyph-name="Adblgrave" unicode="&#x200;" horiz-adv-x="1324" 
d="M330 0h-291l452 1365h344l450 -1365h-308l-100 331h-445zM662 1086h-13l-160 -534h332zM588 1503h-190l-312 296h236zM976 1503h-190l-313 296h237z" />
    <glyph glyph-name="adblgrave" unicode="&#x201;" horiz-adv-x="1157" 
d="M449 -16q-157 0 -253.5 87.5t-96.5 237.5q0 147 99 233t280 86h256v92q0 70 -44.5 106.5t-122.5 36.5q-143 0 -164 -110h-265q4 68 30 125t76.5 103.5t134 73t193.5 26.5q95 0 172 -20t138.5 -62t95.5 -115.5t34 -172.5v-711h-265v133h-13q-34 -65 -105 -107t-180 -42z
M543 194q79 0 135 45t56 114v107h-191q-81 0 -123 -35.5t-42 -94.5q0 -65 48 -100.5t117 -35.5zM330 1233l-295 358h225l247 -358h-177zM697 1233l-295 358h225l246 -358h-176z" />
    <glyph glyph-name="Ainvertedbreve" unicode="&#x202;" horiz-adv-x="1324" 
d="M330 0h-291l452 1365h344l450 -1365h-308l-100 331h-445zM662 1086h-13l-160 -534h332zM662 1620q-82 0 -128 -39t-46 -102h-164q0 129 91.5 211t246.5 82t245 -82t90 -211h-161q0 63 -46 102t-128 39z" />
    <glyph glyph-name="ainvertedbreve" unicode="&#x203;" horiz-adv-x="1157" 
d="M449 -16q-157 0 -253.5 87.5t-96.5 237.5q0 147 99 233t280 86h256v92q0 70 -44.5 106.5t-122.5 36.5q-143 0 -164 -110h-265q4 68 30 125t76.5 103.5t134 73t193.5 26.5q95 0 172 -20t138.5 -62t95.5 -115.5t34 -172.5v-711h-265v133h-13q-34 -65 -105 -107t-180 -42z
M543 194q79 0 135 45t56 114v107h-191q-81 0 -123 -35.5t-42 -94.5q0 -65 48 -100.5t117 -35.5zM255 1223q1 133 86.5 225.5t236.5 92.5t236 -92.5t84 -225.5h-160q0 69 -41 116.5t-119 47.5t-119 -47.5t-41 -116.5h-163z" />
    <glyph glyph-name="Edblgrave" unicode="&#x204;" horiz-adv-x="1185" 
d="M530 1503h-190l-312 296h236zM918 1503h-190l-313 296h237zM1058 243v-243h-891v1365h891v-243h-604v-321h568v-225h-568v-333h604z" />
    <glyph glyph-name="edblgrave" unicode="&#x205;" horiz-adv-x="1158" 
d="M596 -19q-227 0 -359.5 128.5t-132.5 367.5v113q0 119 37 214t102.5 155.5t151.5 92.5t187 32q213 0 344 -133.5t131 -360.5v-120h-677v-50q0 -98 59 -158t156 -60q77 0 129.5 32.5t60.5 82.5h263q-3 -44 -20.5 -88.5t-53.5 -89.5t-86.5 -80t-126.5 -56.5t-165 -21.5z
M380 640h406v9q0 99 -55.5 159.5t-146.5 60.5q-92 0 -148 -60.5t-56 -159.5v-9zM331 1233l-295 358h225l247 -358h-177zM698 1233l-295 358h225l246 -358h-176z" />
    <glyph glyph-name="Einvertedbreve" unicode="&#x206;" horiz-adv-x="1185" 
d="M1058 243v-243h-891v1365h891v-243h-604v-321h568v-225h-568v-333h604zM604 1620q-82 0 -128 -39t-46 -102h-164q0 129 91.5 211t246.5 82t245 -82t90 -211h-161q0 63 -46 102t-128 39z" />
    <glyph glyph-name="einvertedbreve" unicode="&#x207;" horiz-adv-x="1158" 
d="M596 -19q-227 0 -359.5 128.5t-132.5 367.5v113q0 119 37 214t102.5 155.5t151.5 92.5t187 32q213 0 344 -133.5t131 -360.5v-120h-677v-50q0 -98 59 -158t156 -60q77 0 129.5 32.5t60.5 82.5h263q-3 -44 -20.5 -88.5t-53.5 -89.5t-86.5 -80t-126.5 -56.5t-165 -21.5z
M380 640h406v9q0 99 -55.5 159.5t-146.5 60.5q-92 0 -148 -60.5t-56 -159.5v-9zM256 1223q1 133 86.5 225.5t236.5 92.5t236 -92.5t84 -225.5h-160q0 69 -41 116.5t-119 47.5t-119 -47.5t-41 -116.5h-163z" />
    <glyph glyph-name="Idblgrave" unicode="&#x208;" horiz-adv-x="624" 
d="M457 0h-290v1365h290v-1365zM238 1503h-190l-312 296h236zM626 1503h-190l-313 296h237z" />
    <glyph glyph-name="idblgrave" unicode="&#x209;" horiz-adv-x="622" 
d="M171 0v1065h281v-1065h-281zM63 1233l-295 358h225l247 -358h-177zM430 1233l-295 358h225l246 -358h-176z" />
    <glyph glyph-name="Iinvertedbreve" unicode="&#x20a;" horiz-adv-x="624" 
d="M457 0h-290v1365h290v-1365zM312 1620q-82 0 -128 -39t-46 -102h-164q0 129 91.5 211t246.5 82t245 -82t90 -211h-161q0 63 -46 102t-128 39z" />
    <glyph glyph-name="iinvertedbreve" unicode="&#x20b;" horiz-adv-x="622" 
d="M171 0v1065h281v-1065h-281zM-12 1223q1 133 86.5 225.5t236.5 92.5t236 -92.5t84 -225.5h-160q0 69 -41 116.5t-119 47.5t-119 -47.5t-41 -116.5h-163z" />
    <glyph glyph-name="Odblgrave" unicode="&#x20c;" horiz-adv-x="1409" 
d="M630 1503h-190l-312 296h236zM1018 1503h-190l-313 296h237zM1002 767q0 182 -81 278.5t-216 96.5q-136 0 -217 -96.5t-81 -278.5v-170q0 -182 81 -278t217 -96q135 0 216 96.5t81 277.5v170zM1297 598q0 -290 -157 -457t-435 -167t-435.5 167t-157.5 457v166
q0 292 157.5 459t435.5 167t435 -167.5t157 -458.5v-166z" />
    <glyph glyph-name="odblgrave" unicode="&#x20d;" horiz-adv-x="1193" 
d="M598 1084q223 0 357 -134.5t134 -361.5v-104q0 -238 -133 -370.5t-358 -132.5q-228 0 -361 131.5t-133 370.5v104q0 224 135.5 360.5t358.5 136.5zM598 861q-101 0 -155 -79t-54 -197v-104q0 -118 52.5 -197.5t156.5 -79.5q103 0 155 79t52 198v104q0 119 -53 197.5
t-154 78.5zM349 1233l-295 358h225l247 -358h-177zM716 1233l-295 358h225l246 -358h-176z" />
    <glyph glyph-name="Oinvertedbreve" unicode="&#x20e;" horiz-adv-x="1409" 
d="M704 1620q-82 0 -128 -39t-46 -102h-164q0 129 91.5 211t246.5 82t245 -82t90 -211h-161q0 63 -46 102t-128 39zM1002 767q0 182 -81 278.5t-216 96.5q-136 0 -217 -96.5t-81 -278.5v-170q0 -182 81 -278t217 -96q135 0 216 96.5t81 277.5v170zM1297 598
q0 -290 -157 -457t-435 -167t-435.5 167t-157.5 457v166q0 292 157.5 459t435.5 167t435 -167.5t157 -458.5v-166z" />
    <glyph glyph-name="oinvertedbreve" unicode="&#x20f;" horiz-adv-x="1193" 
d="M598 1084q223 0 357 -134.5t134 -361.5v-104q0 -238 -133 -370.5t-358 -132.5q-228 0 -361 131.5t-133 370.5v104q0 224 135.5 360.5t358.5 136.5zM598 861q-101 0 -155 -79t-54 -197v-104q0 -118 52.5 -197.5t156.5 -79.5q103 0 155 79t52 198v104q0 119 -53 197.5
t-154 78.5zM274 1223q1 133 86.5 225.5t236.5 92.5t236 -92.5t84 -225.5h-160q0 69 -41 116.5t-119 47.5t-119 -47.5t-41 -116.5h-163z" />
    <glyph glyph-name="Rdblgrave" unicode="&#x210;" horiz-adv-x="1322" 
d="M567 1503h-190l-312 296h236zM955 1503h-190l-313 296h237zM723 1365q230 0 358 -119t128 -321q0 -144 -73.5 -245t-173.5 -139l274 -541h-322l-237 497h-225v-497h-285v1365h556zM452 717h225q109 0 171.5 52t62.5 152q0 102 -63 157.5t-167 55.5h-229v-417z" />
    <glyph glyph-name="rdblgrave" unicode="&#x211;" horiz-adv-x="863" 
d="M161 0v1065h282v-168h14q8 30 27 60t49.5 58.5t79 46.5t106.5 18q54 0 88 -8v-252q-32 12 -108 12q-124 0 -186.5 -64.5t-62.5 -175.5v-592h-289zM208 1233l-295 358h225l247 -358h-177zM575 1233l-295 358h225l246 -358h-176z" />
    <glyph glyph-name="Rinvertedbreve" unicode="&#x212;" horiz-adv-x="1322" 
d="M723 1365q230 0 358 -119t128 -321q0 -144 -73.5 -245t-173.5 -139l274 -541h-322l-237 497h-225v-497h-285v1365h556zM452 717h225q109 0 171.5 52t62.5 152q0 102 -63 157.5t-167 55.5h-229v-417zM641 1620q-82 0 -128 -39t-46 -102h-164q0 129 91.5 211t246.5 82
t245 -82t90 -211h-161q0 63 -46 102t-128 39z" />
    <glyph glyph-name="rinvertedbreve" unicode="&#x213;" horiz-adv-x="863" 
d="M161 0v1065h282v-168h14q8 30 27 60t49.5 58.5t79 46.5t106.5 18q54 0 88 -8v-252q-32 12 -108 12q-124 0 -186.5 -64.5t-62.5 -175.5v-592h-289zM133 1223q1 133 86.5 225.5t236.5 92.5t236 -92.5t84 -225.5h-160q0 69 -41 116.5t-119 47.5t-119 -47.5t-41 -116.5h-163z
" />
    <glyph glyph-name="Udblgrave" unicode="&#x214;" horiz-adv-x="1419" 
d="M636 1503h-190l-312 296h236zM1024 1503h-190l-313 296h237zM710 229q123 0 195.5 71.5t72.5 203.5v861h290v-893q0 -226 -151.5 -362t-406.5 -136t-406.5 136t-151.5 362v893h289v-861q0 -133 72.5 -204t196.5 -71z" />
    <glyph glyph-name="udblgrave" unicode="&#x215;" horiz-adv-x="1253" 
d="M1101 1065v-1065h-274v178h-15q-11 -34 -35 -66t-61 -62t-93 -48t-123 -18q-165 0 -259.5 91t-94.5 275v715h281v-639q0 -109 52 -153.5t132 -44.5q88 0 148.5 57.5t60.5 150.5v629h281zM378 1233l-295 358h225l247 -358h-177zM745 1233l-295 358h225l246 -358h-176z" />
    <glyph glyph-name="Uinvertedbreve" unicode="&#x216;" horiz-adv-x="1419" 
d="M710 229q123 0 195.5 71.5t72.5 203.5v861h290v-893q0 -226 -151.5 -362t-406.5 -136t-406.5 136t-151.5 362v893h289v-861q0 -133 72.5 -204t196.5 -71zM710 1620q-82 0 -128 -39t-46 -102h-164q0 129 91.5 211t246.5 82t245 -82t90 -211h-161q0 63 -46 102t-128 39z
" />
    <glyph glyph-name="uinvertedbreve" unicode="&#x217;" horiz-adv-x="1253" 
d="M1101 1065v-1065h-274v178h-15q-11 -34 -35 -66t-61 -62t-93 -48t-123 -18q-165 0 -259.5 91t-94.5 275v715h281v-639q0 -109 52 -153.5t132 -44.5q88 0 148.5 57.5t60.5 150.5v629h281zM303 1223q1 133 86.5 225.5t236.5 92.5t236 -92.5t84 -225.5h-160q0 69 -41 116.5
t-119 47.5t-119 -47.5t-41 -116.5h-163z" />
    <glyph glyph-name="Scommaaccent" unicode="&#x218;" horiz-adv-x="1269" 
d="M85 394h278q7 -80 80 -132.5t192 -52.5t183 47t64 124q0 65 -50 102.5t-158 61.5l-205 45q-167 37 -259.5 131.5t-92.5 251.5q0 191 143 305.5t374 114.5q120 0 218 -33.5t161.5 -90t98 -130.5t35.5 -157h-270q-6 78 -70.5 128.5t-173.5 50.5q-105 0 -166 -46.5
t-61 -119.5q0 -112 186 -150l207 -45q85 -18 149.5 -46.5t115.5 -74t77.5 -113t26.5 -155.5q0 -197 -144 -316.5t-403 -119.5q-133 0 -237 34t-167.5 93t-96.5 133.5t-35 159.5zM627 -479h-185l83 324h212z" />
    <glyph glyph-name="scommaaccent" unicode="&#x219;" horiz-adv-x="1089" 
d="M113 748q0 87 35 153.5t96.5 105.5t137.5 58t165 19q186 0 299 -83t113 -233h-248q-6 49 -49.5 84.5t-119.5 35.5q-74 0 -117.5 -32t-43.5 -85q0 -17 5 -31.5t17 -25.5t24 -20t32.5 -16.5t35.5 -12.5t41 -10t40.5 -7.5t42.5 -7t39 -6.5q160 -27 247 -96.5t87 -205.5
q0 -164 -122 -257.5t-340 -93.5q-205 0 -321.5 86.5t-116.5 231.5h273q7 -56 52 -88.5t126 -32.5q88 0 132 33.5t44 86.5q0 16 -4 29t-14 24t-19.5 19t-28 15.5t-31 12t-38 10t-39.5 8.5t-44 8t-45 8q-78 15 -134.5 36.5t-106.5 57t-76 91.5t-26 131zM549 -479h-185l83 324
h212z" />
    <glyph glyph-name="Tcommaaccent" unicode="&#x21a;" horiz-adv-x="1136" 
d="M573 -479h-185l83 324h212zM713 0h-290v1115h-382v250h1054v-250h-382v-1115z" />
    <glyph glyph-name="tcommaaccent" unicode="&#x21b;" horiz-adv-x="842" 
d="M477 -479h-185l83 324h212zM237 1051v264h273v-264h235v-222h-235v-481q0 -73 35 -102t116 -29q54 0 92 4v-214q-63 -12 -161 -12q-199 0 -280 70.5t-81 236.5v527h-162v222h168z" />
    <glyph glyph-name="Hcaron" unicode="&#x21e;" horiz-adv-x="1464" 
d="M1297 0h-290v571h-550v-571h-290v1365h290v-546h550v546h290v-1365zM365 1725h227l134 -116h15l124 116h229l-240 -230h-235z" />
    <glyph glyph-name="hcaron" unicode="&#x21f;" horiz-adv-x="1262" 
d="M156 0v1455h281v-576h14q10 33 31.5 65t57.5 64.5t95 52.5t131 20q161 0 256.5 -96t95.5 -278v-707h-281v628q0 108 -52 158t-136 50q-96 0 -154 -67t-58 -180v-589h-281zM-71 1815h227l134 -116h15l124 116h229l-240 -230h-235z" />
    <glyph glyph-name="Adotaccent" unicode="&#x226;" horiz-adv-x="1324" 
d="M330 0h-291l452 1365h344l450 -1365h-308l-100 331h-445zM662 1086h-13l-160 -534h332zM529 1624q0 58 38.5 97.5t93.5 39.5q56 0 95 -39.5t39 -97.5q0 -56 -39 -95.5t-95 -39.5q-55 0 -93.5 39.5t-38.5 95.5z" />
    <glyph glyph-name="adotaccent" unicode="&#x227;" horiz-adv-x="1157" 
d="M449 -16q-157 0 -253.5 87.5t-96.5 237.5q0 147 99 233t280 86h256v92q0 70 -44.5 106.5t-122.5 36.5q-143 0 -164 -110h-265q4 68 30 125t76.5 103.5t134 73t193.5 26.5q95 0 172 -20t138.5 -62t95.5 -115.5t34 -172.5v-711h-265v133h-13q-34 -65 -105 -107t-180 -42z
M543 194q79 0 135 45t56 114v107h-191q-81 0 -123 -35.5t-42 -94.5q0 -65 48 -100.5t117 -35.5zM445 1392q0 58 38.5 97.5t93.5 39.5q56 0 95 -39.5t39 -97.5q0 -57 -39 -96t-95 -39q-55 0 -93.5 39t-38.5 96z" />
    <glyph glyph-name="Ecedilla" unicode="&#x228;" horiz-adv-x="1185" 
d="M524 0h-357v1365h891v-243h-604v-321h568v-225h-568v-333h604v-243h-372l-46 -115q88 0 140 -45t52 -124q0 -99 -66.5 -147.5t-181.5 -50.5q-84 -1 -146 16v128q47 -14 111 -14q109 0 109 58q0 34 -30 46t-98 12h-55v108z" />
    <glyph glyph-name="ecedilla" unicode="&#x229;" horiz-adv-x="1158" 
d="M380 640h406v9q0 99 -55.5 160t-146.5 61t-147.5 -61t-56.5 -160v-9zM585 -482q-87 -1 -146 16v128q47 -14 111 -14q109 0 109 58q0 34 -30.5 46t-98.5 12h-55v108l44 113q-194 21 -304.5 148t-110.5 344v113q0 119 37 214t102.5 155.5t151.5 92.5t187 32
q213 0 344 -133.5t131 -360.5v-120h-677v-49q0 -99 59 -159t156 -60q77 0 129.5 32.5t60.5 82.5h263q-4 -49 -27 -99.5t-65.5 -99t-114 -84t-160.5 -47.5l-40 -102q88 0 140 -45t52 -124q0 -98 -66.5 -147t-181.5 -51z" />
    <glyph glyph-name="Odieresismacron" unicode="&#x22a;" horiz-adv-x="1409" 
d="M1002 767q0 182 -81 278.5t-216 96.5q-136 0 -217 -96.5t-81 -278.5v-170q0 -182 81 -278t217 -96q135 0 216 96.5t81 277.5v170zM1297 598q0 -290 -157 -457t-435 -167t-435.5 167t-157.5 457v166q0 292 157.5 459t435.5 167t435 -167.5t157 -458.5v-166zM898 1459
q-56 0 -89.5 33t-33.5 87t33.5 87t89.5 33q58 0 92.5 -33t34.5 -87t-34.5 -87t-92.5 -33zM508 1459q-55 0 -89.5 33.5t-34.5 86.5q0 54 34 87t90 33q57 0 91 -33t34 -87t-34 -87t-91 -33zM1019 1775h-630v140h630v-140z" />
    <glyph glyph-name="odieresismacron" unicode="&#x22b;" horiz-adv-x="1193" 
d="M799 1210q-57 0 -93 35t-36 90q0 57 36 92t93 35q61 0 97.5 -35t36.5 -92q0 -56 -37 -90.5t-97 -34.5zM393 1210q-58 0 -94.5 34.5t-36.5 90.5q0 57 36 92t95 35t95.5 -35t36.5 -92q0 -56 -36.5 -90.5t-95.5 -34.5zM914 1591h-634v147h634v-147zM598 1084
q223 0 357 -134.5t134 -361.5v-104q0 -238 -133 -370.5t-358 -132.5q-228 0 -361 131.5t-133 370.5v104q0 224 135.5 360.5t358.5 136.5zM598 861q-101 0 -155 -79t-54 -197v-104q0 -118 52.5 -197.5t156.5 -79.5q103 0 155 79t52 198v104q0 119 -53 197.5t-154 78.5z" />
    <glyph glyph-name="Otildemacron" unicode="&#x22c;" horiz-adv-x="1409" 
d="M1019 1776h-630v139h630v-139zM835 1459q-46 0 -85 17.5t-60.5 38t-47.5 38t-50 17.5q-34 0 -51.5 -29t-19.5 -67h-139q0 92 51 160.5t148 68.5q45 0 85.5 -17.5t64 -38t51.5 -38t52 -17.5q34 0 51.5 27t18.5 68h139q0 -98 -57 -163t-151 -65zM1002 767q0 182 -81 278.5
t-216 96.5q-136 0 -217 -96.5t-81 -278.5v-170q0 -182 81 -278t217 -96q135 0 216 96.5t81 277.5v170zM1297 598q0 -290 -157 -457t-435 -167t-435.5 167t-157.5 457v166q0 292 157.5 459t435.5 167t435 -167.5t157 -458.5v-166z" />
    <glyph glyph-name="otildemacron" unicode="&#x22d;" horiz-adv-x="1193" 
d="M727 1188q-36 0 -66 13t-50.5 31t-38.5 36t-38 31t-41 13q-66 0 -72 -110h-151q0 119 53 197t156 78q47 0 85.5 -19.5t59.5 -42.5t46.5 -42.5t48.5 -19.5q61 0 67 110h150q0 -116 -55 -195.5t-154 -79.5zM914 1591h-634v146h634v-146zM598 1084q223 0 357 -134.5
t134 -361.5v-104q0 -238 -133 -370.5t-358 -132.5q-228 0 -361 131.5t-133 370.5v104q0 224 135.5 360.5t358.5 136.5zM598 861q-101 0 -155 -79t-54 -197v-104q0 -118 52.5 -197.5t156.5 -79.5q103 0 155 79t52 198v104q0 119 -53 197.5t-154 78.5z" />
    <glyph glyph-name="Odotaccent" unicode="&#x22e;" horiz-adv-x="1409" 
d="M571 1624q0 58 38.5 97.5t93.5 39.5q56 0 95 -39.5t39 -97.5q0 -56 -39 -95.5t-95 -39.5q-55 0 -93.5 39.5t-38.5 95.5zM1002 767q0 182 -81 278.5t-216 96.5q-136 0 -217 -96.5t-81 -278.5v-170q0 -182 81 -278t217 -96q135 0 216 96.5t81 277.5v170zM1297 598
q0 -290 -157 -457t-435 -167t-435.5 167t-157.5 457v166q0 292 157.5 459t435.5 167t435 -167.5t157 -458.5v-166z" />
    <glyph glyph-name="odotaccent" unicode="&#x22f;" horiz-adv-x="1193" 
d="M464 1392q0 58 38.5 97.5t93.5 39.5q56 0 95 -39.5t39 -97.5q0 -57 -39 -96t-95 -39q-55 0 -93.5 39t-38.5 96zM598 1084q223 0 357 -134.5t134 -361.5v-104q0 -238 -133 -370.5t-358 -132.5q-228 0 -361 131.5t-133 370.5v104q0 224 135.5 360.5t358.5 136.5zM598 861
q-101 0 -155 -79t-54 -197v-104q0 -118 52.5 -197.5t156.5 -79.5q103 0 155 79t52 198v104q0 119 -53 197.5t-154 78.5z" />
    <glyph glyph-name="Odotaccentmacron" unicode="&#x230;" horiz-adv-x="1409" 
d="M578 1572q0 54 36 90.5t89 36.5q54 0 90.5 -36.5t36.5 -90.5q0 -53 -36.5 -88.5t-90.5 -35.5q-53 0 -89 35.5t-36 88.5zM1019 1770h-630v140h630v-140zM1002 767q0 182 -81 278.5t-216 96.5q-136 0 -217 -96.5t-81 -278.5v-170q0 -182 81 -278t217 -96q135 0 216 96.5
t81 277.5v170zM1297 598q0 -290 -157 -457t-435 -167t-435.5 167t-157.5 457v166q0 292 157.5 459t435.5 167t435 -167.5t157 -458.5v-166z" />
    <glyph glyph-name="odotaccentmacron" unicode="&#x231;" horiz-adv-x="1193" 
d="M598 1084q223 0 357 -134.5t134 -361.5v-104q0 -238 -133 -370.5t-358 -132.5q-228 0 -361 131.5t-133 370.5v104q0 224 135.5 360.5t358.5 136.5zM598 861q-101 0 -155 -79t-54 -197v-104q0 -118 52.5 -197.5t156.5 -79.5q103 0 155 79t52 198v104q0 119 -53 197.5
t-154 78.5zM462 1348q0 58 38.5 97.5t93.5 39.5q56 0 95 -39.5t39 -97.5q0 -57 -39 -96t-95 -39q-55 0 -93.5 39t-38.5 96zM914 1591h-634v147h634v-147z" />
    <glyph glyph-name="Ymacron" unicode="&#x232;" horiz-adv-x="1218" 
d="M754 0h-290v496l-457 869h319l281 -570h12l281 570h311l-457 -862v-503zM923 1497h-630v140h630v-140z" />
    <glyph glyph-name="ymacron" unicode="&#x233;" horiz-adv-x="1151" 
d="M1099 1065q-339 -1011 -343 -1024l-27 -72q-30 -82 -64 -139.5t-86.5 -107t-129 -74t-177.5 -24.5q-85 0 -152 12v207q31 -7 88 -7q94 0 136.5 33.5t54.5 101.5l9 31l-363 1063h310l214 -820h12l219 820h299zM892 1239h-634v147h634v-147z" />
    <glyph glyph-name="quoteright" unicode="&#x2019;" horiz-adv-x="640" 
d="M360 769h-230l90 596h290z" />
    <glyph glyph-name="quoteright" unicode="&#x2bc;" horiz-adv-x="640" 
d="M360 769h-230l90 596h290z" />
    <glyph glyph-name="circumflex" unicode="&#x2c6;" horiz-adv-x="1000" 
d="M153 1224l251 350h201l250 -350h-216l-129 206h-11l-129 -206h-217z" />
    <glyph glyph-name="caron" unicode="&#x2c7;" horiz-adv-x="1000" 
d="M147 1572h214l133 -210h10l121 210h219l-241 -349h-203z" />
    <glyph glyph-name="breve" unicode="&#x2d8;" horiz-adv-x="1000" 
d="M180 1535h163q0 -69 40.5 -116.5t118.5 -47.5t119 47.5t41 116.5h160q0 -133 -84.5 -225.5t-235.5 -92.5t-237 92.5t-85 225.5z" />
    <glyph glyph-name="dotaccent" unicode="&#x2d9;" horiz-adv-x="1000" 
d="M367 1392q0 58 38.5 97.5t93.5 39.5q56 0 95 -39.5t39 -97.5q0 -57 -39 -96t-95 -39q-55 0 -93.5 39t-38.5 96z" />
    <glyph glyph-name="ring" unicode="&#x2da;" horiz-adv-x="1000" 
d="M494 1216q-93 0 -156 60.5t-63 154.5q0 93 62.5 153t156.5 60t156.5 -60t62.5 -153q0 -94 -62.5 -154.5t-156.5 -60.5zM401 1430q0 -40 26.5 -66t66.5 -26t66 26t26 66q0 39 -26 65t-66 26t-66.5 -26t-26.5 -65z" />
    <glyph glyph-name="ogonek" unicode="&#x2db;" horiz-adv-x="1000" 
d="M700 -206v-160q-65 -25 -152 -25q-109 0 -172.5 54.5t-63.5 145.5q0 45 16 89t47.5 84t57 66.5t64.5 61.5h160q-41 -36 -69.5 -65.5t-55 -76t-26.5 -88.5q0 -48 32 -72.5t81 -24.5q40 0 81 11z" />
    <glyph glyph-name="tilde" unicode="&#x2dc;" horiz-adv-x="1000" 
d="M618 1222q-36 0 -66 13t-50.5 31t-38.5 36t-38 31t-41 13q-66 0 -72 -110h-151q0 119 53 197t156 78q47 0 85.5 -19.5t59.5 -42.5t46.5 -42.5t48.5 -19.5q62 0 66 111h151q0 -117 -55.5 -196.5t-153.5 -79.5z" />
    <glyph glyph-name="hungarumlaut" unicode="&#x2dd;" horiz-adv-x="1000" 
d="M272 1237h-176l247 358h224zM641 1237h-176l247 358h224z" />
    <glyph glyph-name="gravecmb" unicode="&#x300;" horiz-adv-x="0" 
d="M127 1233h-205l-280 352h248z" />
    <glyph glyph-name="acutecmb" unicode="&#x301;" horiz-adv-x="0" 
d="M-118 1233l237 352h248l-280 -352h-205z" />
    <glyph glyph-name="circumflexcmb" unicode="&#x302;" horiz-adv-x="0" 
d="M-351 1224l251 350h201l250 -350h-216l-129 206h-11l-129 -206h-217z" />
    <glyph glyph-name="tildecmb" unicode="&#x303;" horiz-adv-x="0" 
d="M130 1222q-36 0 -66 13t-50.5 31t-38.5 36t-38 31t-41 13q-66 0 -72 -110h-151q0 119 53 197t156 78q47 0 85.5 -19.5t59.5 -42.5t46.5 -42.5t48.5 -19.5q62 0 66 111h151q0 -117 -55.5 -196.5t-153.5 -79.5z" />
    <glyph glyph-name="macroncmb" unicode="&#x304;" horiz-adv-x="0" 
d="M317 1239h-634v147h634v-147z" />
    <glyph glyph-name="brevecmb" unicode="&#x306;" horiz-adv-x="0" 
d="M-322 1535h163q0 -69 40.5 -116.5t118.5 -47.5t119 47.5t41 116.5h160q0 -133 -84.5 -225.5t-235.5 -92.5t-237 92.5t-85 225.5z" />
    <glyph glyph-name="dotaccentcmb" unicode="&#x307;" horiz-adv-x="0" 
d="M-133 1392q0 58 38.5 97.5t93.5 39.5q56 0 95 -39.5t39 -97.5q0 -57 -39 -96t-95 -39q-55 0 -93.5 39t-38.5 96z" />
    <glyph glyph-name="dieresiscmb" unicode="&#x308;" horiz-adv-x="0" 
d="M202 1210q-57 0 -93 35t-36 90q0 57 36 92t93 35q61 0 97.5 -35t36.5 -92q0 -56 -37 -90.5t-97 -34.5zM-204 1210q-58 0 -94.5 34.5t-36.5 90.5q0 57 36 92t95 35t95.5 -35t36.5 -92q0 -56 -36.5 -90.5t-95.5 -34.5z" />
    <glyph glyph-name="hookabovecmb" unicode="&#x309;" horiz-adv-x="0" 
d="M-147 1448v131q49 19 117 19q106 0 170.5 -51.5t64.5 -142.5q0 -81 -44 -130t-127 -92l-82 101q50 29 71.5 52t21.5 51q0 34 -27.5 55t-73.5 21q-45 0 -91 -14z" />
    <glyph glyph-name="ringcmb" unicode="&#x30a;" horiz-adv-x="0" 
d="M0 1216q-93 0 -156 60.5t-63 154.5q0 93 62.5 153t156.5 60t156.5 -60t62.5 -153q0 -94 -62.5 -154.5t-156.5 -60.5zM-93 1430q0 -40 26.5 -66t66.5 -26t66 26t26 66q0 39 -26 65t-66 26t-66.5 -26t-26.5 -65z" />
    <glyph glyph-name="hungarumlautcmb" unicode="&#x30b;" horiz-adv-x="0" 
d="M-127 1237h-176l247 358h224zM242 1237h-176l247 358h224z" />
    <glyph glyph-name="caroncmb" unicode="&#x30c;" horiz-adv-x="0" 
d="M-351 1572h214l133 -210h10l121 210h219l-241 -349h-203z" />
    <glyph glyph-name="dblgravecmb" unicode="&#x30f;" horiz-adv-x="0" 
d="M-248 1233l-295 358h225l247 -358h-177zM119 1233l-295 358h225l246 -358h-176z" />
    <glyph glyph-name="invertedbrevecmb" unicode="&#x311;" horiz-adv-x="0" 
d="M-323 1223q1 133 86.5 225.5t236.5 92.5t236 -92.5t84 -225.5h-160q0 69 -41 116.5t-119 47.5t-119 -47.5t-41 -116.5h-163z" />
    <glyph glyph-name="horncmb" unicode="&#x31b;" horiz-adv-x="0" 
d="M-244 880v213q33 -20 72 -19q50 4 70 34t20 85v158h224v-193q0 -130 -62.5 -215.5t-189.5 -85.5q-95 0 -134 23z" />
    <glyph glyph-name="dotbelowcmb" unicode="&#x323;" horiz-adv-x="0" 
d="M-127 -247q0 55 36.5 91.5t90.5 36.5t90.5 -36.5t36.5 -91.5q0 -54 -36.5 -90.5t-90.5 -36.5t-90.5 36.5t-36.5 90.5z" />
    <glyph glyph-name="dieresisbelowcmb" unicode="&#x324;" horiz-adv-x="0" 
d="M202 -383q-57 0 -93 35t-36 90q0 57 36 92t93 35q61 0 97.5 -35t36.5 -92q0 -56 -37 -90.5t-97 -34.5zM-204 -383q-58 0 -94.5 34.5t-36.5 90.5q0 57 36 92t95 35t95.5 -35t36.5 -92q0 -56 -36.5 -90.5t-95.5 -34.5z" />
    <glyph glyph-name="ringbelowcmb" unicode="&#x325;" horiz-adv-x="0" 
d="M0 -511q-93 0 -156 60.5t-63 154.5q0 93 62.5 153t156.5 60t156.5 -60t62.5 -153q0 -94 -62.5 -154.5t-156.5 -60.5zM-93 -297q0 -40 26.5 -66t66.5 -26t66 26t26 66q0 39 -26 65t-66 26t-66.5 -26t-26.5 -65z" />
    <glyph glyph-name="commabelowcmb" unicode="&#x326;" horiz-adv-x="0" 
d="M5 -479h-185l83 324h212z" />
    <glyph glyph-name="cedillacmb" unicode="&#x327;" horiz-adv-x="0" 
d="M-117 -236v108l51 133h162l-48 -120q88 0 140 -45t52 -124q0 -99 -66.5 -147.5t-181.5 -50.5q-84 -1 -146 16v128q47 -14 111 -14q109 0 109 58q0 34 -30 46t-98 12h-55z" />
    <glyph glyph-name="ogonekcmb" unicode="&#x328;" horiz-adv-x="0" 
d="M175 -206v-160q-65 -25 -152 -25q-109 0 -172.5 54.5t-63.5 145.5q0 45 16 89t47.5 84t57 66.5t64.5 61.5h160q-41 -36 -69.5 -65.5t-55 -76t-26.5 -88.5q0 -48 32 -72.5t81 -24.5q40 0 81 11z" />
    <glyph glyph-name="circumflexbelowcmb" unicode="&#x32d;" horiz-adv-x="0" 
d="M-364 -382l269 248h192l264 -248h-223l-133 124h-11l-137 -124h-221z" />
    <glyph glyph-name="brevebelowcmb" unicode="&#x32e;" horiz-adv-x="0" 
d="M164 -125h161q0 -87 -35 -157.5t-110 -115.5t-180 -45q-157 0 -244.5 91.5t-87.5 226.5h168q0 -69 42 -116.5t122 -47.5t122 47.5t42 116.5z" />
    <glyph glyph-name="tildebelowcmb" unicode="&#x330;" horiz-adv-x="0" 
d="M132 -384q-47 0 -87 18t-62.5 40t-49.5 40t-50 18q-35 0 -50.5 -30t-16.5 -64h-154q0 100 55 170t150 70q46 0 86.5 -18t64 -40t52.5 -40t54 -18q34 0 53.5 28t20.5 72h154q0 -103 -61 -174.5t-159 -71.5z" />
    <glyph glyph-name="macronbelowcmb" unicode="&#x331;" horiz-adv-x="0" 
d="M317 -346h-634v147h634v-147z" />
    <glyph glyph-name="greekquestionmark" unicode="&#x37e;" horiz-adv-x="644" 
d="M145 812q0 82 52 131.5t129 49.5q79 0 131.5 -50t52.5 -131q0 -80 -52.5 -129t-131.5 -49q-77 0 -129 49t-52 129zM297 -409h-228l110 647h294z" />
    <glyph glyph-name="tonosgreek" unicode="&#x384;" horiz-adv-x="935" 
d="M293 1210l101 388h248l-159 -388h-190z" />
    <glyph glyph-name="dieresistonosgreek" unicode="&#x385;" horiz-adv-x="1235" 
d="M933 1210q-58 0 -93.5 34.5t-35.5 90.5q0 57 35.5 92t93.5 35q60 0 96.5 -35t36.5 -92q0 -56 -36.5 -90.5t-96.5 -34.5zM291 1210q-58 0 -94.5 34.5t-36.5 90.5q0 57 36 92t95 35t95.5 -35t36.5 -92q0 -56 -36.5 -90.5t-95.5 -34.5zM491 1210l41 388h243l-99 -388h-185z
" />
    <glyph glyph-name="Alphatonosgreek" unicode="&#x386;" horiz-adv-x="1441" 
d="M447 0h-291l452 1365h344l450 -1365h-308l-100 331h-445zM779 1086h-13l-160 -534h332zM78 977l101 388h248l-159 -388h-190z" />
    <glyph glyph-name="anoteleia" unicode="&#x387;" horiz-adv-x="661" 
d="M149 884q0 82 51.5 131.5t129.5 49.5q79 0 131 -50t52 -131t-52 -129.5t-131 -48.5q-77 0 -129 49t-52 129z" />
    <glyph glyph-name="Epsilontonosgreek" unicode="&#x388;" horiz-adv-x="1548" 
d="M65 977l101 388h248l-159 -388h-190zM1421 243v-243h-891v1365h891v-243h-604v-321h568v-225h-568v-333h604z" />
    <glyph glyph-name="Etatonosgreek" unicode="&#x389;" horiz-adv-x="1826" 
d="M65 977l101 388h248l-159 -388h-190zM1660 0h-290v571h-550v-571h-290v1365h290v-546h550v546h290v-1365z" />
    <glyph glyph-name="Iotatonosgreek" unicode="&#x38a;" horiz-adv-x="986" 
d="M820 0h-290v1365h290v-1365zM65 977l101 388h248l-159 -388h-190z" />
    <glyph glyph-name="Omicrontonosgreek" unicode="&#x38c;" horiz-adv-x="1674" 
d="M1268 767q0 182 -81 278.5t-216 96.5q-136 0 -217 -96.5t-81 -278.5v-170q0 -182 81 -278t217 -96q135 0 216 96.5t81 277.5v170zM1563 598q0 -290 -157 -457t-435 -167t-435.5 167t-157.5 457v166q0 292 157.5 459t435.5 167t435 -167.5t157 -458.5v-166zM65 977
l101 388h248l-159 -388h-190z" />
    <glyph glyph-name="Upsilontonosgreek" unicode="&#x38e;" horiz-adv-x="1696" 
d="M65 977l101 388h248l-159 -388h-190zM1233 0h-290v496l-457 869h319l281 -570h12l281 570h311l-457 -862v-503z" />
    <glyph glyph-name="Omegatonosgreek" unicode="&#x38f;" horiz-adv-x="1737" 
d="M1088 0v306q88 28 149 141.5t61 261.5v72q0 174 -83 267.5t-218 93.5q-136 0 -218.5 -94t-82.5 -267v-72q0 -147 60 -260.5t150 -142.5v-306h-533v254h240v17q-92 54 -151.5 173.5t-59.5 267.5v76q0 286 159 444t436 158q278 0 436.5 -158t158.5 -444v-76
q0 -148 -60 -268.5t-151 -172.5v-17h240v-254h-533zM65 977l101 388h248l-159 -388h-190z" />
    <glyph glyph-name="iotadieresistonosgreek" unicode="&#x390;" horiz-adv-x="713" 
d="M150 1065h279v-717q0 -73 33 -102t113 -29q50 0 88 4v-214q-66 -12 -156 -12q-196 0 -276.5 68.5t-80.5 238.5v763zM629 1210q-58 0 -93.5 34.5t-35.5 90.5q0 57 35.5 92t93.5 35q60 0 96.5 -35t36.5 -92q0 -56 -36.5 -90.5t-96.5 -34.5zM-13 1210q-58 0 -94.5 34.5
t-36.5 90.5q0 57 36 92t95 35t95.5 -35t36.5 -92q0 -56 -36.5 -90.5t-95.5 -34.5zM187 1210l41 388h243l-99 -388h-185z" />
    <glyph glyph-name="Alphagreek" unicode="&#x391;" horiz-adv-x="1324" 
d="M330 0h-291l452 1365h344l450 -1365h-308l-100 331h-445zM662 1086h-13l-160 -534h332z" />
    <glyph glyph-name="Betagreek" unicode="&#x392;" horiz-adv-x="1318" 
d="M167 0v1365h581q186 0 297.5 -90t111.5 -245q0 -123 -65.5 -199.5t-171.5 -99.5v-13q129 -11 217 -97t88 -235q0 -180 -132 -283t-343 -103h-583zM454 1146v-342h172q247 0 247 174q0 78 -51 123t-143 45h-225zM454 603v-384h193q284 0 284 189q0 91 -61 143t-175 52
h-241z" />
    <glyph glyph-name="Gammagreek" unicode="&#x393;" horiz-adv-x="1109" 
d="M457 0h-290v1365h863v-246h-573v-1119z" />
    <glyph glyph-name="Deltagreek" unicode="&#x394;" horiz-adv-x="1335" 
d="M1262 154v-154h-1189v154l423 1211h344zM666 1076h-14l-282 -855h577z" />
    <glyph glyph-name="Epsilongreek" unicode="&#x395;" horiz-adv-x="1222" 
d="M1058 243v-243h-891v1365h891v-243h-604v-321h568v-225h-568v-333h604z" />
    <glyph glyph-name="Zetagreek" unicode="&#x396;" horiz-adv-x="1235" 
d="M110 0v195l646 911v15h-630v244h980v-195l-644 -910v-16h664v-244h-1016z" />
    <glyph glyph-name="Etagreek" unicode="&#x397;" horiz-adv-x="1464" 
d="M1297 0h-290v571h-550v-571h-290v1365h290v-546h550v546h290v-1365z" />
    <glyph glyph-name="Thetagreek" unicode="&#x398;" horiz-adv-x="1469" 
d="M402 770v-182q0 -175 90.5 -267.5t241.5 -92.5q152 0 242.5 92t90.5 268v182q0 177 -90.5 271.5t-242.5 94.5q-153 0 -242.5 -94.5t-89.5 -271.5zM112 595v166q0 297 167.5 463t455.5 166t455 -166.5t167 -462.5v-166q0 -294 -167.5 -457.5t-456.5 -163.5t-455 163.5
t-166 457.5zM957 565h-445v236h445v-236z" />
    <glyph glyph-name="Iotagreek" unicode="&#x399;" horiz-adv-x="624" 
d="M457 0h-290v1365h290v-1365z" />
    <glyph glyph-name="Kappagreek" unicode="&#x39a;" horiz-adv-x="1325" 
d="M1286 1365l-483 -590l503 -775h-346l-369 574l-134 -150v-424h-290v1365h290v-595h13l501 595h315z" />
    <glyph glyph-name="Lambdagreek" unicode="&#x39b;" horiz-adv-x="1294" 
d="M945 0l-299 1044h-14l-304 -1044h-289l437 1365h344l435 -1365h-310z" />
    <glyph glyph-name="Mugreek" unicode="&#x39c;" horiz-adv-x="1692" 
d="M428 0h-258v1365h296l376 -827h10l377 827h294v-1365h-261v876h-14l-312 -686h-181l-313 686h-14v-876z" />
    <glyph glyph-name="Nugreek" unicode="&#x39d;" horiz-adv-x="1437" 
d="M439 0h-272v1365h237l582 -854h12v854h272v-1365h-236l-583 861h-12v-861z" />
    <glyph glyph-name="Xigreek" unicode="&#x39e;" horiz-adv-x="1226" 
d="M127 1115v250h972v-250h-972zM214 571v233h799v-233h-799zM127 0v250h972v-250h-972z" />
    <glyph glyph-name="Omicrongreek" unicode="&#x39f;" horiz-adv-x="1409" 
d="M1002 767q0 182 -81 278.5t-216 96.5q-136 0 -217 -96.5t-81 -278.5v-170q0 -182 81 -278t217 -96q135 0 216 96.5t81 277.5v170zM1297 598q0 -290 -157 -457t-435 -167t-435.5 167t-157.5 457v166q0 292 157.5 459t435.5 167t435 -167.5t157 -458.5v-166z" />
    <glyph glyph-name="Pigreek" unicode="&#x3a0;" horiz-adv-x="1444" 
d="M457 1118v-1118h-290v1365h1110v-1365h-290v1118h-530z" />
    <glyph glyph-name="Rhogreek" unicode="&#x3a1;" horiz-adv-x="1259" 
d="M723 1365q146 0 253.5 -63.5t160.5 -167.5t53 -234q0 -201 -125 -331t-345 -130h-264v-439h-289v1365h556zM896 900q0 110 -61.5 169.5t-171.5 59.5h-208v-458h208q109 0 171 60t62 169z" />
    <glyph glyph-name="Sigmagreek" unicode="&#x3a3;" horiz-adv-x="1220" 
d="M1111 0h-1001v173l363 514l-357 483v195h985v-244h-612v-15l293 -397v-31l-302 -418v-16h631v-244z" />
    <glyph glyph-name="Taugreek" unicode="&#x3a4;" horiz-adv-x="1136" 
d="M713 0h-290v1115h-382v250h1054v-250h-382v-1115z" />
    <glyph glyph-name="Upsilongreek" unicode="&#x3a5;" horiz-adv-x="1218" 
d="M754 0h-290v496l-457 869h319l281 -570h12l281 570h311l-457 -862v-503z" />
    <glyph glyph-name="Phigreek" unicode="&#x3a6;" horiz-adv-x="1684" 
d="M973 -86h-262v124q-192 5 -330.5 84t-208.5 215.5t-70 318.5v42q0 277 160 444t449 174v132h262v-132q290 -7 449.5 -174t159.5 -444v-42q0 -182 -70 -318.5t-208.5 -215.5t-330.5 -84v-124zM716 266v823q-152 -6 -239.5 -106.5t-87.5 -272.5v-68q0 -174 88.5 -271.5
t238.5 -104.5zM968 266q150 7 238.5 104.5t88.5 271.5v68q0 173 -87 273t-240 106v-823z" />
    <glyph glyph-name="Chigreek" unicode="&#x3a7;" horiz-adv-x="1259" 
d="M1241 1365l-431 -683l425 -682h-330l-280 464h-13l-280 -464h-313l418 687l-415 678h340l271 -474h13l269 474h326z" />
    <glyph glyph-name="Psigreek" unicode="&#x3a8;" horiz-adv-x="1607" 
d="M667 0v284q-515 19 -515 496v585h274v-588q0 -131 57.5 -189.5t183.5 -64.5v842h274v-842q126 7 183.5 65t57.5 189v588h274v-585q0 -477 -515 -496v-284h-274z" />
    <glyph glyph-name="Omegagreek" unicode="&#x3a9;" horiz-adv-x="1482" 
d="M832 0v306q88 28 149 141.5t61 261.5v72q0 174 -83 267.5t-218 93.5q-136 0 -218.5 -94t-82.5 -267v-72q0 -147 60 -260.5t150 -142.5v-306h-533v254h240v17q-92 54 -151.5 173.5t-59.5 267.5v76q0 286 159 444t436 158q278 0 436.5 -158t158.5 -444v-76
q0 -148 -60 -268.5t-151 -172.5v-17h240v-254h-533z" />
    <glyph glyph-name="Iotadieresisgreek" unicode="&#x3aa;" horiz-adv-x="624" 
d="M457 0h-290v1365h290v-1365zM506 1459q-56 0 -89.5 33t-33.5 87t33.5 87t89.5 33q58 0 92.5 -33t34.5 -87t-34.5 -87t-92.5 -33zM116 1459q-55 0 -89.5 33.5t-34.5 86.5q0 54 34 87t90 33q57 0 91 -33t34 -87t-34 -87t-91 -33z" />
    <glyph glyph-name="Upsilondieresisgreek" unicode="&#x3ab;" horiz-adv-x="1218" 
d="M754 0h-290v496l-457 869h319l281 -570h12l281 570h311l-457 -862v-503zM802 1459q-56 0 -89.5 33t-33.5 87t33.5 87t89.5 33q58 0 92.5 -33t34.5 -87t-34.5 -87t-92.5 -33zM412 1459q-55 0 -89.5 33.5t-34.5 86.5q0 54 34 87t90 33q57 0 91 -33t34 -87t-34 -87t-91 -33z
" />
    <glyph glyph-name="alphatonosgreek" unicode="&#x3ac;" horiz-adv-x="1322" 
d="M508 -13q-184 0 -289 126.5t-105 372.5v89q0 244 104.5 373.5t289.5 129.5q230 0 299 -190h13v177h273v-732q0 -70 15.5 -94.5t61.5 -24.5q28 0 54 6v-213q-45 -15 -124 -15q-220 0 -264 163l-8 25h-13q-31 -87 -113 -140t-194 -53zM606 217q100 0 152.5 71.5t52.5 198.5
v100q0 119 -54.5 189t-152.5 70q-97 0 -149 -72t-52 -200v-83q0 -131 53 -202.5t150 -71.5zM489 1210l101 388h248l-159 -388h-190z" />
    <glyph glyph-name="epsilontonosgreek" unicode="&#x3ad;" horiz-adv-x="1183" 
d="M523 1210l101 388h248l-159 -388h-190zM579 -19q-221 0 -337 81.5t-116 224.5q0 177 176 245v14q-149 52 -149 222q0 144 116.5 230t338.5 86q231 0 346.5 -89.5t133.5 -264.5h-257q-18 73 -72 105t-151 32q-89 0 -135 -32.5t-46 -87.5q0 -110 167 -110h141v-205h-145
q-176 0 -176 -114q0 -56 48.5 -88t139.5 -32q103 0 164.5 43t82.5 121h268q-32 -179 -168.5 -280t-369.5 -101z" />
    <glyph glyph-name="etatonosgreek" unicode="&#x3ae;" horiz-adv-x="1323" 
d="M224 0v735q0 64 -21 90t-75 26q-22 0 -48 -6v214q60 14 126 14q118 0 179.5 -48.5t87.5 -150.5l4 -16h14q35 108 116.5 165.5t201.5 57.5q184 0 275.5 -99.5t91.5 -276.5v-1042h-281v963q0 103 -47 156.5t-138 53.5q-92 0 -148.5 -66.5t-56.5 -178.5v-591h-281zM472 1210
l101 388h248l-159 -388h-190z" />
    <glyph glyph-name="iotatonosgreek" unicode="&#x3af;" horiz-adv-x="713" 
d="M150 1065h279v-717q0 -73 33 -102t113 -29q50 0 88 4v-214q-66 -12 -156 -12q-196 0 -276.5 68.5t-80.5 238.5v763zM189 1210l101 388h248l-159 -388h-190z" />
    <glyph glyph-name="upsilondieresistonosgreek" unicode="&#x3b0;" horiz-adv-x="1200" 
d="M900 1210q-58 0 -93.5 34.5t-35.5 90.5q0 57 35.5 92t93.5 35q60 0 96.5 -35t36.5 -92q0 -56 -36.5 -90.5t-96.5 -34.5zM258 1210q-58 0 -94.5 34.5t-36.5 90.5q0 57 36 92t95 35t95.5 -35t36.5 -92q0 -56 -36.5 -90.5t-95.5 -34.5zM458 1210l41 388h243l-99 -388h-185z
M590 -16q-215 0 -328.5 108t-113.5 326v647h267v-599q0 -128 43 -183t142 -55q207 0 207 320q0 283 -92 517h273q91 -187 91 -512q0 -283 -126 -426t-363 -143z" />
    <glyph glyph-name="alphagreek" unicode="&#x3b1;" horiz-adv-x="1322" 
d="M508 -13q-184 0 -289 126.5t-105 372.5v89q0 244 104.5 373.5t289.5 129.5q230 0 299 -190h13v177h273v-732q0 -70 15.5 -94.5t61.5 -24.5q28 0 54 6v-213q-45 -15 -124 -15q-220 0 -264 163l-8 25h-13q-31 -87 -113 -140t-194 -53zM606 217q100 0 152.5 71.5t52.5 198.5
v100q0 119 -54.5 189t-152.5 70q-97 0 -149 -72t-52 -200v-83q0 -131 53 -202.5t150 -71.5z" />
    <glyph glyph-name="betagreek" unicode="&#x3b2;" horiz-adv-x="1280" 
d="M154 -351v1331q0 252 121.5 376t350.5 124q214 0 327 -99.5t113 -275.5q0 -104 -49 -184.5t-135 -118.5v-14q286 -65 286 -381q0 -191 -109.5 -305.5t-301.5 -114.5q-107 0 -190 47t-117 130h-14v-515h-282zM663 213q99 0 158 60t59 162q0 233 -273 233h-60v215h67
q102 0 148 46.5t46 138.5q0 89 -47.5 139t-132.5 50q-100 0 -146.5 -62t-46.5 -189v-521q0 -272 228 -272z" />
    <glyph glyph-name="gammagreek" unicode="&#x3b3;" horiz-adv-x="1194" 
d="M442 -351v282l-392 1134h288l257 -819h12q112 180 160.5 326t48.5 302q0 114 -20 191h272q20 -66 20 -193q0 -416 -369 -910v-313h-277z" />
    <glyph glyph-name="deltagreek" unicode="&#x3b4;" horiz-adv-x="1183" 
d="M586 -19q-225 0 -355 126t-130 369v23q0 180 92.5 297t249.5 152v14q-98 49 -139.5 107.5t-41.5 139.5q0 126 101.5 198.5t274.5 72.5q209 0 346 -79v-206q-145 76 -317 76q-125 0 -125 -88q0 -37 28.5 -65t112.5 -72q225 -131 309.5 -248t84.5 -301v-22
q0 -235 -133 -364.5t-358 -129.5zM589 193q103 0 156.5 69.5t53.5 205.5v45q0 137 -56 204t-152 67q-101 0 -156.5 -67t-55.5 -205v-44q0 -137 55.5 -206t154.5 -69z" />
    <glyph glyph-name="epsilongreek" unicode="&#x3b5;" horiz-adv-x="1183" 
d="M579 -19q-221 0 -337 81.5t-116 224.5q0 177 176 245v14q-149 52 -149 222q0 144 116.5 230t338.5 86q231 0 346.5 -89.5t133.5 -264.5h-257q-18 73 -72 105t-151 32q-89 0 -135 -32.5t-46 -87.5q0 -110 167 -110h141v-205h-145q-176 0 -176 -114q0 -56 48.5 -88
t139.5 -32q103 0 164.5 43t82.5 121h268q-32 -179 -168.5 -280t-369.5 -101z" />
    <glyph glyph-name="zetagreek" unicode="&#x3b6;" horiz-adv-x="972" 
d="M606 -310q67 99 67 170q0 54 -33.5 86t-149.5 85q-217 101 -304.5 213.5t-87.5 291.5q0 178 104.5 350.5t308.5 318.5v10h-358v240h771v-213q-301 -217 -422 -370.5t-121 -310.5q0 -107 53 -170.5t208 -137.5q176 -84 237.5 -152t61.5 -172q0 -144 -134 -339z" />
    <glyph glyph-name="etagreek" unicode="&#x3b7;" horiz-adv-x="1323" 
d="M224 0v735q0 64 -21 90t-75 26q-22 0 -48 -6v214q60 14 126 14q118 0 179.5 -48.5t87.5 -150.5l4 -16h14q35 108 116.5 165.5t201.5 57.5q184 0 275.5 -99.5t91.5 -276.5v-1042h-281v963q0 103 -47 156.5t-138 53.5q-92 0 -148.5 -66.5t-56.5 -178.5v-591h-281z" />
    <glyph glyph-name="thetagreek" unicode="&#x3b8;" horiz-adv-x="1238" 
d="M619 -19q-244 0 -374.5 166.5t-130.5 499.5v187q0 314 130 480t375 166q244 0 374.5 -166.5t130.5 -479.5v-187q0 -328 -127 -497t-378 -169zM619 198q78 0 126.5 36.5t74.5 128t26 246.5h-454q0 -154 26.5 -246t75 -128.5t125.5 -36.5zM845 837q-1 165 -28 260t-74 130
t-124 35t-124 -35t-74 -130t-28 -260h452z" />
    <glyph glyph-name="iotagreek" unicode="&#x3b9;" horiz-adv-x="713" 
d="M150 1065h279v-717q0 -73 33 -102t113 -29q50 0 88 4v-214q-66 -12 -156 -12q-196 0 -276.5 68.5t-80.5 238.5v763z" />
    <glyph glyph-name="kappagreek" unicode="&#x3ba;" horiz-adv-x="1200" 
d="M154 0v1065h253v-472h13l273 312q82 96 141.5 132t141.5 36q63 0 117 -15v-213q-25 6 -58 6q-47 0 -77 -16t-68 -59l-135 -153l384 -623h-271l-287 455l-174 -194v-261h-253z" />
    <glyph glyph-name="lambdagreek" unicode="&#x3bb;" horiz-adv-x="1218" 
d="M58 0l416 988l-29 82q-44 115 -85 151.5t-121 36.5q-37 0 -64 -6v214q50 14 125 14q76 0 127.5 -15.5t98 -59.5t84.5 -118t81 -197l280 -783q19 -55 43 -74t71 -19q9 0 48 6v-213q-53 -15 -125 -15q-111 0 -168.5 41.5t-95.5 156.5l-145 415h-13l-244 -605h-284z" />
    <glyph glyph-name="mugreek" unicode="&#x3bc;" horiz-adv-x="1342" 
d="M154 -351v1416h281v-627q0 -99 47.5 -154.5t135.5 -55.5q93 0 149 60t56 150v627h281v-732q0 -67 18.5 -93t67.5 -26q24 0 50 6v-213q-56 -15 -129 -15q-100 0 -163 42t-79 124l-3 16h-15q-56 -190 -238 -190q-109 0 -163 72h-14v-407h-282z" />
    <glyph glyph-name="nugreek" unicode="&#x3bd;" horiz-adv-x="1194" 
d="M419 0l-369 1065h288l257 -819h12q112 180 160.5 326t48.5 302q0 114 -20 191h272q20 -66 20 -193q0 -204 -82.5 -414t-260.5 -458h-326z" />
    <glyph glyph-name="xigreek" unicode="&#x3be;" horiz-adv-x="1027" 
d="M619 -310q68 99 68 170q0 52 -34.5 84.5t-153.5 86.5q-231 106 -314.5 189t-83.5 212q0 103 61 178.5t176 103.5v14q-179 62 -179 236q0 186 196 238v13h-183v240h764v-213l-113 -14q-211 -25 -300.5 -74.5t-89.5 -129.5q0 -74 58 -110t197 -36h179v-225h-191
q-146 0 -219 -42.5t-73 -119.5q0 -47 20.5 -77.5t79.5 -68.5t192 -104q164 -82 221 -146.5t57 -167.5q0 -147 -134 -337z" />
    <glyph glyph-name="omicrongreek" unicode="&#x3bf;" horiz-adv-x="1178" 
d="M590 1084q220 0 352 -134.5t132 -361.5v-104q0 -238 -131 -370.5t-353 -132.5q-227 0 -356.5 131t-129.5 371v104q0 224 133.5 360.5t352.5 136.5zM590 861q-97 0 -149 -79t-52 -197v-104q0 -119 50.5 -198t150.5 -79t150 79t50 198v104q0 119 -51 197.5t-149 78.5z" />
    <glyph glyph-name="pigreek" unicode="&#x3c0;" horiz-adv-x="1455" 
d="M299 0v825h-211v240h1264v-240h-211v-486q0 -68 22.5 -96.5t78.5 -28.5q23 0 57 6v-212q-56 -15 -138 -15q-149 0 -219 70t-70 221v541h-304v-825h-269z" />
    <glyph glyph-name="rhogreek" unicode="&#x3c1;" horiz-adv-x="1240" 
d="M144 -351v925q0 245 128.5 374.5t362.5 129.5q243 0 368 -130.5t125 -360.5v-108q0 -232 -103.5 -362t-288.5 -130q-111 0 -186.5 47t-109.5 130h-14v-515h-282zM636 217q97 0 150 68t53 204v85q0 135 -52.5 204t-153.5 69q-98 0 -152.5 -69t-54.5 -198v-113
q0 -116 57 -183t153 -67z" />
    <glyph glyph-name="sigmafinalgreek" unicode="&#x3c2;" horiz-adv-x="1117" 
d="M611 -310q68 101 68 170q0 54 -34 86t-150 85q-218 102 -303.5 220t-85.5 321q0 237 128 374.5t350 137.5q201 0 322 -105t125 -283h-258q-10 75 -55 116.5t-124 41.5q-99 0 -152 -67.5t-53 -204.5q0 -123 50.5 -188.5t208.5 -140.5q176 -83 237 -151t61 -173
q0 -144 -134 -339z" />
    <glyph glyph-name="sigmagreek" unicode="&#x3c3;" horiz-adv-x="1306" 
d="M593 -19q-230 0 -359 132t-129 372v55q0 245 143 385t384 140h592v-240h-248v-15q49 -49 76.5 -126.5t27.5 -168.5v-47q0 -227 -134 -357t-353 -130zM595 204q100 0 154.5 72.5t54.5 200.5v75q0 124 -54.5 198.5t-150.5 74.5q-95 0 -152 -72.5t-57 -198.5v-75
q0 -128 55 -201.5t150 -73.5z" />
    <glyph glyph-name="taugreek" unicode="&#x3c4;" horiz-adv-x="1096" 
d="M745 -5q-197 0 -279.5 69t-82.5 238v523h-310v240h930v-240h-341v-477q0 -73 35 -102t116 -29q55 0 93 4v-214q-66 -12 -161 -12z" />
    <glyph glyph-name="upsilongreek" unicode="&#x3c5;" horiz-adv-x="1200" 
d="M590 -16q-215 0 -328.5 108t-113.5 326v647h267v-599q0 -128 43 -183t142 -55q207 0 207 320q0 283 -92 517h273q91 -187 91 -512q0 -283 -126 -426t-363 -143z" />
    <glyph glyph-name="phigreek" unicode="&#x3c6;" horiz-adv-x="1535" 
d="M638 -351v332q-255 7 -398.5 145.5t-143.5 377.5v57q0 243 145 379t397 144v231h260v-231q251 -8 396 -144t145 -379v-57q0 -239 -143 -377.5t-398 -145.5v-332h-260zM891 199q271 9 271 334q0 324 -271 333v-667zM644 199v667q-270 -9 -270 -333q0 -325 270 -334z" />
    <glyph glyph-name="chigreek" unicode="&#x3c7;" horiz-adv-x="1209" 
d="M79 -351l384 705l-188 355q-46 86 -78.5 114.5t-82.5 28.5q-23 0 -53 -8v214q64 16 125 16q109 0 169 -41t117 -156l143 -283h13l240 471h278l-391 -723l192 -359q36 -68 68 -94t77 -26q25 0 53 10v-213q-64 -19 -123 -19q-103 0 -164.5 41t-112.5 141l-143 278h-13
l-230 -452h-280z" />
    <glyph glyph-name="psigreek" unicode="&#x3c8;" horiz-adv-x="1566" 
d="M642 -354v338q-246 4 -370 114t-124 338v629h267v-621q0 -216 227 -216v1087h267v-1087q134 2 198.5 83t64.5 253q0 144 -21.5 259t-70.5 242h274q91 -192 91 -514q0 -290 -133 -428.5t-403 -138.5v-338h-267z" />
    <glyph glyph-name="omegagreek" unicode="&#x3c9;" horiz-adv-x="1622" 
d="M1111 -19q-218 0 -294 213h-11q-76 -213 -297 -213q-184 0 -283.5 124t-99.5 381q0 164 45.5 319.5t120.5 259.5h282q-173 -271 -173 -590v-17q0 -134 34.5 -188.5t109.5 -54.5q63 0 100 47t37 135v367h259v-367q0 -88 36.5 -135t99.5 -47q74 0 109 54.5t35 188.5v17
q0 321 -173 590h282q75 -104 120.5 -259.5t45.5 -320.5q0 -258 -100 -381t-285 -123z" />
    <glyph glyph-name="iotadieresisgreek" unicode="&#x3ca;" horiz-adv-x="713" 
d="M150 1065h279v-717q0 -73 33 -102t113 -29q50 0 88 4v-214q-66 -12 -156 -12q-196 0 -276.5 68.5t-80.5 238.5v763zM487 1210q-57 0 -93 35t-36 90q0 57 36 92t93 35q61 0 97.5 -35t36.5 -92q0 -56 -37 -90.5t-97 -34.5zM81 1210q-58 0 -94.5 34.5t-36.5 90.5q0 57 36 92
t95 35t95.5 -35t36.5 -92q0 -56 -36.5 -90.5t-95.5 -34.5z" />
    <glyph glyph-name="upsilondieresisgreek" unicode="&#x3cb;" horiz-adv-x="1200" 
d="M774 1210q-57 0 -93 35t-36 90q0 57 36 92t93 35q61 0 97.5 -35t36.5 -92q0 -56 -37 -90.5t-97 -34.5zM368 1210q-58 0 -94.5 34.5t-36.5 90.5q0 57 36 92t95 35t95.5 -35t36.5 -92q0 -56 -36.5 -90.5t-95.5 -34.5zM590 -16q-215 0 -328.5 108t-113.5 326v647h267v-599
q0 -128 43 -183t142 -55q207 0 207 320q0 283 -92 517h273q91 -187 91 -512q0 -283 -126 -426t-363 -143z" />
    <glyph glyph-name="omicrontonosgreek" unicode="&#x3cc;" horiz-adv-x="1178" 
d="M590 1084q220 0 352 -134.5t132 -361.5v-104q0 -238 -131 -370.5t-353 -132.5q-227 0 -356.5 131t-129.5 371v104q0 224 133.5 360.5t352.5 136.5zM590 861q-97 0 -149 -79t-52 -197v-104q0 -119 50.5 -198t150.5 -79t150 79t50 198v104q0 119 -51 197.5t-149 78.5z
M489 1210l101 388h248l-159 -388h-190z" />
    <glyph glyph-name="upsilontonosgreek" unicode="&#x3cd;" horiz-adv-x="1200" 
d="M476 1210l101 388h248l-159 -388h-190zM590 -16q-215 0 -328.5 108t-113.5 326v647h267v-599q0 -128 43 -183t142 -55q207 0 207 320q0 283 -92 517h273q91 -187 91 -512q0 -283 -126 -426t-363 -143z" />
    <glyph glyph-name="omegatonosgreek" unicode="&#x3ce;" horiz-adv-x="1622" 
d="M1111 -19q-218 0 -294 213h-11q-76 -213 -297 -213q-184 0 -283.5 124t-99.5 381q0 164 45.5 319.5t120.5 259.5h282q-173 -271 -173 -590v-17q0 -134 34.5 -188.5t109.5 -54.5q63 0 100 47t37 135v367h259v-367q0 -88 36.5 -135t99.5 -47q74 0 109 54.5t35 188.5v17
q0 321 -173 590h282q75 -104 120.5 -259.5t45.5 -320.5q0 -258 -100 -381t-285 -123zM715 1210l101 388h248l-159 -388h-190z" />
    <glyph glyph-name="Iocyrillic" unicode="&#x401;" horiz-adv-x="1205" 
d="M807 1459q-56 0 -89.5 33t-33.5 87t33.5 87t89.5 33q58 0 92.5 -33t34.5 -87t-34.5 -87t-92.5 -33zM417 1459q-55 0 -89.5 33.5t-34.5 86.5q0 54 34 87t90 33q57 0 91 -33t34 -87t-34 -87t-91 -33zM1068 243v-243h-891v1365h891v-243h-604v-321h568v-225h-568v-333h604z
" />
    <glyph glyph-name="Djecyrillic" unicode="&#x402;" horiz-adv-x="1569" 
d="M735 764q47 33 131.5 56.5t162.5 23.5q215 0 336 -115t121 -312q0 -198 -117 -316t-312 -118q-106 0 -147 17v231q30 -8 98 -8q83 0 136 51.5t53 133.5q0 93 -59 144t-171 51q-74 0 -140 -22.5t-104 -56.5v-524h-290v1115h-382v250h1054v-250h-382v-351h12z" />
    <glyph glyph-name="Gjecyrillic" unicode="&#x403;" horiz-adv-x="1130" 
d="M478 1502l236 335h241l-282 -335h-195zM467 0h-290v1365h878v-246h-588v-1119z" />
    <glyph glyph-name="Ecyrillic" unicode="&#x404;" horiz-adv-x="1358" 
d="M1248 899h-279q-6 97 -74.5 168t-190.5 71q-126 0 -202.5 -86.5t-86.5 -249.5h481v-224h-482q5 -174 82 -262.5t211 -88.5q123 0 190 67t72 166h279v-11q0 -96 -37 -181.5t-105 -151t-173 -104t-232 -38.5q-273 0 -426 165.5t-153 461.5v160q0 294 154 461.5t426 167.5
q248 0 397 -139t149 -347v-5z" />
    <glyph glyph-name="Dzecyrillic" unicode="&#x405;" horiz-adv-x="1273" 
d="M95 394h278q7 -80 80 -132.5t192 -52.5t183 47t64 124q0 65 -50 102.5t-158 61.5l-205 45q-167 37 -259.5 131.5t-92.5 251.5q0 191 143 305.5t374 114.5q120 0 218 -33.5t161.5 -90t98 -130.5t35.5 -157h-270q-6 78 -70.5 128.5t-173.5 50.5q-105 0 -166 -46.5
t-61 -119.5q0 -112 186 -150l207 -45q85 -18 149.5 -46.5t115.5 -74t77.5 -113t26.5 -155.5q0 -197 -144 -316.5t-403 -119.5q-133 0 -237 34t-167.5 93t-96.5 133.5t-35 159.5z" />
    <glyph glyph-name="Icyrillic" unicode="&#x406;" horiz-adv-x="644" 
d="M467 0h-290v1365h290v-1365z" />
    <glyph glyph-name="Yicyrillic" unicode="&#x407;" horiz-adv-x="642" 
d="M467 0h-290v1365h290v-1365zM516 1459q-56 0 -89.5 33t-33.5 87t33.5 87t89.5 33q58 0 92.5 -33t34.5 -87t-34.5 -87t-92.5 -33zM126 1459q-55 0 -89.5 33.5t-34.5 86.5q0 54 34 87t90 33q57 0 91 -33t34 -87t-34 -87t-91 -33z" />
    <glyph glyph-name="Jecyrillic" unicode="&#x408;" horiz-adv-x="1150" 
d="M62 415h278q2 -79 50 -126.5t125 -47.5q183 0 183 203v921h290v-917q0 -230 -124 -352t-346 -122q-112 0 -200.5 36t-143.5 97.5t-83.5 140t-28.5 167.5z" />
    <glyph glyph-name="Ljecyrillic" unicode="&#x409;" horiz-adv-x="2007" 
d="M151 -17q-72 0 -101 17v259q20 -9 51 -9q98 0 133 131.5t40 468.5l7 515h918v-442h264q147 0 254.5 -61t161.5 -163.5t54 -233.5t-53 -235t-160.5 -167t-253.5 -63h-556v1117h-364l-9 -312q-4 -156 -13.5 -269t-28 -209t-46.5 -157.5t-70 -105t-97.5 -62.5t-130.5 -19z
M1406 692h-210v-456h210q110 0 171.5 59.5t61.5 168.5q0 108 -62 168t-171 60z" />
    <glyph glyph-name="Njecyrillic" unicode="&#x40a;" horiz-adv-x="2114" 
d="M1017 862v503h289v-503h262q221 0 346.5 -118.5t125.5 -309.5q0 -190 -124.5 -312t-344.5 -122h-554v614h-550v-614h-290v1365h290v-503h550zM1518 630h-215v-394h215q108 0 168 50t60 147t-60 147t-168 50z" />
    <glyph glyph-name="Tshecyrillic" unicode="&#x40b;" horiz-adv-x="1626" 
d="M735 764q46 33 131.5 56.5t160.5 23.5q217 0 335.5 -123t118.5 -347v-374h-289v358q0 243 -228 243q-65 0 -133.5 -22.5t-107.5 -57.5v-521h-290v1115h-382v250h1054v-250h-382v-351h12z" />
    <glyph glyph-name="Kjecyrillic" unicode="&#x40c;" horiz-adv-x="1329" 
d="M573 1502l236 335h241l-282 -335h-195zM960 0l-433 582h-65v-582h-290v1365h290v-557h65l444 557h334l-519 -648l523 -717h-349z" />
    <glyph glyph-name="Ushortcyrillic" unicode="&#x40e;" horiz-adv-x="1227" 
d="M799 1773h164q0 -136 -89 -218.5t-249 -82.5q-159 0 -248.5 82t-89.5 219h164q0 -71 44 -112t130 -41t130 41t44 112zM916 1365h299l-435 -980q-94 -214 -196 -308t-262 -94q-68 0 -136 17v244q49 -11 100 -11q63 0 111 27.5t88 93.5l-471 1011h315l296 -689h13z" />
    <glyph glyph-name="Dzhecyrillic" unicode="&#x40f;" horiz-adv-x="1474" 
d="M1007 1365h290v-1365h-431v-286h-257v286h-432v1365h290v-1117h540v1117z" />
    <glyph glyph-name="Acyrillic" unicode="&#x410;" horiz-adv-x="1344" 
d="M340 0h-291l452 1365h344l450 -1365h-308l-100 331h-445zM672 1086h-13l-160 -534h332z" />
    <glyph glyph-name="Becyrillic" unicode="&#x411;" horiz-adv-x="1286" 
d="M1195 434q0 -188 -124.5 -311t-342.5 -123h-551v1365h893v-246h-604v-263h259q220 0 345 -118.5t125 -303.5zM465 236h213q105 0 164 51.5t59 145.5q0 93 -59 145t-164 52h-213v-394z" />
    <glyph glyph-name="Vecyrillic" unicode="&#x412;" horiz-adv-x="1338" 
d="M177 0v1365h581q186 0 297.5 -90t111.5 -245q0 -123 -65.5 -199.5t-171.5 -99.5v-13q129 -11 217 -97t88 -235q0 -180 -132 -283t-343 -103h-583zM464 1146v-342h172q247 0 247 174q0 78 -51 123t-143 45h-225zM464 603v-384h193q284 0 284 189q0 91 -61 143t-175 52
h-241z" />
    <glyph glyph-name="Gecyrillic" unicode="&#x413;" horiz-adv-x="1130" 
d="M467 0h-290v1365h878v-246h-588v-1119z" />
    <glyph glyph-name="Decyrillic" unicode="&#x414;" horiz-adv-x="1485" 
d="M975 248v869h-416l-12 -309q-9 -238 -28 -357t-72 -189v-14h528zM293 -286h-258v534h111q79 54 104 176t35 426l16 515h959v-1117h170v-534h-258v286h-879v-286z" />
    <glyph glyph-name="Iecyrillic" unicode="&#x415;" horiz-adv-x="1205" 
d="M1068 243v-243h-891v1365h891v-243h-604v-321h568v-225h-568v-333h604z" />
    <glyph glyph-name="Zhecyrillic" unicode="&#x416;" horiz-adv-x="1944" 
d="M1432 715l488 -715h-340l-400 582h-66v-582h-280v582h-66l-400 -582h-334l482 705l-493 660h334l410 -557h67v557h280v-557h67l410 557h328z" />
    <glyph glyph-name="Zecyrillic" unicode="&#x417;" horiz-adv-x="1260" 
d="M453 589v227h169q96 0 155 46.5t59 123.5q0 79 -60 127.5t-155 48.5q-101 0 -164 -55.5t-67 -140.5h-268q6 189 138.5 306.5t365.5 117.5q223 0 357 -104t134 -266q0 -117 -74 -197t-194 -98v-16q135 -13 222 -101.5t87 -215.5q0 -191 -145 -304.5t-389 -113.5
q-234 0 -376.5 120.5t-147.5 312.5h264q5 -88 76.5 -144t185.5 -56q112 0 178.5 52.5t66.5 140.5q0 90 -67 139.5t-183 49.5h-168z" />
    <glyph glyph-name="Iicyrillic" unicode="&#x418;" horiz-adv-x="1484" 
d="M1027 0v902h-13l-572 -902h-265v1365h280v-901h14l571 901h265v-1365h-280z" />
    <glyph glyph-name="Iishortcyrillic" unicode="&#x419;" horiz-adv-x="1484" 
d="M409 1771h164q0 -71 44 -112t130 -41t130 41t44 112h164q0 -136 -89 -218.5t-249 -82.5q-159 0 -248.5 82t-89.5 219zM1027 0v902h-13l-572 -902h-265v1365h280v-901h14l571 901h265v-1365h-280z" />
    <glyph glyph-name="Kacyrillic" unicode="&#x41a;" horiz-adv-x="1336" 
d="M965 0l-433 582h-65v-582h-290v1365h290v-557h65l444 557h334l-519 -648l523 -717h-349z" />
    <glyph glyph-name="Elcyrillic" unicode="&#x41b;" horiz-adv-x="1394" 
d="M274 850l8 515h935v-1365h-290v1117h-381l-9 -312q-4 -133 -11 -234t-20.5 -189.5t-34 -151t-49 -111.5t-68 -78t-89.5 -43.5t-114 -14.5q-69 0 -101 17v259q21 -9 51 -9q99 0 133 130t40 470z" />
    <glyph glyph-name="Emcyrillic" unicode="&#x41c;" horiz-adv-x="1712" 
d="M438 0h-258v1365h296l376 -827h10l377 827h294v-1365h-261v876h-14l-312 -686h-181l-313 686h-14v-876z" />
    <glyph glyph-name="Encyrillic" unicode="&#x41d;" horiz-adv-x="1484" 
d="M1307 0h-290v571h-550v-571h-290v1365h290v-546h550v546h290v-1365z" />
    <glyph glyph-name="Ocyrillic" unicode="&#x41e;" horiz-adv-x="1429" 
d="M1012 767q0 182 -81 278.5t-216 96.5q-136 0 -217 -96.5t-81 -278.5v-170q0 -182 81 -278t217 -96q135 0 216 96.5t81 277.5v170zM1307 598q0 -290 -157 -457t-435 -167t-435.5 167t-157.5 457v166q0 292 157.5 459t435.5 167t435 -167.5t157 -458.5v-166z" />
    <glyph glyph-name="Pecyrillic" unicode="&#x41f;" horiz-adv-x="1464" 
d="M1287 0h-290v1117h-530v-1117h-290v1365h1110v-1365z" />
    <glyph glyph-name="Ercyrillic" unicode="&#x420;" horiz-adv-x="1279" 
d="M733 1365q146 0 253.5 -63.5t160.5 -167.5t53 -234q0 -201 -125 -331t-345 -130h-264v-439h-289v1365h556zM906 900q0 110 -61.5 169.5t-171.5 59.5h-208v-458h208q109 0 171 60t62 169z" />
    <glyph glyph-name="Escyrillic" unicode="&#x421;" horiz-adv-x="1353" 
d="M417 760v-160q0 -180 74.5 -276.5t212.5 -96.5q119 0 190 71.5t71 183.5h278v-33q0 -210 -153 -342.5t-388 -132.5q-277 0 -428.5 166.5t-151.5 460.5v160q0 293 152.5 461t427.5 168q236 0 388.5 -135.5t152.5 -350.5v-32h-278q0 116 -71.5 191t-189.5 75
q-136 0 -211.5 -99t-75.5 -279z" />
    <glyph glyph-name="Tecyrillic" unicode="&#x422;" horiz-adv-x="1156" 
d="M723 0h-290v1115h-382v250h1054v-250h-382v-1115z" />
    <glyph glyph-name="Ucyrillic" unicode="&#x423;" horiz-adv-x="1227" 
d="M916 1365h299l-435 -980q-94 -214 -196 -308t-262 -94q-68 0 -136 17v244q49 -11 100 -11q63 0 111 27.5t88 93.5l-471 1011h315l296 -689h13z" />
    <glyph glyph-name="Efcyrillic" unicode="&#x424;" horiz-adv-x="1705" 
d="M990 -10h-280v153q-288 11 -445.5 151t-157.5 388v12q0 249 158 391t445 153v137h280v-137q290 -9 449 -149.5t159 -389.5v-11q0 -251 -159 -392.5t-449 -152.5v-153zM389 682q0 -147 83.5 -223.5t242.5 -82.5v629q-158 -7 -242 -85t-84 -226v-12zM1316 699
q0 148 -85 224.5t-246 81.5v-629q160 6 245.5 84.5t85.5 227.5v11z" />
    <glyph glyph-name="Xacyrillic" unicode="&#x425;" horiz-adv-x="1279" 
d="M1251 1365l-431 -683l425 -682h-330l-280 464h-13l-280 -464h-313l418 687l-415 678h340l271 -474h13l269 474h326z" />
    <glyph glyph-name="Tsecyrillic" unicode="&#x426;" horiz-adv-x="1517" 
d="M1292 248h170v-534h-258v286h-202h-825v1365h290v-1117h535v1117h290v-1117z" />
    <glyph glyph-name="Checyrillic" unicode="&#x427;" horiz-adv-x="1426" 
d="M1249 0h-289v574h-13q-25 -15 -59 -30t-106 -32.5t-143 -17.5q-230 0 -356 125t-126 356v390h290v-374q0 -249 253 -249q62 0 123.5 18t91.5 34t45 28v543h289v-1365z" />
    <glyph glyph-name="Shacyrillic" unicode="&#x428;" horiz-adv-x="2014" 
d="M177 0v1365h290v-1117h395v1117h290v-1117h395v1117h290v-1365h-1660z" />
    <glyph glyph-name="Shchacyrillic" unicode="&#x429;" horiz-adv-x="2062" 
d="M2007 -286h-258v286h-1572v1365h290v-1117h395v1117h290v-1117h395v1117h290v-1117h170v-534z" />
    <glyph glyph-name="Hardsigncyrillic" unicode="&#x42a;" horiz-adv-x="1439" 
d="M898 0h-556v1117h-296v248h585v-442h264q147 0 254.5 -61t161.5 -163.5t54 -233.5t-53 -235t-160.5 -167t-253.5 -63zM838 236q110 0 171.5 59.5t61.5 168.5q0 108 -62 168t-171 60h-210v-456h210z" />
    <glyph glyph-name="Yericyrillic" unicode="&#x42b;" horiz-adv-x="1801" 
d="M1197 465q0 -131 -53 -235t-160 -167t-253 -63h-554v1365h289v-442h262q219 0 344 -129t125 -329zM671 692h-208v-456h208q109 0 170.5 59.5t61.5 168.5q0 108 -61.5 168t-170.5 60zM1625 0h-290v1365h290v-1365z" />
    <glyph glyph-name="Softsigncyrillic" unicode="&#x42c;" horiz-adv-x="1274" 
d="M733 0h-556v1365h289v-442h264q147 0 254.5 -61t161.5 -163.5t54 -233.5t-53 -235t-160.5 -167t-253.5 -63zM673 236q110 0 171.5 59.5t61.5 168.5q0 108 -62 168t-171 60h-210v-456h210z" />
    <glyph glyph-name="Ereversedcyrillic" unicode="&#x42d;" horiz-adv-x="1353" 
d="M652 -26q-127 0 -232 38.5t-173 104t-105 151t-37 181.5v11h279q5 -99 72 -166t190 -67q131 0 207 82.5t83 245.5v23h-479v224h479v5q-7 161 -83.5 246t-203.5 85q-122 0 -190.5 -71t-74.5 -168h-279v5q0 208 149 347t397 139q272 0 426 -167.5t154 -461.5v-160
q0 -296 -153 -461.5t-426 -165.5z" />
    <glyph glyph-name="IUcyrillic" unicode="&#x42e;" horiz-adv-x="1931" 
d="M1510 594v170q0 182 -79 280t-209 98q-131 0 -209.5 -98t-78.5 -280v-170q0 -181 78.5 -276t209.5 -95t209.5 95t78.5 276zM467 819h180q15 267 167 419t409 152q273 0 427 -169t154 -460v-166q0 -290 -154.5 -455.5t-428.5 -165.5q-265 0 -417 159t-159 438h-178v-571
h-290v1365h290v-546z" />
    <glyph glyph-name="IAcyrillic" unicode="&#x42f;" horiz-adv-x="1338" 
d="M658 699h218v433h-218q-116 0 -177.5 -58t-61.5 -158q0 -105 62 -161t177 -56zM872 471h-193l-278 -471h-319l313 523q-128 48 -198.5 151t-70.5 241q0 196 129.5 323t359.5 127h546v-1365h-289v471z" />
    <glyph glyph-name="acyrillic" unicode="&#x430;" horiz-adv-x="1167" 
d="M449 -16q-157 0 -253.5 87.5t-96.5 237.5q0 147 99 233t280 86h256v92q0 70 -44.5 106.5t-122.5 36.5q-143 0 -164 -110h-265q4 68 30 125t76.5 103.5t134 73t193.5 26.5q95 0 172 -20t138.5 -62t95.5 -115.5t34 -172.5v-711h-265v133h-13q-34 -65 -105 -107t-180 -42z
M543 194q79 0 135 45t56 114v107h-191q-81 0 -123 -35.5t-42 -94.5q0 -65 48 -100.5t117 -35.5z" />
    <glyph glyph-name="becyrillic" unicode="&#x431;" horiz-adv-x="1203" 
d="M604 796q-103 0 -157.5 -76t-54.5 -195v-45q0 -120 53.5 -198.5t158.5 -78.5q104 0 156.5 78t52.5 199v45q0 120 -53.5 195.5t-155.5 75.5zM674 1011q184 0 304 -127t120 -338v-62q0 -238 -132 -371t-362 -133q-235 0 -365.5 141t-130.5 406v142q0 125 16 228t53 193
t95 154t145.5 105t200.5 52l114 12q109 10 117 52h225q-10 -121 -76 -189.5t-212 -82.5l-129 -14q-158 -15 -229.5 -100.5t-85.5 -262.5h14q85 195 318 195z" />
    <glyph glyph-name="vecyrillic" unicode="&#x432;" horiz-adv-x="1183" 
d="M162 0v1065h528q151 0 243 -71.5t92 -195.5q0 -95 -51.5 -153.5t-133.5 -75.5v-11q102 -9 170 -75.5t68 -180.5q0 -143 -108.5 -222.5t-277.5 -79.5h-530zM437 879v-244h148q171 0 171 128q0 55 -41 85.5t-109 30.5h-169zM437 463v-277h170q194 0 194 137q0 66 -48.5 103
t-134.5 37h-181z" />
    <glyph glyph-name="gecyrillic" unicode="&#x433;" horiz-adv-x="940" 
d="M875 847h-432v-847h-281v1065h713v-218z" />
    <glyph glyph-name="decyrillic" unicode="&#x434;" horiz-adv-x="1284" 
d="M800 218v629h-315l-8 -180q-9 -198 -23.5 -291.5t-49.5 -143.5v-14h396zM273 -285h-245v503h89q58 35 78.5 131t29.5 324l13 392h841v-847h155v-503h-245v285h-716v-285z" />
    <glyph glyph-name="iecyrillic" unicode="&#x435;" horiz-adv-x="1161" 
d="M598 -19q-227 0 -359.5 128.5t-132.5 367.5v113q0 119 37 214t102.5 155.5t151.5 92.5t187 32q213 0 344 -133.5t131 -360.5v-120h-677v-50q0 -98 59 -158t156 -60q77 0 129.5 32.5t60.5 82.5h263q-3 -44 -20.5 -88.5t-53.5 -89.5t-86.5 -80t-126.5 -56.5t-165 -21.5z
M382 640h406v9q0 99 -55.5 159.5t-146.5 60.5q-92 0 -148 -60.5t-56 -159.5v-9z" />
    <glyph glyph-name="zhecyrillic" unicode="&#x436;" horiz-adv-x="1677" 
d="M700 650v415h271v-415h56l270 415h304l-339 -488l365 -577h-315l-280 446h-61v-446h-271v446h-62l-279 -446h-309l360 568l-345 497h309l270 -415h56z" />
    <glyph glyph-name="zecyrillic" unicode="&#x437;" horiz-adv-x="1107" 
d="M548 190q83 0 132.5 35t49.5 94q0 60 -50 93.5t-134 33.5h-121v185h121q72 0 114.5 33t42.5 88q0 56 -44 88.5t-115 32.5q-83 0 -128 -42t-50 -110h-260q7 165 123.5 264t313.5 99q190 0 309 -83t119 -217q0 -85 -54.5 -146.5t-144.5 -75.5v-12q100 -11 165 -78t65 -166
q0 -148 -123.5 -237t-329.5 -89q-209 0 -329 100.5t-123 255.5h259q8 -66 55.5 -106t136.5 -40z" />
    <glyph glyph-name="iicyrillic" unicode="&#x438;" horiz-adv-x="1281" 
d="M852 0v647h-14l-416 -647h-260v1065h267v-647h15l416 647h259v-1065h-267z" />
    <glyph glyph-name="iishortcyrillic" unicode="&#x439;" horiz-adv-x="1281" 
d="M322 1534h165q0 -77 38.5 -122.5t116.5 -45.5t117 45.5t39 122.5h164q0 -139 -83.5 -228.5t-236.5 -89.5q-152 0 -236 89.5t-84 228.5zM852 0v647h-14l-416 -647h-260v1065h267v-647h15l416 647h259v-1065h-267z" />
    <glyph glyph-name="kacyrillic" unicode="&#x43a;" horiz-adv-x="1182" 
d="M807 0l-309 443h-55v-443h-281v1065h281v-414h49l300 414h316l-367 -493l394 -572h-328z" />
    <glyph glyph-name="elcyrillic" unicode="&#x43b;" horiz-adv-x="1193" 
d="M239 677l8 388h807v-1065h-281v847h-280l-5 -195q-3 -100 -7.5 -170t-14 -145t-25 -125t-41 -96.5t-60 -73t-83 -42.5t-110.5 -16q-24 0 -46.5 4t-32.5 8l-10 4v249q21 -8 48 -8q22 0 39.5 7t30.5 23.5t22.5 35.5t16 51t11 61t7 76t4 85t2.5 97z" />
    <glyph glyph-name="emcyrillic" unicode="&#x43c;" horiz-adv-x="1556" 
d="M426 646v-646h-259v1065h323l283 -613h13l284 613h319v-1065h-261v646h-13l-251 -520h-173l-252 520h-13z" />
    <glyph glyph-name="encyrillic" unicode="&#x43d;" horiz-adv-x="1271" 
d="M828 0v437h-385v-437h-281v1065h281v-409h385v409h281v-1065h-281z" />
    <glyph glyph-name="ocyrillic" unicode="&#x43e;" horiz-adv-x="1196" 
d="M600 1084q223 0 357 -134.5t134 -361.5v-104q0 -238 -133 -370.5t-358 -132.5q-228 0 -361 131.5t-133 370.5v104q0 224 135.5 360.5t358.5 136.5zM600 861q-101 0 -155 -79t-54 -197v-104q0 -118 52.5 -197.5t156.5 -79.5q103 0 155 79t52 198v104q0 119 -53 197.5
t-154 78.5z" />
    <glyph glyph-name="pecyrillic" unicode="&#x43f;" horiz-adv-x="1261" 
d="M818 0v847h-375v-847h-281v1065h937v-1065h-281z" />
    <glyph glyph-name="ercyrillic" unicode="&#x440;" horiz-adv-x="1269" 
d="M760 -13q-109 0 -187.5 46.5t-113.5 130.5h-14v-515h-282v1416h278v-169h14q32 85 114 133.5t194 48.5q185 0 289.5 -127t104.5 -353v-130q0 -226 -105.5 -353.5t-291.5 -127.5zM659 217q99 0 154 71.5t55 200.5v85q0 130 -55 201.5t-156 71.5q-99 0 -155.5 -69.5
t-56.5 -190.5v-120q0 -113 58.5 -181.5t155.5 -68.5z" />
    <glyph glyph-name="escyrillic" unicode="&#x441;" horiz-adv-x="1128" 
d="M106 478v118q0 223 130 355.5t350 132.5q204 0 323 -109.5t122 -278.5h-258q-6 64 -50.5 111t-128.5 47q-98 0 -151.5 -70t-53.5 -191v-113q0 -127 54 -198t151 -71q163 0 183 150h258q-4 -171 -120.5 -275.5t-329.5 -104.5q-223 0 -351 132.5t-128 364.5z" />
    <glyph glyph-name="tecyrillic" unicode="&#x442;" horiz-adv-x="1012" 
d="M957 847h-310v-847h-281v847h-311v218h902v-218z" />
    <glyph glyph-name="ucyrillic" unicode="&#x443;" horiz-adv-x="1171" 
d="M1109 1065q-339 -1011 -343 -1024l-27 -72q-30 -82 -64 -139.5t-86.5 -107t-129 -74t-177.5 -24.5q-85 0 -152 12v207q32 -7 88 -7q94 0 136.5 33.5t54.5 101.5l9 31l-363 1063h310l214 -820h12l219 820h299z" />
    <glyph glyph-name="efcyrillic" unicode="&#x444;" horiz-adv-x="1567" 
d="M919 -351h-271v335q-251 5 -396.5 140t-145.5 380v60q0 231 148 371.5t394 145.5v256h271v-256q251 -5 396.5 -140.5t145.5 -380.5v-60q0 -230 -148 -370.5t-394 -145.5v-335zM1187 562q0 127 -68 211.5t-205 90.5v-663q90 4 153 46.5t91.5 107.5t28.5 147v60zM380 502
q0 -126 68 -210.5t205 -90.5v663q-90 -4 -153 -46.5t-91.5 -107.5t-28.5 -148v-60z" />
    <glyph glyph-name="hacyrillic" unicode="&#x445;" horiz-adv-x="1166" 
d="M779 0l-197 347h-11l-198 -347h-298l327 530l-339 535h325l193 -345h12l198 345h309l-346 -527l339 -538h-314z" />
    <glyph glyph-name="tsecyrillic" unicode="&#x446;" horiz-adv-x="1304" 
d="M1254 -285h-245v285h-847v1065h281v-847h375v847h281v-847h155v-503z" />
    <glyph glyph-name="checyrillic" unicode="&#x447;" horiz-adv-x="1221" 
d="M1059 0h-283v426h-14q-91 -84 -271 -84q-169 0 -261.5 98t-92.5 263v362h281v-326q0 -78 43 -122t121 -44q65 0 116.5 22.5t77.5 61.5v408h283v-1065z" />
    <glyph glyph-name="shacyrillic" unicode="&#x448;" horiz-adv-x="1736" 
d="M162 0v1065h276v-847h292v847h276v-847h292v847h276v-1065h-1412z" />
    <glyph glyph-name="shchacyrillic" unicode="&#x449;" horiz-adv-x="1784" 
d="M1734 -285h-245v285h-1327v1065h276v-847h292v847h276v-847h292v847h276v-847h160v-503z" />
    <glyph glyph-name="hardsigncyrillic" unicode="&#x44a;" horiz-adv-x="1228" 
d="M750 0h-462v847h-243v218h524v-329h181q189 0 301 -99.5t112 -268.5t-112 -268.5t-301 -99.5zM704 520h-139v-304h140q80 0 128.5 42t48.5 111t-48.5 110t-129.5 41z" />
    <glyph glyph-name="yericyrillic" unicode="&#x44b;" horiz-adv-x="1595" 
d="M1152 0v1065h281v-1065h-281zM579 520h-139v-304h139q81 0 129.5 42t48.5 111t-48.5 110t-129.5 41zM162 0v1065h281v-329h179q189 0 301 -99.5t112 -268.5t-112 -268.5t-301 -99.5h-460z" />
    <glyph glyph-name="softsigncyrillic" unicode="&#x44c;" horiz-adv-x="1103" 
d="M579 520h-139v-304h139q81 0 129.5 42t48.5 111t-48.5 110t-129.5 41zM162 0v1065h281v-329h181q190 0 301.5 -99.5t111.5 -268.5t-111.5 -268.5t-301.5 -99.5h-462z" />
    <glyph glyph-name="ereversedcyrillic" unicode="&#x44d;" horiz-adv-x="1130" 
d="M544 -19q-199 0 -318.5 94.5t-132.5 262.5h260q25 -127 181 -127q91 0 144.5 58.5t60.5 162.5v16h-352v175h352v5q-5 105 -58.5 165.5t-145.5 60.5q-82 0 -125 -39.5t-54 -95.5h-260q10 158 128.5 261.5t318.5 103.5q222 0 352 -133.5t130 -354.5v-118
q0 -236 -129.5 -366.5t-351.5 -130.5z" />
    <glyph glyph-name="iucyrillic" unicode="&#x44e;" horiz-adv-x="1655" 
d="M1068 -19q-207 0 -334 115t-141 325v16h-150v-437h-281v1065h281v-409h152q17 195 145.5 311.5t327.5 116.5q218 0 349.5 -134.5t131.5 -361.5v-104q0 -238 -130 -370.5t-351 -132.5zM1068 861q-96 0 -147.5 -79t-51.5 -197v-104q0 -118 50 -197.5t149 -79.5
q66 0 111.5 39.5t65.5 100.5t20 137v104q0 119 -50.5 197.5t-146.5 78.5z" />
    <glyph glyph-name="iacyrillic" unicode="&#x44f;" horiz-adv-x="1180" 
d="M582 551h155v301h-155q-81 0 -129.5 -41.5t-48.5 -109.5q0 -69 48.5 -109.5t129.5 -40.5zM737 0v352h-113l-234 -352h-307l268 403q-106 33 -164.5 114t-58.5 196q0 158 112.5 255t300.5 97h477v-1065h-281z" />
    <glyph glyph-name="iocyrillic" unicode="&#x451;" horiz-adv-x="1161" 
d="M598 -19q-227 0 -359.5 128.5t-132.5 367.5v113q0 119 37 214t102.5 155.5t151.5 92.5t187 32q213 0 344 -133.5t131 -360.5v-120h-677v-50q0 -98 59 -158t156 -60q77 0 129.5 32.5t60.5 82.5h263q-3 -44 -20.5 -88.5t-53.5 -89.5t-86.5 -80t-126.5 -56.5t-165 -21.5z
M382 640h406v9q0 99 -55.5 159.5t-146.5 60.5q-92 0 -148 -60.5t-56 -159.5v-9zM783 1210q-57 0 -93 35t-36 90q0 57 36 92t93 35q61 0 97.5 -35t36.5 -92q0 -56 -37 -90.5t-97 -34.5zM377 1210q-58 0 -94.5 34.5t-36.5 90.5q0 57 36 92t95 35t95.5 -35t36.5 -92
q0 -56 -36.5 -90.5t-95.5 -34.5z" />
    <glyph glyph-name="djecyrillic" unicode="&#x452;" horiz-adv-x="1273" 
d="M847 -7v635q0 108 -52 158t-136 50q-96 0 -154 -67t-58 -180v-589h-281v1162h-112v163h123v130h261v-130h235v-163h-226v-283h14q10 32 31.5 64.5t58 65t95.5 52.5t130 20q161 0 256.5 -96t95.5 -278v-717q0 -178 -96.5 -265t-266.5 -87q-67 0 -111 7v207q28 -4 57 -4
q69 0 102.5 34t33.5 111z" />
    <glyph glyph-name="gjecyrillic" unicode="&#x453;" horiz-adv-x="941" 
d="M374 1233l237 352h248l-280 -352h-205zM875 847h-432v-847h-281v1065h713v-218z" />
    <glyph glyph-name="ecyrillic" unicode="&#x454;" horiz-adv-x="1132" 
d="M1038 338q-13 -168 -133 -262.5t-318 -94.5q-222 0 -351.5 130.5t-129.5 366.5v118q0 221 130 354.5t352 133.5q200 0 318.5 -103.5t127.5 -261.5h-259q-11 56 -54 95.5t-125 39.5q-93 0 -146 -60.5t-59 -165.5v-5h352v-175h-351v-16q6 -104 60 -162.5t144 -58.5
q155 0 182 127h260z" />
    <glyph glyph-name="dzecyrillic" unicode="&#x455;" horiz-adv-x="1098" 
d="M118 748q0 87 35 153.5t96.5 105.5t137.5 58t165 19q186 0 299 -83t113 -233h-248q-6 49 -49.5 84.5t-119.5 35.5q-74 0 -117.5 -32t-43.5 -85q0 -17 5 -31.5t17 -25.5t24 -20t32.5 -16.5t35.5 -12.5t41 -10t40.5 -7.5t42.5 -7t39 -6.5q160 -27 247 -96.5t87 -205.5
q0 -164 -122 -257.5t-340 -93.5q-205 0 -321.5 86.5t-116.5 231.5h273q7 -56 52 -88.5t126 -32.5q88 0 132 33.5t44 86.5q0 16 -4 29t-14 24t-19.5 19t-28 15.5t-31 12t-38 10t-39.5 8.5t-44 8t-45 8q-78 15 -134.5 36.5t-106.5 57t-76 91.5t-26 131z" />
    <glyph glyph-name="icyrillic" unicode="&#x456;" horiz-adv-x="642" 
d="M181 0v1065h281v-1065h-281zM148 1374q0 69 47.5 111.5t124.5 42.5q78 0 126.5 -42.5t48.5 -111.5t-48 -111t-127 -42q-77 0 -124.5 42t-47.5 111z" />
    <glyph glyph-name="yicyrillic" unicode="&#x457;" horiz-adv-x="633" 
d="M516 1211q-64 0 -104.5 39t-40.5 101q0 63 40.5 102.5t104.5 39.5q67 0 108.5 -39t41.5 -103q0 -62 -41.5 -101t-108.5 -39zM114 1211q-65 0 -106 39t-41 101q0 64 41 103t106 39q66 0 107 -39.5t41 -102.5q0 -62 -41 -101t-107 -39zM176 0v1065h281v-1065h-281z" />
    <glyph glyph-name="jecyrillic" unicode="&#x458;" horiz-adv-x="642" 
d="M148 1374q0 69 47.5 111.5t124.5 42.5q78 0 126.5 -42.5t48.5 -111.5t-48 -111t-127 -42q-77 0 -124.5 42t-47.5 111zM461 1065v-1075q0 -174 -94 -263t-268 -89q-68 0 -112 7v207q28 -4 57 -4q73 0 105 35t32 110v1072h280z" />
    <glyph glyph-name="ljecyrillic" unicode="&#x459;" horiz-adv-x="1707" 
d="M147 -16q-24 0 -46.5 4t-32.5 8l-10 4v251q21 -8 48 -8q22 0 39 7t30 23.5t22.5 35.5t16 50.5t10.5 61t6.5 75.5t4 84.5t2.5 96.5l8 388h802v-329h181q190 0 301.5 -99.5t111.5 -268.5t-111.5 -268.5t-301.5 -99.5h-462v847h-273l-5 -195q-3 -100 -7.5 -170t-14 -145
t-25 -125t-41 -96.5t-60 -73t-83 -42.5t-110.5 -16zM1183 520h-139v-304h140q80 0 128.5 42t48.5 111t-48.5 110t-129.5 41z" />
    <glyph glyph-name="njecyrillic" unicode="&#x45a;" horiz-adv-x="1769" 
d="M1261 479h-154v-264h155q73 0 117.5 36.5t44.5 96.5t-44.5 95.5t-118.5 35.5zM828 0v468h-385v-468h-281v1065h281v-378h385v378h281v-378h191q185 0 294 -92t109 -249q0 -158 -109 -252t-294 -94h-472z" />
    <glyph glyph-name="tshecyrillic" unicode="&#x45b;" horiz-adv-x="1282" 
d="M447 589v-589h-281v1162h-112v163h123v130h261v-130h235v-163h-226v-283h14q24 81 106.5 141.5t208.5 60.5q162 0 257 -97.5t95 -276.5v-707h-281v628q0 99 -50 153.5t-138 54.5q-99 0 -155.5 -69t-56.5 -178z" />
    <glyph glyph-name="kjecyrillic" unicode="&#x45c;" horiz-adv-x="1187" 
d="M469 1233l237 352h248l-280 -352h-205zM807 0l-309 443h-55v-443h-281v1065h281v-414h49l300 414h316l-367 -493l394 -572h-328z" />
    <glyph glyph-name="ushortcyrillic" unicode="&#x45e;" horiz-adv-x="1171" 
d="M267 1536h165q0 -77 38.5 -122.5t116.5 -45.5t117 45.5t39 122.5h164q0 -139 -83.5 -228.5t-236.5 -89.5q-152 0 -236 89.5t-84 228.5zM1109 1065q-339 -1011 -343 -1024l-27 -72q-30 -82 -64 -139.5t-86.5 -107t-129 -74t-177.5 -24.5q-85 0 -152 12v207q32 -7 88 -7
q94 0 136.5 33.5t54.5 101.5l9 31l-363 1063h310l214 -820h12l219 820h299z" />
    <glyph glyph-name="dzhecyrillic" unicode="&#x45f;" horiz-adv-x="1261" 
d="M818 1065h281v-1065h-346v-285h-245v285h-346v1065h281v-847h375v847z" />
    <glyph glyph-name="Geupturncyrillic" unicode="&#x490;" horiz-adv-x="1130" 
d="M798 1651h257v-286v-246h-588v-1119h-290v1365h621v286z" />
    <glyph glyph-name="geupturncyrillic" unicode="&#x491;" horiz-adv-x="940" 
d="M630 1065v285h245v-503h-432v-847h-281v1065h468z" />
    <glyph glyph-name="Aringbelow" unicode="&#x1e00;" horiz-adv-x="1324" 
d="M330 0h-291l452 1365h344l450 -1365h-308l-100 331h-445zM662 1086h-13l-160 -534h332zM662 -511q-93 0 -156 60.5t-63 154.5q0 93 62.5 153t156.5 60t156.5 -60t62.5 -153q0 -94 -62.5 -154.5t-156.5 -60.5zM569 -297q0 -40 26.5 -66t66.5 -26t66 26t26 66q0 39 -26 65
t-66 26t-66.5 -26t-26.5 -65z" />
    <glyph glyph-name="aringbelow" unicode="&#x1e01;" horiz-adv-x="1157" 
d="M449 -16q-157 0 -253.5 87.5t-96.5 237.5q0 147 99 233t280 86h256v92q0 70 -44.5 106.5t-122.5 36.5q-143 0 -164 -110h-265q4 68 30 125t76.5 103.5t134 73t193.5 26.5q95 0 172 -20t138.5 -62t95.5 -115.5t34 -172.5v-711h-265v133h-13q-34 -65 -105 -107t-180 -42z
M543 194q79 0 135 45t56 114v107h-191q-81 0 -123 -35.5t-42 -94.5q0 -65 48 -100.5t117 -35.5zM578 -511q-93 0 -156 60.5t-63 154.5q0 93 62.5 153t156.5 60t156.5 -60t62.5 -153q0 -94 -62.5 -154.5t-156.5 -60.5zM485 -297q0 -40 26.5 -66t66.5 -26t66 26t26 66
q0 39 -26 65t-66 26t-66.5 -26t-26.5 -65z" />
    <glyph glyph-name="Bdotaccent" unicode="&#x1e02;" horiz-adv-x="1318" 
d="M504 1624q0 58 38.5 97.5t93.5 39.5q56 0 95 -39.5t39 -97.5q0 -56 -39 -95.5t-95 -39.5q-55 0 -93.5 39.5t-38.5 95.5zM167 0v1365h581q186 0 297.5 -90t111.5 -245q0 -123 -65.5 -199.5t-171.5 -99.5v-13q129 -11 217 -97t88 -235q0 -180 -132 -283t-343 -103h-583z
M454 1146v-342h172q247 0 247 174q0 78 -51 123t-143 45h-225zM454 603v-384h193q284 0 284 189q0 91 -61 143t-175 52h-241z" />
    <glyph glyph-name="bdotaccent" unicode="&#x1e03;" horiz-adv-x="1257" 
d="M161 1715q0 58 38.5 97.5t93.5 39.5q56 0 95 -39.5t39 -97.5q0 -56 -39 -95.5t-95 -39.5q-55 0 -93.5 39.5t-38.5 95.5zM754 -13q-111 0 -193 47t-114 130h-14v-164h-278v1455h282v-559h14q26 83 109.5 132.5t196.5 49.5q185 0 289.5 -127t104.5 -353v-130
q0 -226 -105.5 -353.5t-291.5 -127.5zM654 217q99 0 153.5 71.5t54.5 199.5v85q0 130 -55 202t-155 72t-157.5 -70t-57.5 -192v-116q0 -113 60 -182.5t157 -69.5z" />
    <glyph glyph-name="Bdotbelow" unicode="&#x1e04;" horiz-adv-x="1318" 
d="M510 -247q0 55 36.5 91.5t90.5 36.5t90.5 -36.5t36.5 -91.5q0 -54 -36.5 -90.5t-90.5 -36.5t-90.5 36.5t-36.5 90.5zM167 0v1365h581q186 0 297.5 -90t111.5 -245q0 -123 -65.5 -199.5t-171.5 -99.5v-13q129 -11 217 -97t88 -235q0 -180 -132 -283t-343 -103h-583z
M454 1146v-342h172q247 0 247 174q0 78 -51 123t-143 45h-225zM454 603v-384h193q284 0 284 189q0 91 -61 143t-175 52h-241z" />
    <glyph glyph-name="bdotbelow" unicode="&#x1e05;" horiz-adv-x="1257" 
d="M501 -247q0 55 36.5 91.5t90.5 36.5t90.5 -36.5t36.5 -91.5q0 -54 -36.5 -90.5t-90.5 -36.5t-90.5 36.5t-36.5 90.5zM754 -13q-111 0 -193 47t-114 130h-14v-164h-278v1455h282v-559h14q26 83 109.5 132.5t196.5 49.5q185 0 289.5 -127t104.5 -353v-130
q0 -226 -105.5 -353.5t-291.5 -127.5zM654 217q99 0 153.5 71.5t54.5 199.5v85q0 130 -55 202t-155 72t-157.5 -70t-57.5 -192v-116q0 -113 60 -182.5t157 -69.5z" />
    <glyph glyph-name="Blinebelow" unicode="&#x1e06;" horiz-adv-x="1318" 
d="M167 0v1365h581q186 0 297.5 -90t111.5 -245q0 -123 -65.5 -199.5t-171.5 -99.5v-13q129 -11 217 -97t88 -235q0 -180 -132 -283t-343 -103h-583zM454 1146v-342h172q247 0 247 174q0 78 -51 123t-143 45h-225zM454 603v-384h193q284 0 284 189q0 91 -61 143t-175 52
h-241zM954 -346h-634v147h634v-147z" />
    <glyph glyph-name="blinebelow" unicode="&#x1e07;" horiz-adv-x="1257" 
d="M945 -346h-634v147h634v-147zM754 -13q-111 0 -193 47t-114 130h-14v-164h-278v1455h282v-559h14q26 83 109.5 132.5t196.5 49.5q185 0 289.5 -127t104.5 -353v-130q0 -226 -105.5 -353.5t-291.5 -127.5zM654 217q99 0 153.5 71.5t54.5 199.5v85q0 130 -55 202t-155 72
t-157.5 -70t-57.5 -192v-116q0 -113 60 -182.5t157 -69.5z" />
    <glyph glyph-name="Ccedillaacute" unicode="&#x1e08;" horiz-adv-x="1338" 
d="M565 1502l236 335h241l-282 -335h-195zM670 -482q-84 -1 -146 16v128q47 -14 111 -14q109 0 109 58q0 34 -30 46t-98 12h-55v108l41 107q-233 26 -361.5 188.5t-128.5 433.5v160q0 294 153.5 461.5t424.5 167.5q124 0 227 -38t171.5 -104t106.5 -154.5t38 -189.5v-32
h-278q0 111 -70 188.5t-193 77.5q-132 0 -208.5 -97.5t-76.5 -280.5v-160q0 -184 76 -278.5t211 -94.5q124 0 192.5 72.5t68.5 182.5h278v-33q0 -118 -53 -218t-161.5 -169t-255.5 -83l-37 -94q88 0 140 -45t52 -124q0 -99 -66.5 -147.5t-181.5 -50.5z" />
    <glyph glyph-name="ccedillaacute" unicode="&#x1e09;" horiz-adv-x="1125" 
d="M444 1233l237 352h248l-280 -352h-205zM575 -482q-87 -1 -146 16v128q47 -14 111 -14q109 0 109 58q0 34 -30.5 46t-98.5 12h-55v108l44 114q-189 21 -297 149.5t-108 342.5v118q0 221 129 354.5t351 133.5q205 0 323.5 -110t121.5 -278h-258q-6 64 -50.5 112t-128.5 48
q-97 0 -151 -71t-54 -192v-113q0 -127 54.5 -197t150.5 -70q162 0 183 148h258q-3 -158 -98.5 -256t-263.5 -118l-40 -102q88 0 140 -45t52 -124q0 -98 -66.5 -147t-181.5 -51z" />
    <glyph glyph-name="Ddotaccent" unicode="&#x1e0a;" horiz-adv-x="1388" 
d="M504 1624q0 58 38.5 97.5t93.5 39.5q56 0 95 -39.5t39 -97.5q0 -56 -39 -95.5t-95 -39.5q-55 0 -93.5 39.5t-38.5 95.5zM167 1365h511q307 0 459.5 -175.5t152.5 -502.5q0 -329 -153.5 -508t-458.5 -179h-511v1365zM457 1123v-880h179q184 0 270.5 108t86.5 329
q0 222 -87 332.5t-270 110.5h-179z" />
    <glyph glyph-name="ddotaccent" unicode="&#x1e0b;" horiz-adv-x="1258" 
d="M831 1714q0 58 38.5 97.5t93.5 39.5q56 0 95 -39.5t39 -97.5q0 -56 -39 -95.5t-95 -39.5q-55 0 -93.5 39.5t-38.5 95.5zM504 1078q111 0 192 -47.5t111 -128.5h13v553h282v-1455h-278v170h-13q-26 -81 -111 -131.5t-199 -50.5q-182 0 -288.5 126t-106.5 348v142
q0 222 107.5 348t290.5 126zM603 847q-96 0 -152 -69.5t-56 -197.5v-94q0 -128 56.5 -198t154.5 -70t156 68.5t58 191.5v120q0 115 -60.5 182t-156.5 67z" />
    <glyph glyph-name="Ddotbelow" unicode="&#x1e0c;" horiz-adv-x="1388" 
d="M510 -247q0 55 36.5 91.5t90.5 36.5t90.5 -36.5t36.5 -91.5q0 -54 -36.5 -90.5t-90.5 -36.5t-90.5 36.5t-36.5 90.5zM167 1365h511q307 0 459.5 -175.5t152.5 -502.5q0 -329 -153.5 -508t-458.5 -179h-511v1365zM457 1123v-880h179q184 0 270.5 108t86.5 329
q0 222 -87 332.5t-270 110.5h-179z" />
    <glyph glyph-name="ddotbelow" unicode="&#x1e0d;" horiz-adv-x="1258" 
d="M502 -247q0 55 36.5 91.5t90.5 36.5t90.5 -36.5t36.5 -91.5q0 -54 -36.5 -90.5t-90.5 -36.5t-90.5 36.5t-36.5 90.5zM504 1078q111 0 192 -47.5t111 -128.5h13v553h282v-1455h-278v170h-13q-26 -81 -111 -131.5t-199 -50.5q-182 0 -288.5 126t-106.5 348v142
q0 222 107.5 348t290.5 126zM603 847q-96 0 -152 -69.5t-56 -197.5v-94q0 -128 56.5 -198t154.5 -70t156 68.5t58 191.5v120q0 115 -60.5 182t-156.5 67z" />
    <glyph glyph-name="Dlinebelow" unicode="&#x1e0e;" horiz-adv-x="1388" 
d="M954 -346h-634v147h634v-147zM167 1365h511q307 0 459.5 -175.5t152.5 -502.5q0 -329 -153.5 -508t-458.5 -179h-511v1365zM457 1123v-880h179q184 0 270.5 108t86.5 329q0 222 -87 332.5t-270 110.5h-179z" />
    <glyph glyph-name="dlinebelow" unicode="&#x1e0f;" horiz-adv-x="1258" 
d="M946 -346h-634v147h634v-147zM504 1078q111 0 192 -47.5t111 -128.5h13v553h282v-1455h-278v170h-13q-26 -81 -111 -131.5t-199 -50.5q-182 0 -288.5 126t-106.5 348v142q0 222 107.5 348t290.5 126zM603 847q-96 0 -152 -69.5t-56 -197.5v-94q0 -128 56.5 -198
t154.5 -70t156 68.5t58 191.5v120q0 115 -60.5 182t-156.5 67z" />
    <glyph glyph-name="Dcommaaccent" unicode="&#x1e10;" horiz-adv-x="1388" 
d="M642 -479h-185l83 324h212zM167 1365h511q307 0 459.5 -175.5t152.5 -502.5q0 -329 -153.5 -508t-458.5 -179h-511v1365zM457 1123v-880h179q184 0 270.5 108t86.5 329q0 222 -87 332.5t-270 110.5h-179z" />
    <glyph glyph-name="dcommaaccent" unicode="&#x1e11;" horiz-adv-x="1258" 
d="M634 -479h-185l83 324h212zM504 1078q111 0 192 -47.5t111 -128.5h13v553h282v-1455h-278v170h-13q-26 -81 -111 -131.5t-199 -50.5q-182 0 -288.5 126t-106.5 348v142q0 222 107.5 348t290.5 126zM603 847q-96 0 -152 -69.5t-56 -197.5v-94q0 -128 56.5 -198t154.5 -70
t156 68.5t58 191.5v120q0 115 -60.5 182t-156.5 67z" />
    <glyph glyph-name="Dcircumflexbelow" unicode="&#x1e12;" horiz-adv-x="1388" 
d="M167 1365h511q307 0 459.5 -175.5t152.5 -502.5q0 -329 -153.5 -508t-458.5 -179h-511v1365zM457 1123v-880h179q184 0 270.5 108t86.5 329q0 222 -87 332.5t-270 110.5h-179zM273 -382l269 248h192l264 -248h-223l-133 124h-11l-137 -124h-221z" />
    <glyph glyph-name="dcircumflexbelow" unicode="&#x1e13;" horiz-adv-x="1258" 
d="M504 1078q111 0 192 -47.5t111 -128.5h13v553h282v-1455h-278v170h-13q-26 -81 -111 -131.5t-199 -50.5q-182 0 -288.5 126t-106.5 348v142q0 222 107.5 348t290.5 126zM603 847q-96 0 -152 -69.5t-56 -197.5v-94q0 -128 56.5 -198t154.5 -70t156 68.5t58 191.5v120
q0 115 -60.5 182t-156.5 67zM265 -382l269 248h192l264 -248h-223l-133 124h-11l-137 -124h-221z" />
    <glyph glyph-name="Emacrongrave" unicode="&#x1e14;" horiz-adv-x="1185" 
d="M713 1746h-195l-255 192h240zM919 1497h-630v140h630v-140zM1058 243v-243h-891v1365h891v-243h-604v-321h568v-225h-568v-333h604z" />
    <glyph glyph-name="emacrongrave" unicode="&#x1e15;" horiz-adv-x="1158" 
d="M596 -19q-227 0 -359.5 128.5t-132.5 367.5v113q0 119 37 214t102.5 155.5t151.5 92.5t187 32q213 0 344 -133.5t131 -360.5v-120h-677v-50q0 -98 59 -158t156 -60q77 0 129.5 32.5t60.5 82.5h263q-3 -44 -20.5 -88.5t-53.5 -89.5t-86.5 -80t-126.5 -56.5t-165 -21.5z
M380 640h406v9q0 99 -55.5 159.5t-146.5 60.5q-92 0 -148 -60.5t-56 -159.5v-9zM706 1565h-205l-280 352h248zM896 1239h-634v147h634v-147z" />
    <glyph glyph-name="Emacronacute" unicode="&#x1e16;" horiz-adv-x="1185" 
d="M495 1746l210 192h240l-255 -192h-195zM919 1497h-630v140h630v-140zM1058 243v-243h-891v1365h891v-243h-604v-321h568v-225h-568v-333h604z" />
    <glyph glyph-name="emacronacute" unicode="&#x1e17;" horiz-adv-x="1158" 
d="M596 -19q-227 0 -359.5 128.5t-132.5 367.5v113q0 119 37 214t102.5 155.5t151.5 92.5t187 32q213 0 344 -133.5t131 -360.5v-120h-677v-50q0 -98 59 -158t156 -60q77 0 129.5 32.5t60.5 82.5h263q-3 -44 -20.5 -88.5t-53.5 -89.5t-86.5 -80t-126.5 -56.5t-165 -21.5z
M380 640h406v9q0 99 -55.5 159.5t-146.5 60.5q-92 0 -148 -60.5t-56 -159.5v-9zM468 1570l237 352h248l-280 -352h-205zM896 1239h-634v147h634v-147z" />
    <glyph glyph-name="Ecircumflexbelow" unicode="&#x1e18;" horiz-adv-x="1185" 
d="M1058 243v-243h-891v1365h891v-243h-604v-321h568v-225h-568v-333h604zM240 -382l269 248h192l264 -248h-223l-133 124h-11l-137 -124h-221z" />
    <glyph glyph-name="ecircumflexbelow" unicode="&#x1e19;" horiz-adv-x="1158" 
d="M596 -19q-227 0 -359.5 128.5t-132.5 367.5v113q0 119 37 214t102.5 155.5t151.5 92.5t187 32q213 0 344 -133.5t131 -360.5v-120h-677v-50q0 -98 59 -158t156 -60q77 0 129.5 32.5t60.5 82.5h263q-3 -44 -20.5 -88.5t-53.5 -89.5t-86.5 -80t-126.5 -56.5t-165 -21.5z
M380 640h406v9q0 99 -55.5 159.5t-146.5 60.5q-92 0 -148 -60.5t-56 -159.5v-9zM215 -382l269 248h192l264 -248h-223l-133 124h-11l-137 -124h-221z" />
    <glyph glyph-name="Etildebelow" unicode="&#x1e1a;" horiz-adv-x="1185" 
d="M736 -384q-47 0 -87 18t-62.5 40t-49.5 40t-50 18q-35 0 -50.5 -30t-16.5 -64h-154q0 100 55 170t150 70q46 0 86.5 -18t64 -40t52.5 -40t54 -18q34 0 53.5 28t20.5 72h154q0 -103 -61 -174.5t-159 -71.5zM1058 243v-243h-891v1365h891v-243h-604v-321h568v-225h-568
v-333h604z" />
    <glyph glyph-name="etildebelow" unicode="&#x1e1b;" horiz-adv-x="1158" 
d="M711 -384q-47 0 -87 18t-62.5 40t-49.5 40t-50 18q-35 0 -50.5 -30t-16.5 -64h-154q0 100 55 170t150 70q46 0 86.5 -18t64 -40t52.5 -40t54 -18q34 0 53.5 28t20.5 72h154q0 -103 -61 -174.5t-159 -71.5zM596 -19q-227 0 -359.5 128.5t-132.5 367.5v113q0 119 37 214
t102.5 155.5t151.5 92.5t187 32q213 0 344 -133.5t131 -360.5v-120h-677v-50q0 -98 59 -158t156 -60q77 0 129.5 32.5t60.5 82.5h263q-3 -44 -20.5 -88.5t-53.5 -89.5t-86.5 -80t-126.5 -56.5t-165 -21.5zM380 640h406v9q0 99 -55.5 159.5t-146.5 60.5q-92 0 -148 -60.5
t-56 -159.5v-9z" />
    <glyph glyph-name="Ecedillabreve" unicode="&#x1e1c;" horiz-adv-x="1185" 
d="M524 0h-357v1365h891v-243h-604v-321h568v-225h-568v-333h604v-243h-372l-46 -115q88 0 140 -45t52 -124q0 -99 -66.5 -147.5t-181.5 -50.5q-84 -1 -146 16v128q47 -14 111 -14q109 0 109 58q0 34 -30 46t-98 12h-55v108zM263 1766h165q0 -69 44.5 -108.5t131.5 -39.5
t131.5 39.5t44.5 108.5h162q0 -136 -89 -217t-249 -81q-161 0 -251 81.5t-90 216.5z" />
    <glyph glyph-name="ecedillabreve" unicode="&#x1e1d;" horiz-adv-x="1158" 
d="M257 1535h163q0 -69 40.5 -116.5t118.5 -47.5t119 47.5t41 116.5h160q0 -133 -84.5 -225.5t-235.5 -92.5t-237 92.5t-85 225.5zM380 640h406v9q0 99 -55.5 160t-146.5 61t-147.5 -61t-56.5 -160v-9zM585 -482q-87 -1 -146 16v128q47 -14 111 -14q109 0 109 58
q0 34 -30.5 46t-98.5 12h-55v108l44 113q-194 21 -304.5 148t-110.5 344v113q0 119 37 214t102.5 155.5t151.5 92.5t187 32q213 0 344 -133.5t131 -360.5v-120h-677v-49q0 -99 59 -159t156 -60q77 0 129.5 32.5t60.5 82.5h263q-4 -49 -27 -99.5t-65.5 -99t-114 -84
t-160.5 -47.5l-40 -102q88 0 140 -45t52 -124q0 -98 -66.5 -147t-181.5 -51z" />
    <glyph glyph-name="Fdotaccent" unicode="&#x1e1e;" horiz-adv-x="1129" 
d="M460 1624q0 58 38.5 97.5t93.5 39.5q56 0 95 -39.5t39 -97.5q0 -56 -39 -95.5t-95 -39.5q-55 0 -93.5 39.5t-38.5 95.5zM457 0h-290v1365h883v-246h-593v-352h541v-239h-541v-528z" />
    <glyph glyph-name="fdotaccent" unicode="&#x1e1f;" horiz-adv-x="850" 
d="M292 1715q0 58 38.5 97.5t93.5 39.5q56 0 95 -39.5t39 -97.5q0 -56 -39 -95.5t-95 -39.5q-55 0 -93.5 39.5t-38.5 95.5zM247 0v829h-173v222h173v106q0 161 86 231.5t285 70.5q96 0 155 -9v-204q-36 6 -99 6q-82 0 -118 -27t-36 -93v-81h238v-222h-232v-829h-279z" />
    <glyph glyph-name="Gmacron" unicode="&#x1e20;" horiz-adv-x="1363" 
d="M1249 921h-282q-12 97 -83 158t-185 61q-141 0 -218 -97.5t-77 -274.5v-164q0 -174 75.5 -277t227.5 -103q129 0 199 65.5t70 164.5v72h-267v217h542v-268q0 -102 -34 -191t-99.5 -159t-172 -110.5t-242.5 -40.5q-147 0 -261 47t-185.5 132t-108 198.5t-36.5 251.5v168
q0 280 156.5 449.5t434.5 169.5q125 0 228.5 -38t170.5 -103t105 -149t42 -179zM1006 1497h-630v140h630v-140z" />
    <glyph glyph-name="gmacron" unicode="&#x1e21;" horiz-adv-x="1234" 
d="M934 1239h-634v147h634v-147zM591 -182q110 0 165 56t55 161v152h-14q-31 -74 -109.5 -120.5t-187.5 -46.5q-179 0 -289 126.5t-110 353.5v97q0 228 109.5 354.5t289.5 126.5q112 0 193 -50.5t109 -127.5h13v165h277v-1052q0 -89 -28.5 -159.5t-75.5 -116t-113.5 -76
t-138.5 -43t-153 -12.5q-114 0 -202.5 25.5t-142.5 70.5t-83 100.5t-32 120.5h271q11 -49 63.5 -77t133.5 -28zM605 847q-99 0 -157 -71t-58 -197v-77q0 -125 59.5 -196.5t156.5 -71.5q95 0 150 69.5t55 182.5v107q0 114 -56 184t-150 70z" />
    <glyph glyph-name="Hdotaccent" unicode="&#x1e22;" horiz-adv-x="1464" 
d="M1297 0h-290v571h-550v-571h-290v1365h290v-546h550v546h290v-1365zM599 1624q0 58 38.5 97.5t93.5 39.5q56 0 95 -39.5t39 -97.5q0 -56 -39 -95.5t-95 -39.5q-55 0 -93.5 39.5t-38.5 95.5z" />
    <glyph glyph-name="hdotaccent" unicode="&#x1e23;" horiz-adv-x="1262" 
d="M156 0v1455h281v-576h14q10 33 31.5 65t57.5 64.5t95 52.5t131 20q161 0 256.5 -96t95.5 -278v-707h-281v628q0 108 -52 158t-136 50q-96 0 -154 -67t-58 -180v-589h-281zM163 1714q0 58 38.5 97.5t93.5 39.5q56 0 95 -39.5t39 -97.5q0 -56 -39 -95.5t-95 -39.5
q-55 0 -93.5 39.5t-38.5 95.5z" />
    <glyph glyph-name="Hdotbelow" unicode="&#x1e24;" horiz-adv-x="1464" 
d="M1297 0h-290v571h-550v-571h-290v1365h290v-546h550v546h290v-1365zM605 -247q0 55 36.5 91.5t90.5 36.5t90.5 -36.5t36.5 -91.5q0 -54 -36.5 -90.5t-90.5 -36.5t-90.5 36.5t-36.5 90.5z" />
    <glyph glyph-name="hdotbelow" unicode="&#x1e25;" horiz-adv-x="1262" 
d="M156 0v1455h281v-576h14q10 33 31.5 65t57.5 64.5t95 52.5t131 20q161 0 256.5 -96t95.5 -278v-707h-281v628q0 108 -52 158t-136 50q-96 0 -154 -67t-58 -180v-589h-281zM500 -247q0 55 36.5 91.5t90.5 36.5t90.5 -36.5t36.5 -91.5q0 -54 -36.5 -90.5t-90.5 -36.5
t-90.5 36.5t-36.5 90.5z" />
    <glyph glyph-name="Hdieresis" unicode="&#x1e26;" horiz-adv-x="1464" 
d="M1297 0h-290v571h-550v-571h-290v1365h290v-546h550v546h290v-1365zM925 1459q-56 0 -89.5 33t-33.5 87t33.5 87t89.5 33q58 0 92.5 -33t34.5 -87t-34.5 -87t-92.5 -33zM535 1459q-55 0 -89.5 33.5t-34.5 86.5q0 54 34 87t90 33q57 0 91 -33t34 -87t-34 -87t-91 -33z" />
    <glyph glyph-name="hdieresis" unicode="&#x1e27;" horiz-adv-x="1262" 
d="M156 0v1455h281v-576h14q10 33 31.5 65t57.5 64.5t95 52.5t131 20q161 0 256.5 -96t95.5 -278v-707h-281v628q0 108 -52 158t-136 50q-96 0 -154 -67t-58 -180v-589h-281zM490 1549q-56 0 -89.5 33t-33.5 87t33.5 87t89.5 33q58 0 92.5 -33t34.5 -87t-34.5 -87t-92.5 -33
zM100 1549q-55 0 -89.5 33.5t-34.5 86.5q0 54 34 87t90 33q57 0 91 -33t34 -87t-34 -87t-91 -33z" />
    <glyph glyph-name="Hcedilla" unicode="&#x1e28;" horiz-adv-x="1464" 
d="M295 0h-128v1365h290v-546h550v546h290v-1365h-290v571h-550v-571l-46 -115q91 0 141.5 -45.5t50.5 -123.5q0 -97 -67 -147t-190 -51q-89 0 -137 16v128q51 -14 111 -14q109 0 109 56q0 31 -26.5 45.5t-95.5 14.5h-61v108z" />
    </font>
</defs>
</svg>
